<?xml version="1.0" encoding="UTF-8" standalone="no"?>
<!DOCTYPE svg PUBLIC "-//W3C//DTD SVG 1.1//EN" "http://www.w3.org/Graphics/SVG/1.1/DTD/svg11.dtd">
<svg width="100%" height="100%" viewBox="0 0 7899 2813" version="1.1" xmlns="http://www.w3.org/2000/svg" xmlns:xlink="http://www.w3.org/1999/xlink" xml:space="preserve" xmlns:serif="http://www.serif.com/" style="fill-rule:evenodd;clip-rule:evenodd;stroke-linejoin:round;stroke-miterlimit:2;">
    <g id="Artboard1" transform="matrix(1,0,0,1,-21481,-21107)">
        <rect x="21481" y="21107" width="7899" height="2813" style="fill:none;"/>
        <g transform="matrix(1,0,0,1,21481,21107)">
            <path d="M4489,393L7332,0L7511,1471C7511,1471 7522.594,1688.887 7634,1855C7700.271,1953.815 7899,2001 7899,2001C7899,2001 7762.191,2234.726 7733,2346C7694.776,2491.705 7674.492,2622.523 7674.492,2622.523C7674.492,2622.523 7694.968,2778.415 7694,2778L4395,2813C4395,2813 4420.239,2784.071 4399,2449C4388.34,2280.823 4333,2053 4333,2053C4333,2053 4462.229,1969.954 4491,1837C4551.793,1556.064 4489,393 4489,393Z" style="fill:rgb(224,224,224);"/>
        </g>
        <g transform="matrix(-1,0,0,1,29380,21107)">
            <path d="M4489,393L7332,0L7511,1471C7511,1471 7522.594,1688.887 7634,1855C7700.271,1953.815 7899,2001 7899,2001C7899,2001 7762.191,2234.726 7733,2346C7694.776,2491.705 7674.492,2622.523 7674.492,2622.523C7674.492,2622.523 7694.968,2778.415 7694,2778L4395,2813C4395,2813 4420.239,2784.071 4399,2449C4388.34,2280.823 4333,2053 4333,2053C4333,2053 4462.229,1969.954 4491,1837C4551.793,1556.064 4489,393 4489,393Z" style="fill:rgb(224,224,224);"/>
        </g>
    </g>
</svg>
