<svg width="44" height="80" viewBox="0 0 44 80" fill="none" xmlns="http://www.w3.org/2000/svg">
<g clip-path="url(#clip0_6_19)">
<path d="M10.1816 7.35997L18.9089 14.5454V8.72724L33.4543 8.72724V5.81816L18.9089 5.81816V-6.67572e-06L10.1816 7.35997Z" fill="black"/>
<path d="M38.7564 25.5547C35.5564 24.5056 27.2728 21.791 27.2728 21.8183C27.2728 23.265 26.6981 24.6523 25.6752 25.6753C24.6523 26.6982 23.2649 27.2729 21.8183 27.2729C20.3717 27.2729 18.9843 26.6982 17.9614 25.6753C16.9384 24.6523 16.3638 23.265 16.3638 21.8183C16.3638 21.791 8.08014 24.5056 4.87833 25.5547C4.51527 25.6731 4.19927 25.9039 3.97603 26.2138C3.7528 26.5236 3.6339 26.8964 3.63652 27.2783V34.0347C3.63659 34.3108 3.69958 34.5834 3.82071 34.8316C3.94183 35.0798 4.11791 35.2971 4.33557 35.4671C4.55323 35.6371 4.80675 35.7553 5.0769 35.8126C5.34705 35.87 5.62673 35.8651 5.89469 35.7983L10.9092 34.5456V56.3637C10.9092 56.8459 11.1008 57.3084 11.4418 57.6493C11.7827 57.9903 12.2452 58.1819 12.7274 58.1819H30.9092C31.3914 58.1819 31.8538 57.9903 32.1948 57.6493C32.5358 57.3084 32.7274 56.8459 32.7274 56.3637V34.5456L37.7419 35.7983C38.0098 35.8651 38.2895 35.87 38.5597 35.8126C38.8298 35.7553 39.0833 35.6371 39.301 35.4671C39.5187 35.2971 39.6947 35.0798 39.8159 34.8316C39.937 34.5834 40 34.3108 40.0001 34.0347V27.2783C40.0026 26.8962 39.8834 26.5232 39.6598 26.2133C39.4362 25.9035 39.1198 25.6728 38.7564 25.5547Z" fill="black"/>
<path d="M33.4546 72.8146L24.7273 80V74.1818H10.1819V71.2727H24.7273V65.4546L33.4546 72.8146Z" fill="black"/>
</g>
<defs>
<clipPath id="clip0_6_19">
<rect width="43.6362" height="80" fill="white"/>
</clipPath>
</defs>
</svg>
