<svg xmlns="http://www.w3.org/2000/svg" xmlns:xlink="http://www.w3.org/1999/xlink" xmlns:inkscape="http://www.inkscape.org/namespaces/inkscape" version="1.1" width="321.7px" height="43.5px" viewBox="0 0 321.7 43.5">
  <defs>
    <clipPath id="clip_1">
      <path transform="matrix(1,0,0,-1,0,425.197)" d="M0 425.197H425.197V0H0Z"></path>
    </clipPath>
  </defs>
  <g transform="matrix(1, 0, 0, 1, -54.009563, -175.491699)">
    <g clip-path="url(#clip_1)">
      <path transform="matrix(1,0,0,-1,148.1167,193.4215)" d="M0 0H-4.824L-3.368 8.674H1.118C5.009 8.674 6.954 7.354 6.954 4.714 6.954 1.571 4.636 0 0 0M4.597 17.661H-14.132L-21.297-25.233H-9.063L-6.323-8.924H-1.248L2.526-25.233H15.219L10.574-7.257C16.582-5.078 19.586-.92 19.586 5.218 19.586 9.051 18.36 12.083 15.91 14.314 13.459 16.545 9.688 17.661 4.597 17.661"></path>
      <path transform="matrix(1,0,0,-1,184.9224,201.18329)" d="M0 0H15.431L17.002 9.302H1.541L2.654 16.026H21.056L22.627 25.423H-8.2L-15.365-17.471H16.248L17.913-7.604H-1.26Z"></path>
      <path transform="matrix(1,0,0,-1,221.2383,201.02599)" d="M0 0 5.651 12.413 7.357 0ZM1.859 25.266-17.995-17.628H-7.365L-3.36-8.861H8.122L9.319-17.628H21.977L15.316 25.266Z"></path>
      <path transform="matrix(1,0,0,-1,267.1484,175.76039)" d="M0 0H-13.029L-20.194-42.894H9.125L10.821-32.587H-5.442Z"></path>
      <path transform="matrix(1,0,0,-1,288.0264,175.76039)" d="M0 0-7.165-42.894H5.037L12.201 0Z"></path>
      <path transform="matrix(1,0,0,-1,338.9971,175.76039)" d="M0 0H-32.901L-34.473-9.302H-17.391L-39.689-34.064-41.166-42.894H-6.128L-4.525-33.373H-24.263L-1.383-8.107Z"></path>
      <path transform="matrix(1,0,0,-1,374.1289,185.15689)" d="M0 0 1.571 9.396H-29.256L-36.421-33.498H-4.808L-3.143-23.631H-22.315L-21.056-16.026H-5.625L-4.054-6.725H-19.515L-18.401 0Z"></path>
      <path transform="matrix(1,0,0,-1,97.6372,178.64569)" d="M0 0C-2.456 1.982-5.603 3.164-8.942 3.164H-39.09C-40.505 3.164-41.768 2.483-42.598 1.418-43.235 .602-43.618-.441-43.618-1.578-43.618-2.884-43.113-4.066-42.298-4.924-41.479-5.786-40.344-6.32-39.09-6.32H-22.343-14.033-12.341-8.358C-5.921-7.187-4.167-9.6-4.167-12.442-4.167-14.678-5.253-16.648-6.903-17.809H-21.547L-24.162-17.796C-25.541-17.595-26.548-16.398-26.376-15.051-26.188-13.574-27.416-12.274-29-12.274H-35.831C-37.168-12.274-38.295-13.213-38.454-14.46L-41.598-37.579C-41.787-39.057-40.559-40.356-38.975-40.356H-32.144C-30.806-40.356-29.68-39.418-29.521-38.17L-28.268-28.348C-28.109-27.1-26.982-26.161-25.645-26.161H-18.296C-17.123-26.163-16.447-26.714-16.068-27.242-15.925-27.519-15.776-27.837-15.624-28.19-14.14-31.624-12.335-38.167-12.335-38.167-12.176-39.416-11.049-40.356-9.712-40.356H-2.88C-1.297-40.356-.069-39.055-.257-37.575L-3.719-26.166C-3.345-26.117-2.978-26.015-2.618-25.835-2.31-25.682-2.008-25.516-1.712-25.341 2.698-22.724 5.674-17.764 5.674-12.075 5.674-7.158 3.451-2.786 0 0"></path>
    </g>
  </g>
</svg>