<svg xmlns="http://www.w3.org/2000/svg" xmlns:xlink="http://www.w3.org/1999/xlink" xmlns:inkscape="http://www.inkscape.org/namespaces/inkscape" version="1.1" width="143px" height="154px" viewBox="0 0 143 154">
  <defs>
    <clipPath id="clip_1">
      <path transform="matrix(1,0,0,-1,0,138.72)" d="M0 138.72H124.32V0H0Z"></path>
    </clipPath>
    <path id="font_2_53" d="M.51171877 .27993775 .5839844 0H.38671876L.328125 .25390626H.24902344L.20654297 0H.016601563L.12792969 .6669922H.4189453C.49804688 .6669922 .5566406 .64966329 .59472659 .6150055 .6328125 .58035787 .65185549 .5332591 .65185549 .4737091 .65185549 .3783722 .60514327 .31378175 .51171877 .27993775M.27197267 .39257813H.34716798C.4194336 .39257813 .4555664 .4169922 .4555664 .4658203 .4555664 .50683596 .42529298 .52734377 .3647461 .52734377H.29492188L.27197267 .39257813Z"></path>
    <path id="font_2_40" d="M.5336914 .15332031 .5078125 0H.016601563L.12792969 .6669922H.6069336L.58251956 .5205078H.296875L.27978517 .41601563H.51953127L.4951172 .27148438H.2553711L.23583985 .15332031H.5336914Z"></path>
    <path id="font_2_36" d="M.37304688 .13671875H.19433594L.13232422 0H-.032714845L.27539063 .6669922H.484375L.5883789 0H.39160157L.37304688 .13671875M.36132813 .27441407 .33447267 .46713258 .24658203 .27441407H.36132813Z"></path>
    <path id="font_2_47" d="M.49853517 .16015625 .47216798 0H.016601563L.12792969 .6669922H.33007813L.24560547 .16015625H.49853517Z"></path>
    <path id="font_2_44" d="M.3173828 .6669922 .20605469 0H.016601563L.12792969 .6669922H.3173828Z"></path>
    <path id="font_2_61" d="M.5444336 .1484375 .51953127 0H-.024902344L-.001953125 .13769531 .34472657 .52246096H.07910156L.103515628 .6669922H.6147461L.5932617 .5410156 .23779297 .1484375H.5444336Z"></path>
  </defs>
  <g transform="matrix(1.087536, 0, 0, 1.087536, 2.606112, 2.563874)" style="">
    <g clip-path="url(#clip_1)">
      <path transform="matrix(1,0,0,-1,103.4756,70.5188)" d="M0 0C10.28 6.101 17.219 17.662 17.219 30.923 17.219 42.384 12.035 52.575 3.992 59.069-1.731 63.69-9.067 66.444-16.853 66.444H-87.126C-90.425 66.444-93.37 64.858-95.305 62.376-96.789 60.472-97.681 58.041-97.681 55.391-97.681 52.347-96.506 49.591-94.605 47.592-92.694 45.582-90.049 44.337-87.126 44.337H-48.089-28.72-24.775-15.49C-9.81 42.315-5.722 36.692-5.722 30.067-5.722 24.854-8.253 20.264-12.1 17.558H-46.233L-52.329 17.588C-55.544 18.057-57.891 20.845-57.491 23.985-57.052 27.429-59.914 30.459-63.605 30.459H-79.529C-82.647 30.459-85.273 28.27-85.644 25.362L-92.974-28.528C-93.413-31.972-90.55-35.003-86.859-35.003H-70.935C-67.817-35.003-65.191-32.813-64.82-29.904L-61.901-7.01C-61.53-4.102-58.905-1.912-55.787-1.912H-38.655C-35.92-1.916-34.346-3.202-33.463-4.432-33.129-5.076-32.781-5.82-32.426-6.643-28.967-14.646-24.761-29.897-24.761-29.897-24.39-32.811-21.764-35.003-18.646-35.003H-2.722C.97-35.003 3.832-31.968 3.393-28.519L-4.678-1.922C-3.805-1.81-2.948-1.571-2.111-1.153-1.393-.794-.688-.409 0 0"></path>
      <path d="M.51171877 .27993775 .5839844 0H.38671876L.328125 .25390626H.24902344L.20654297 0H.016601563L.12792969 .6669922H.4189453C.49804688 .6669922 .5566406 .64966329 .59472659 .6150055 .6328125 .58035787 .65185549 .5332591 .65185549 .4737091 .65185549 .3783722 .60514327 .31378175 .51171877 .27993775M.27197267 .39257813H.34716798C.4194336 .39257813 .4555664 .4169922 .4555664 .4658203 .4555664 .50683596 .42529298 .52734377 .3647461 .52734377H.29492188L.27197267 .39257813Z" transform="matrix(29.566600799560547, 0, 0, -29.566600799560547, 6.06790018081665, 132.814697265625)"></path>
      <path d="M.5336914 .15332031 .5078125 0H.016601563L.12792969 .6669922H.6069336L.58251956 .5205078H.296875L.27978517 .41601563H.51953127L.4951172 .27148438H.2553711L.23583985 .15332031H.5336914Z" transform="matrix(29.566600799560547, 0, 0, -29.566600799560547, 25.700122833251953, 132.814697265625)"></path>
      <path d="M.37304688 .13671875H.19433594L.13232422 0H-.032714845L.27539063 .6669922H.484375L.5883789 0H.39160157L.37304688 .13671875M.36132813 .27441407 .33447267 .46713258 .24658203 .27441407H.36132813Z" transform="matrix(29.566600799560547, 0, 0, -29.566600799560547, 42.64178466796875, 132.814697265625)"></path>
      <path d="M.49853517 .16015625 .47216798 0H.016601563L.12792969 .6669922H.33007813L.24560547 .16015625H.49853517Z" transform="matrix(29.566600799560547, 0, 0, -29.566600799560547, 61.26874542236328, 132.814697265625)"></path>
      <path d="M.3173828 .6669922 .20605469 0H.016601563L.12792969 .6669922H.3173828Z" transform="matrix(29.566600799560547, 0, 0, -29.566600799560547, 76.850341796875, 132.814697265625)"></path>
      <path d="M.5444336 .1484375 .51953127 0H-.024902344L-.001953125 .13769531 .34472657 .52246096H.07910156L.103515628 .6669922H.6147461L.5932617 .5410156 .23779297 .1484375H.5444336Z" transform="matrix(29.566600799560547, 0, 0, -29.566600799560547, 85.86815643310547, 132.814697265625)"></path>
      <path d="M.5336914 .15332031 .5078125 0H.016601563L.12792969 .6669922H.6069336L.58251956 .5205078H.296875L.27978517 .41601563H.51953127L.4951172 .27148438H.2553711L.23583985 .15332031H.5336914Z" transform="matrix(29.566600799560547, 0, 0, -29.566600799560547, 102.95764923095703, 132.814697265625)"></path>
    </g>
  </g>
</svg>