<svg width="60" height="61" viewBox="0 0 60 61" fill="none" xmlns="http://www.w3.org/2000/svg">
<g clip-path="url(#clip0_6_183)">
<path d="M1.28047 29.8725C1.27906 34.9531 2.60656 39.9138 5.13078 44.2864L1.03906 59.2259L16.3278 55.2171C20.5565 57.5191 25.2944 58.7254 30.1091 58.7257H30.1217C46.0159 58.7257 58.9541 45.7922 58.9609 29.8953C58.9639 22.1921 55.9667 14.9485 50.5213 9.49877C45.0767 4.04955 37.8357 1.04697 30.1205 1.04346C14.2245 1.04346 1.28727 13.9763 1.2807 29.8725" fill="url(#paint0_linear_6_183)"/>
<path d="M0.250781 29.8631C0.249141 35.1265 1.62422 40.2647 4.23844 44.7937L0 60.2688L15.837 56.1164C20.2005 58.4955 25.1135 59.7499 30.1127 59.7518H30.1256C46.59 59.7518 59.993 46.353 60 29.887C60.0028 21.907 56.8978 14.403 51.2578 8.75813C45.6171 3.11391 38.1171 0.00328125 30.1256 0C13.6584 0 0.257344 13.3969 0.250781 29.8631ZM9.68227 44.0138L9.09094 43.0751C6.60516 39.1226 5.29312 34.5551 5.295 29.865C5.30016 16.1787 16.4386 5.04375 30.135 5.04375C36.7678 5.04656 43.0013 7.63219 47.6897 12.3234C52.3779 17.0152 54.9577 23.2519 54.956 29.8852C54.9499 43.5715 43.8112 54.7078 30.1256 54.7078H30.1158C25.6596 54.7055 21.2892 53.5088 17.4778 51.2473L16.5708 50.7094L7.17281 53.1734L9.68227 44.0138Z" fill="url(#paint1_linear_6_183)"/>
<path d="M22.659 17.3784C22.0997 16.1355 21.5112 16.1105 20.9794 16.0887C20.544 16.0699 20.0461 16.0713 19.5488 16.0713C19.051 16.0713 18.2422 16.2586 17.5585 17.0051C16.8741 17.7523 14.9457 19.5579 14.9457 23.2303C14.9457 26.9027 17.6206 30.4521 17.9935 30.9506C18.3669 31.4482 23.1575 39.2257 30.7447 42.2177C37.0503 44.7042 38.3335 44.2097 39.702 44.085C41.0708 43.9608 44.1186 42.2798 44.7404 40.5368C45.3626 38.794 45.3626 37.3001 45.1761 36.9879C44.9895 36.6769 44.4917 36.4901 43.7452 36.1169C42.9987 35.7438 39.3286 33.9377 38.6445 33.6886C37.9601 33.4397 37.4626 33.3155 36.9647 34.0629C36.4669 34.8091 35.0375 36.4901 34.6018 36.9879C34.1665 37.4869 33.7308 37.549 32.9846 37.1756C32.2376 36.8011 29.8336 36.0138 26.9815 33.4711C24.7625 31.4925 23.2643 29.0491 22.8289 28.3017C22.3934 27.5555 22.7822 27.1509 23.1565 26.779C23.4919 26.4445 23.9033 25.9073 24.2769 25.4716C24.649 25.0357 24.7733 24.7247 25.0222 24.2269C25.2713 23.7286 25.1466 23.2926 24.9603 22.9193C24.7733 22.5459 23.3227 18.8543 22.659 17.3784Z" fill="white"/>
</g>
<defs>
<linearGradient id="paint0_linear_6_183" x1="30" y1="59.2259" x2="30" y2="1.04346" gradientUnits="userSpaceOnUse">
<stop stop-color="#1FAF38"/>
<stop offset="1" stop-color="#60D669"/>
</linearGradient>
<linearGradient id="paint1_linear_6_183" x1="30" y1="60.2688" x2="30" y2="0" gradientUnits="userSpaceOnUse">
<stop stop-color="#F9F9F9"/>
<stop offset="1" stop-color="white"/>
</linearGradient>
<clipPath id="clip0_6_183">
<rect width="60" height="60.4688" fill="white"/>
</clipPath>
</defs>
</svg>
