{
	"asset":{
		"generator":"Khronos glTF Blender I/O v5.0.21",
		"version":"2.0"
	},
	"scene":0,
	"scenes":[
		{
			"name":"Scene",
			"nodes":[
				0,
				1,
				2,
				3,
				4,
				5,
				6,
				7
			]
		}
	],
	"nodes":[
		{
			"mesh":0,
			"name":"model_collar",
			"translation":[
				0.001895720255561173,
				-0.010900388471782207,
				0
			]
		},
		{
			"mesh":1,
			"name":"model_front"
		},
		{
			"mesh":2,
			"name":"model_inside"
		},
		{
			"mesh":3,
			"name":"model_sleeve_left"
		},
		{
			"mesh":4,
			"name":"model_sleeve_right"
		},
		{
			"mesh":5,
			"name":"model_back"
		},
		{
			"mesh":6,
			"name":"model_sweatband"
		},
		{
			"mesh":7,
			"name":"model_label",
			"rotation":[
				0.7982444763183594,
				0,
				0,
				0.6023336052894592
			],
			"translation":[
				0,
				1.5819971561431885,
				-0.0977800264954567
			]
		}
	],
	"materials":[
		{
			"doubleSided":true,
			"name":"model",
			"normalTexture":{
				"index":0,
				"texCoord":1
			},
			"occlusionTexture":{
				"index":1,
				"texCoord":1
			},
			"pbrMetallicRoughness":{
				"baseColorFactor":[
					0.800000011920929,
					0.800000011920929,
					0.800000011920929,
					1
				],
				"metallicFactor":0,
				"metallicRoughnessTexture":{
					"index":1,
					"texCoord":1
				}
			}
		},
		{
			"doubleSided":true,
			"name":"model_inside",
			"normalTexture":{
				"index":2
			},
			"occlusionTexture":{
				"index":3
			},
			"pbrMetallicRoughness":{
				"baseColorFactor":[
					0.800000011920929,
					0.800000011920929,
					0.800000011920929,
					1
				],
				"metallicFactor":0,
				"metallicRoughnessTexture":{
					"index":3
				}
			}
		},
		{
			"doubleSided":true,
			"name":"sweatband",
			"normalTexture":{
				"index":4
			},
			"pbrMetallicRoughness":{
				"baseColorTexture":{
					"index":5
				},
				"metallicFactor":0,
				"metallicRoughnessTexture":{
					"index":6
				}
			}
		},
		{
			"alphaMode":"BLEND",
			"doubleSided":true,
			"name":"label",
			"pbrMetallicRoughness":{
				"baseColorFactor":[
					0,
					0,
					0,
					1
				],
				"baseColorTexture":{
					"index":7
				},
				"metallicFactor":0
			}
		}
	],
	"meshes":[
		{
			"name":"Mesh",
			"primitives":[
				{
					"attributes":{
						"POSITION":0,
						"NORMAL":1,
						"TEXCOORD_0":2,
						"TEXCOORD_1":3
					},
					"indices":4,
					"material":0
				}
			]
		},
		{
			"name":"Mesh.005",
			"primitives":[
				{
					"attributes":{
						"POSITION":5,
						"NORMAL":6,
						"TEXCOORD_0":7,
						"TEXCOORD_1":8
					},
					"indices":9,
					"material":0
				}
			]
		},
		{
			"name":"Mesh.001",
			"primitives":[
				{
					"attributes":{
						"POSITION":10,
						"NORMAL":11,
						"TEXCOORD_0":12
					},
					"indices":13,
					"material":1
				}
			]
		},
		{
			"name":"Mesh.003",
			"primitives":[
				{
					"attributes":{
						"POSITION":14,
						"NORMAL":15,
						"TEXCOORD_0":16,
						"TEXCOORD_1":17
					},
					"indices":18,
					"material":0
				}
			]
		},
		{
			"name":"Mesh.006",
			"primitives":[
				{
					"attributes":{
						"POSITION":19,
						"NORMAL":20,
						"TEXCOORD_0":21,
						"TEXCOORD_1":22
					},
					"indices":23,
					"material":0
				}
			]
		},
		{
			"name":"Mesh.007",
			"primitives":[
				{
					"attributes":{
						"POSITION":24,
						"NORMAL":25,
						"TEXCOORD_0":26,
						"TEXCOORD_1":27
					},
					"indices":28,
					"material":0
				}
			]
		},
		{
			"name":"Mesh.008",
			"primitives":[
				{
					"attributes":{
						"POSITION":29,
						"NORMAL":30,
						"TEXCOORD_0":31
					},
					"indices":32,
					"material":2
				}
			]
		},
		{
			"name":"Plane",
			"primitives":[
				{
					"attributes":{
						"POSITION":33,
						"NORMAL":34,
						"TEXCOORD_0":35
					},
					"indices":36,
					"material":3
				}
			]
		}
	],
	"textures":[
		{
			"sampler":0,
			"source":0
		},
		{
			"sampler":0,
			"source":1
		},
		{
			"sampler":0,
			"source":2
		},
		{
			"sampler":0,
			"source":3
		},
		{
			"sampler":0,
			"source":4
		},
		{
			"sampler":0,
			"source":5
		},
		{
			"sampler":0,
			"source":6
		},
		{
			"sampler":0,
			"source":7
		}
	],
	"images":[
		{
			"mimeType":"image/jpeg",
			"name":"outside_normal",
			"uri":"bake_normal.jpg"
		},
		{
			"mimeType":"image/jpeg",
			"name":"outside_ao-outside_roughness",
			"uri":"bake_ao_roughness.jpg"
		},
		{
			"mimeType":"image/jpeg",
			"name":"inside_normal",
			"uri":"inside_normal.jpg"
		},
		{
			"mimeType":"image/jpeg",
			"name":"inside_ao-inside_roughness",
			"uri":"inside_ao_roughness.jpg"
		},
		{
			"mimeType":"image/jpeg",
			"name":"fabric_normal",
			"uri":"fabric_normal.jpg"
		},
		{
			"mimeType":"image/jpeg",
			"name":"sweatband",
			"uri":"sweatband.jpg"
		},
		{
			"mimeType":"image/jpeg",
			"name":"fabric_roughness",
			"uri":"fabric_roughness.jpg"
		},
		{
			"mimeType":"image/png",
			"name":"label",
			"uri":"label.png"
		}
	],
	"accessors":[
		{
			"bufferView":0,
			"componentType":5126,
			"count":338,
			"max":[
				0.1054360643029213,
				1.664407730102539,
				0.07412561029195786
			],
			"min":[
				-0.10716903954744339,
				1.5558621883392334,
				-0.09478936344385147
			],
			"type":"VEC3"
		},
		{
			"bufferView":1,
			"componentType":5126,
			"count":338,
			"type":"VEC3"
		},
		{
			"bufferView":2,
			"componentType":5126,
			"count":338,
			"type":"VEC2"
		},
		{
			"bufferView":3,
			"componentType":5126,
			"count":338,
			"type":"VEC2"
		},
		{
			"bufferView":4,
			"componentType":5123,
			"count":1668,
			"type":"SCALAR"
		},
		{
			"bufferView":5,
			"componentType":5126,
			"count":1732,
			"max":[
				0.1906137466430664,
				1.6200313568115234,
				0.1538970023393631
			],
			"min":[
				-0.18837425112724304,
				0.9977704882621765,
				-0.02142300084233284
			],
			"type":"VEC3"
		},
		{
			"bufferView":6,
			"componentType":5126,
			"count":1732,
			"type":"VEC3"
		},
		{
			"bufferView":7,
			"componentType":5126,
			"count":1732,
			"type":"VEC2"
		},
		{
			"bufferView":8,
			"componentType":5126,
			"count":1732,
			"type":"VEC2"
		},
		{
			"bufferView":9,
			"componentType":5123,
			"count":9855,
			"type":"SCALAR"
		},
		{
			"bufferView":10,
			"componentType":5126,
			"count":4170,
			"max":[
				0.3408251404762268,
				1.644703984260559,
				0.15009799599647522
			],
			"min":[
				-0.3391033411026001,
				1.0149589776992798,
				-0.13924400508403778
			],
			"type":"VEC3"
		},
		{
			"bufferView":11,
			"componentType":5126,
			"count":4170,
			"type":"VEC3"
		},
		{
			"bufferView":12,
			"componentType":5126,
			"count":4170,
			"type":"VEC2"
		},
		{
			"bufferView":13,
			"componentType":5123,
			"count":23430,
			"type":"SCALAR"
		},
		{
			"bufferView":14,
			"componentType":5126,
			"count":568,
			"max":[
				0.35593050718307495,
				1.6444072723388672,
				0.04971025139093399
			],
			"min":[
				0.08482937514781952,
				1.3810670375823975,
				-0.10703650116920471
			],
			"type":"VEC3"
		},
		{
			"bufferView":15,
			"componentType":5126,
			"count":568,
			"type":"VEC3"
		},
		{
			"bufferView":16,
			"componentType":5126,
			"count":568,
			"type":"VEC2"
		},
		{
			"bufferView":17,
			"componentType":5126,
			"count":568,
			"type":"VEC2"
		},
		{
			"bufferView":18,
			"componentType":5123,
			"count":3087,
			"type":"SCALAR"
		},
		{
			"bufferView":19,
			"componentType":5126,
			"count":462,
			"max":[
				-0.0857401192188263,
				1.644703984260559,
				0.04905550181865692
			],
			"min":[
				-0.35454800724983215,
				1.3816709518432617,
				-0.10723599791526794
			],
			"type":"VEC3"
		},
		{
			"bufferView":20,
			"componentType":5126,
			"count":462,
			"type":"VEC3"
		},
		{
			"bufferView":21,
			"componentType":5126,
			"count":462,
			"type":"VEC2"
		},
		{
			"bufferView":22,
			"componentType":5126,
			"count":462,
			"type":"VEC2"
		},
		{
			"bufferView":23,
			"componentType":5123,
			"count":2463,
			"type":"SCALAR"
		},
		{
			"bufferView":24,
			"componentType":5126,
			"count":1887,
			"max":[
				0.18475399911403656,
				1.6396636962890625,
				0.009748999960720539
			],
			"min":[
				-0.1883540004491806,
				0.995701014995575,
				-0.14199599623680115
			],
			"type":"VEC3"
		},
		{
			"bufferView":25,
			"componentType":5126,
			"count":1887,
			"type":"VEC3"
		},
		{
			"bufferView":26,
			"componentType":5126,
			"count":1887,
			"type":"VEC2"
		},
		{
			"bufferView":27,
			"componentType":5126,
			"count":1887,
			"type":"VEC2"
		},
		{
			"bufferView":28,
			"componentType":5123,
			"count":10803,
			"type":"SCALAR"
		},
		{
			"bufferView":29,
			"componentType":5126,
			"count":106,
			"max":[
				0.1119215190410614,
				1.6437673568725586,
				0.07573692500591278
			],
			"min":[
				-0.10974067449569702,
				1.5337097644805908,
				-0.09823402017354965
			],
			"type":"VEC3"
		},
		{
			"bufferView":30,
			"componentType":5126,
			"count":106,
			"type":"VEC3"
		},
		{
			"bufferView":31,
			"componentType":5126,
			"count":106,
			"type":"VEC2"
		},
		{
			"bufferView":32,
			"componentType":5123,
			"count":312,
			"type":"SCALAR"
		},
		{
			"bufferView":33,
			"componentType":5126,
			"count":4,
			"max":[
				0.014475335367023945,
				-0.009493112564086914,
				0.0005605220794677734
			],
			"min":[
				-0.014230282045900822,
				-0.01258164644241333,
				-0.020180940628051758
			],
			"type":"VEC3"
		},
		{
			"bufferView":34,
			"componentType":5126,
			"count":4,
			"type":"VEC3"
		},
		{
			"bufferView":35,
			"componentType":5126,
			"count":4,
			"type":"VEC2"
		},
		{
			"bufferView":36,
			"componentType":5123,
			"count":6,
			"type":"SCALAR"
		}
	],
	"bufferViews":[
		{
			"buffer":0,
			"byteLength":4056,
			"byteOffset":0,
			"target":34962
		},
		{
			"buffer":0,
			"byteLength":4056,
			"byteOffset":4056,
			"target":34962
		},
		{
			"buffer":0,
			"byteLength":2704,
			"byteOffset":8112,
			"target":34962
		},
		{
			"buffer":0,
			"byteLength":2704,
			"byteOffset":10816,
			"target":34962
		},
		{
			"buffer":0,
			"byteLength":3336,
			"byteOffset":13520,
			"target":34963
		},
		{
			"buffer":0,
			"byteLength":20784,
			"byteOffset":16856,
			"target":34962
		},
		{
			"buffer":0,
			"byteLength":20784,
			"byteOffset":37640,
			"target":34962
		},
		{
			"buffer":0,
			"byteLength":13856,
			"byteOffset":58424,
			"target":34962
		},
		{
			"buffer":0,
			"byteLength":13856,
			"byteOffset":72280,
			"target":34962
		},
		{
			"buffer":0,
			"byteLength":19710,
			"byteOffset":86136,
			"target":34963
		},
		{
			"buffer":0,
			"byteLength":50040,
			"byteOffset":105848,
			"target":34962
		},
		{
			"buffer":0,
			"byteLength":50040,
			"byteOffset":155888,
			"target":34962
		},
		{
			"buffer":0,
			"byteLength":33360,
			"byteOffset":205928,
			"target":34962
		},
		{
			"buffer":0,
			"byteLength":46860,
			"byteOffset":239288,
			"target":34963
		},
		{
			"buffer":0,
			"byteLength":6816,
			"byteOffset":286148,
			"target":34962
		},
		{
			"buffer":0,
			"byteLength":6816,
			"byteOffset":292964,
			"target":34962
		},
		{
			"buffer":0,
			"byteLength":4544,
			"byteOffset":299780,
			"target":34962
		},
		{
			"buffer":0,
			"byteLength":4544,
			"byteOffset":304324,
			"target":34962
		},
		{
			"buffer":0,
			"byteLength":6174,
			"byteOffset":308868,
			"target":34963
		},
		{
			"buffer":0,
			"byteLength":5544,
			"byteOffset":315044,
			"target":34962
		},
		{
			"buffer":0,
			"byteLength":5544,
			"byteOffset":320588,
			"target":34962
		},
		{
			"buffer":0,
			"byteLength":3696,
			"byteOffset":326132,
			"target":34962
		},
		{
			"buffer":0,
			"byteLength":3696,
			"byteOffset":329828,
			"target":34962
		},
		{
			"buffer":0,
			"byteLength":4926,
			"byteOffset":333524,
			"target":34963
		},
		{
			"buffer":0,
			"byteLength":22644,
			"byteOffset":338452,
			"target":34962
		},
		{
			"buffer":0,
			"byteLength":22644,
			"byteOffset":361096,
			"target":34962
		},
		{
			"buffer":0,
			"byteLength":15096,
			"byteOffset":383740,
			"target":34962
		},
		{
			"buffer":0,
			"byteLength":15096,
			"byteOffset":398836,
			"target":34962
		},
		{
			"buffer":0,
			"byteLength":21606,
			"byteOffset":413932,
			"target":34963
		},
		{
			"buffer":0,
			"byteLength":1272,
			"byteOffset":435540,
			"target":34962
		},
		{
			"buffer":0,
			"byteLength":1272,
			"byteOffset":436812,
			"target":34962
		},
		{
			"buffer":0,
			"byteLength":848,
			"byteOffset":438084,
			"target":34962
		},
		{
			"buffer":0,
			"byteLength":624,
			"byteOffset":438932,
			"target":34963
		},
		{
			"buffer":0,
			"byteLength":48,
			"byteOffset":439556,
			"target":34962
		},
		{
			"buffer":0,
			"byteLength":48,
			"byteOffset":439604,
			"target":34962
		},
		{
			"buffer":0,
			"byteLength":32,
			"byteOffset":439652,
			"target":34962
		},
		{
			"buffer":0,
			"byteLength":12,
			"byteOffset":439684,
			"target":34963
		}
	],
	"samplers":[
		{
			"magFilter":9729,
			"minFilter":9987
		}
	],
	"buffers":[
		{
			"byteLength":439696,
			"uri":"model.bin"
		}
	]
}
