<?xml version="1.0" encoding="utf-8"?>
<!-- Generator: Adobe Illustrator 27.2.0, SVG Export Plug-In . SVG Version: 6.00 Build 0)  -->
<svg version="1.1" xmlns="http://www.w3.org/2000/svg" xmlns:xlink="http://www.w3.org/1999/xlink" x="0px" y="0px"
	 viewBox="0 0 60 79" enable-background="new 0 0 60 79" xml:space="preserve">
<g id="print9">
	<g id="color2_00000098918990084757572510000004368325815070041258_">
		<path fill="#515151" d="M60.0000191,51.2093315v13.2300453c-0.1700439,0.7299805-0.4500122,1.4099731-0.960022,2
			c-0.0800171,0.0899658-0.1099854,0.1799927-0.1300049,0.2999878c-0.1599731,1.1599731-0.4699707,2.2600098-1.3800049,3.0799561
			c-0.1799927,0.1700439-0.2999878,0.3800049-0.2199707,0.6300049c0.1399536,0.4500122,0.0999756,0.8300171-0.3800049,1.0700073
			c-0.0499878,0.0300293-0.0499878,0.0800171-0.0300293,0.1300049h-0.1499634c-0.1199951-1.0999756-0.6700439-2-1.4200439-2.7600098
			c-0.3800049-0.3899536-0.6099854-0.789978-0.6900024-1.3299561c-0.039978-0.3099976-0.3599854-0.5300293-0.3299561-0.9000244
			c0.0100098-0.1400146-0.0300293-0.2999878-0.0400391-0.4500122c-0.0299683-0.4099731-0.0499878-0.8099976-0.3699951-1.1400146
			c-0.289978-0.2999878-0.3899536-0.7099609-0.4899902-1.1199989c-0.1199951-0.5599976-0.1499634-1.1699829-0.4500122-1.6599731
			c-0.3200073-0.539978-0.5199585-1.0599976-0.6099854-1.710022c-0.0899658-0.6499634-0.289978-1.3200073-0.4299927-1.9799805
			c-0.0900269-0.4199829-0.2600098-0.8099976-0.5999756-1.0999756c-0.1800537-0.1500244-0.1900024-0.3600464-0.2200317-0.5599976
			c-0.0499878-0.3000488-0.039978-0.6100464-0.0899658-0.9100342c-0.0400391-0.2700195-0.0900269-0.5299683-0.3300171-0.7399902
			c-0.3400269-0.3200073-0.460022-0.7700195-0.5700073-1.210022c-0.1099854-0.4099731-0.1699829-0.8299561-0.4500122-1.1799927
			c-0.0299683-0.039978-0.0499878-0.0999756-0.039978-0.1400146c0.0999756-0.5199585-0.1600342-0.8999634-0.4100342-1.3099976
			c-0.2600098-0.4499512-0.3200073-0.9799805-0.539978-1.4499512c-0.1900024-0.4100342-0.3499756-0.8200073-0.289978-1.2900391
			c0.0099487-0.0599976,0-0.1499634-0.0300293-0.1799927c-0.4099731-0.3699951-0.3599854-0.8499756-0.3599854-1.3300171
			c0-0.3099976-0.0900269-0.5699463-0.4799805-0.5599976c-0.1500244,0-0.2000122-0.0899658-0.210022-0.2199707
			c-0.0300293-0.2299805-0.0599976-0.460022-0.0800171-0.6900024c-0.0499878-0.5900269-0.0800171-1.1600342-0.4899902-1.6600342
			c-0.3499756-0.4399414-0.3900146-1.0299683-0.5900269-1.5499878c-0.2599487-0.7099609-0.3899536-1.4299927-0.3199463-2.1900024
			c0.0099487-0.0999756,0-0.1999512-0.0800171-0.289978c-0.4700317-0.5700073-0.5800171-1.25-0.5499878-1.960022
			c0.0199585-0.4599609-0.0300293-0.8599854-0.3600464-1.2399902c-0.3699951-0.4299927-0.4499512-1-0.4699707-1.5599976
			c-0.0300293-0.5200195-0.0300293-1.0499878-0.2000122-1.5499878c-0.1699829-0.5299683-0.5-0.9899902-0.5499878-1.5599976
			c-0.0499878-0.460022-0.0800171-0.9099731,0.0899658-1.3599854c0.0700073-0.2000122,0.1600342-0.2399902,0.3400269-0.1199951
			c0.210022,0.1400146,0.3699951,0.3099976,0.3900146,0.5800171c0.0199585,0.3099976,0.1599731,0.5599976,0.3900146,0.7699585
			c0.4699707,0.4199829,0.7099609,0.9800415,0.9499512,1.5300293c0.3000488,0.6899414,0.6199951,1.3699951,1.2300415,1.8499756
			c0.2600098,0.2000122,0.0999756,0.5299683,0.2099609,0.789978c0.0900269,0.2399902,0.0200195,0.5700073,0.4299927,0.5300293
			c0.1000366-0.0100098,0.1100464,0.0799561,0.1200562,0.1599731c0.0499878,0.2900391,0.0999756,0.5800171,0.1599731,0.8699951
			c0.0200195,0.0900269,0.0599976,0.2300415,0.0999756,0.2399902c0.6500244,0.0599976,0.4000244,0.6200562,0.4900513,0.9500122
			c0.0699463,0.2300415,0.1199951,0.4200439,0.3099976,0.5800171c0.5299683,0.4299927,0.8099976,1.0200195,1.0299683,1.6500244
			c0.25,0.75,0.5200195,1.4699707,1.0499878,2.0899658c0.210022,0.2600098,0.1799927,0.7299805,0.2600098,1.1000366
			c0.0200195,0.0999756,0.0100098,0.2099609,0.0900269,0.289978c0.5499878,0.5200195,0.7799683,1.2000122,1,1.8900146
			c0.2600098,0.75,0.5499878,1.4699707,1.1999512,1.9899902c0.2200317,0.1699829,0.1600342,0.4799805,0.1900024,0.7199707
			c0.0400391,0.4100342,0.1500244,0.7200317,0.4200439,1.0599976c0.5100098,0.6700439,0.9799805,1.3900146,0.9799805,2.2900391
			c0,0.1499634,0.0700073,0.2299805,0.1599731,0.3299561c0.8200073,0.8400269,1.2900391,1.8500366,1.4800415,3
			c0.039978,0.25,0.0599976,0.5200195,0.4400024,0.4500122c0.1499634-0.0299683,0.2299805-0.0800171,0.25-0.2299805
			c0.1300049-0.8900146,0.5-1.6500244,1.1900024-2.2399902c0.2999878-0.2600098,0.1699829-0.6500244,0.2600098-0.9700317
			c0.0599976-0.2000122,0.0799561-0.3099976,0.2999878-0.2799683c0.1900024,0.0199585,0.25-0.1000366,0.2600098-0.2600098
			C59.4099922,51.9193535,59.5999947,51.5393486,60.0000191,51.2093315z"/>
		<path fill="#515151" d="M4.2500191,69.5293427c-0.0300293,0.289978-0.210022,0.3099976-0.4299924,0.1400146
			c-0.2300415-0.1699829-0.3700562-0.4000244-0.3800049-0.6799927c0-0.2200317-0.0800171-0.3900146-0.2300415-0.5200195
			c-0.5700073-0.5-0.8599854-1.1799927-1.1499634-1.8499756c-0.2600098-0.6000366-0.5800171-1.1500244-1.0800171-1.5800171
			c-0.3099976-0.2700195-0.2299805-0.6900024-0.3300171-1.0399818c-0.0299683-0.1000366,0.0100098-0.3000488-0.1199951-0.2900391
			c-0.5599976,0.0400391-0.4099732-0.4199829-0.4799805-0.6900024c-0.0200195-0.0799561-0.0300293-0.1699829-0.0499878-0.25
			v-9.2199707c0.0999756,0.1599731,0.2600098,0.2699585,0.539978,0.3099976
			c0.1199951,0.0100098,0.0900269,0.1400146,0.0999756,0.2199707c0.0599976,0.5,0.1100464,1,0.1600342,1.5
			c0.0100098,0.1300049,0.0499878,0.25,0.1300049,0.3500366c0.3300171,0.3800049,0.5100098,0.8399658,0.6499634,1.3099976
			c0.2800293,0.9299927,0.6800537,1.8399658,0.5400391,2.8499756c-0.0100098,0.0800171,0,0.1799927,0.039978,0.2200317
			c0.6099854,0.7199707,0.6000366,1.5899658,0.5800171,2.4599609c0,0.2300415,0.0599976,0.4100342,0.2199707,0.5900269
			c0.4000244,0.4500122,0.5300293,1.0100136,0.5599976,1.6099892c0.0500488,0.8300171,0.1400146,1.6400146,0.5500486,2.4100342
			C4.4300117,68.0393524,4.3200264,68.7993622,4.2500191,69.5293427z"/>
		<path fill="#515151" d="M39.4668236,51.3690758c0.0110435,0.2474823-0.0411911,0.4882469,0.215889,0.6909103
			c0.2091675,0.1648941,0.1777458,0.4663124,0.174099,0.7276917c-0.0065842,0.4720917-0.0281982,0.9375801,0.6049881,1.0834236
			c0.1506996,0.0347099,0.1695633,0.3255081,0.1639137,0.5083733c-0.0111923,0.3618813,0.1262321,0.707737,0.0878296,1.0722771
			c-0.0160522,0.1523247,0.0476723,0.3107605,0.1461601,0.4274139c0.4201164,0.4976234,0.6012535,1.0998535,0.7937126,1.7036285
			c0.2619781,0.8218575,0.5512047,1.6346474,0.4398766,2.5205269c-0.0110779,0.0880814-0.0020447,0.1772614,0.0606194,0.2557182
			c0.5356712,0.6706543,0.5926476,1.4641304,0.56427,2.2727089c-0.0113029,0.3222504,0.050457,0.5789299,0.2804222,0.8372879
			c0.4445,0.4993782,0.4669456,1.1527977,0.5012817,1.7799187c0.039608,0.7233734,0.1669197,1.4012756,0.5087509,2.0643387
			c0.3747292,0.7268829,0.3282394,1.5396423,0.1644936,2.3313446c-0.0333099,0.1610565-0.1480064,0.1843109-0.2959557,0.0947037
			c-0.2584457-0.1565247-0.4431648-0.3674393-0.4508591-0.6736832c-0.0060081-0.2387085-0.0851822-0.4265594-0.2542305-0.5815964
			c-0.4677124-0.4289474-0.7555313-0.97155-1.0024109-1.5445938c-0.3172226-0.7362976-0.6527176-1.4604721-1.3067322-1.9798431
			c-0.2804413-0.2227097-0.125946-0.5820847-0.2178116-0.870163c-0.0677452-0.2124176-0.0438995-0.4454536-0.371273-0.4164505
			c-0.1324959,0.0117302-0.1618004-0.1052437-0.1777496-0.2114868c-0.0323067-0.2151108-0.0575562-0.4314041-0.094902-0.6456108
			c-0.0346336-0.1986427-0.0379677-0.4300804-0.3516045-0.3834c-0.1363678,0.0202942-0.1763496-0.0738029-0.1804314-0.1917686
			c-0.0017853-0.0514679-0.0034332-0.1039276-0.0143089-0.1539421c-0.1191711-0.5481949-0.1471062-1.0974197-0.6614571-1.520031
			c-0.4926453-0.4047852-0.657814-1.06427-0.8531456-1.6659851c-0.2047157-0.6306648-0.4649391-1.2241821-0.9183044-1.7257805
			c-0.2257919-0.2498093-0.1824989-0.6054649-0.2486839-0.9132843c-0.0607872-0.2827339-0.1420975-0.5376358-0.3400345-0.7536278
			c-0.3396492-0.3706398-0.5154724-0.8324432-0.6699753-1.2963028c-0.2904282-0.8719597-0.5602264-1.747345-1.3266487-2.352684
			c-0.1496086-0.1181641-0.1320496-0.3264122-0.1572037-0.5027428c-0.0717888-0.5032349-0.2003136-0.9454727-0.5263786-1.3923569
			c-0.4787216-0.6561279-0.9651833-1.3688126-0.9492874-2.2586899c0.0017242-0.0965462-0.0367432-0.1638107-0.1051826-0.2349052
			c-0.8485203-0.8814316-1.325201-1.9480743-1.5229759-3.1420784c-0.04533-0.2736664-0.2133999-0.2311249-0.3915176-0.2434044
			c-0.2016716-0.0139046-0.293251,0.0357094-0.309166,0.2683678c-0.0474834,0.6942902-0.3196526,1.3334236-0.8212452,1.7874222
			c-0.4258022,0.3853951-0.5378971,0.8469353-0.6380501,1.343605c-0.0283222,0.1404533-0.0299015,0.2644653-0.2117977,0.2396507
			c-0.2622547-0.0357742-0.3163223,0.1598396-0.3225117,0.3303528c-0.0178833,0.4928436-0.2181911,0.852005-0.6056385,1.1706123
			c-0.5046062,0.4149475-0.7788162,1.0199547-1.1027775,1.5763168c-0.2280788,0.3916931-0.4896679,0.7541656-0.7962494,1.0901947
			c-0.1905594,0.2088623-0.3777847,0.1731491-0.5911427,0.0862656c-0.2099133-0.0854874-0.3428822-0.2256355-0.3294735-0.4682121
			c0.0167847-0.3036652,0.1487141-0.6395226-0.2489815-0.8237381c-0.0408669-0.0189285-0.0758038-0.1196327-0.0644436-0.1717148
			c0.1570415-0.719883-0.2776241-1.3146935-0.4161873-1.9710274c-0.0519466-0.2460556-0.1145115-0.5148087-0.0084972-0.7176323
			c0.2443485-0.4674759,0.1684361-0.9529915,0.1790771-1.4355316c0.0121326-0.5501671-0.0310154-1.0954895,0.2364178-1.6208839
			c0.2172585-0.4268227,0.134594-0.9332962,0.2426357-1.396328c0.0771828-0.3307762,0.1611996-0.6759148,0.4032383-0.9005318
			c0.4890041-0.4538116,0.4701385-1.0433159,0.5323677-1.619381c0.0082569-0.0764465-0.0119095-0.1576004,0.0051479-0.2309952
			c0.0167332-0.0720139,0.0613136-0.1945648,0.0985165-0.1963921c0.6991787-0.0342827,0.3921661-0.6210175,0.4990578-0.9523392
			c0.0980186-0.3038216,0.0034523-0.677906,0.4706783-0.7421608c0.1186371-0.0163155,0.0825653-0.1448517,0.0947323-0.227169
			c0.0429955-0.2908859,0.0828609-0.5823441,0.1170292-0.8743935c0.0290928-0.2486687,0.0543404-0.484539,0.3884659-0.510376
			c0.1448021-0.0111961,0.0972843-0.1548691,0.1106224-0.2504311c0.1452312-1.0404968,0.4568081-2.0167656,1.1191101-2.8538895
			c0.0665245-0.0840797,0.1186275-0.157093,0.1171818-0.2711792c-0.012022-0.9491501,0.544363-1.7091866,0.8622627-2.5481052
			c0.0726376-0.1916809,0.2261295-0.352314,0.4018002-0.4627285c0.3676853-0.2311039,0.4252758-0.560915,0.3294487-0.9429092
			c-0.0558872-0.2227917-0.0715714-0.4363728,0.076355-0.6268368c0.1221142-0.1572208,0.2955589-0.2990456,0.4837036-0.2768974
			c0.1568508,0.0184631,0.0813503,0.2412109,0.1266594,0.3682632c0.3467598,0.9723778,0.8193836,1.8623886,1.6205044,2.5430889
			c0.1782036,0.1514149,0.2962914,0.3260765,0.2809601,0.5639915c-0.0130539,0.2025299,0.0452347,0.3965836,0.1458206,0.5502357
			c0.3717766,0.5679169,0.2858887,1.2257652,0.3992615,1.8436012c0.0178375,0.0972176-0.0308304,0.2070045,0.0649147,0.2879791
			c0.5866852,0.4961739,0.7251053,1.1978073,0.8524475,1.8970757c0.1192627,0.6549644,0.2871284,1.2831688,0.7535934,1.78862
			c0.0744476,0.0806694,0.1039696,0.170681,0.10569,0.2801247c0.0166931,1.0594177,0.4484215,2.0361443,0.6176872,3.0657425
			c0.0334396,0.2034302,0.1155472,0.4236717,0.2732391,0.5460777c0.5400009,0.4191666,0.4307594,1.0352592,0.5024872,1.5860405
			c0.0460243,0.3534584,0.0917625,0.6641121,0.3800354,0.9190178c0.3092041,0.2734146,0.4339485,0.6661415,0.5347862,1.0548515
			c0.1132011,0.4363823,0.2024307,0.8791962,0.4289398,1.2771606c0.018795,0.03302,0.0399094,0.0709152,0.0408058,0.1070175
			c0.02911,1.1705208,0.905056,2.0349998,1.1420555,3.1362267C39.4035873,50.9238319,39.4683456,51.1388855,39.4668236,51.3690758z"
			/>
		<path fill="#515151" d="M8.0663662,47.5989265c0.0278883-0.2234802,0.0247965-0.4433517-0.0670252-0.6490097
			c-0.0522208-0.1169624-0.1097479-0.2781944-0.2362061-0.2885056c-0.6130781-0.0499878-0.437706-0.5511551-0.5216503-0.8931961
			c-0.0385637-0.1571312-0.0367298-0.3345871-0.0333071-0.496006c0.0107384-0.5063095-0.302218-0.8700104-0.4825864-1.2979279
			c-0.4673343-1.1087303-0.9596105-2.2254257-0.8791313-3.4769096c0.0156221-0.2429428-0.0633254-0.4308853-0.2010813-0.6364021
			C5.2990308,39.344265,5.18367,38.7532578,5.2169294,38.1334114c0.0257354-0.4795952-0.0079594-0.9094315-0.3618083-1.3220634
			c-0.4022579-0.4690819-0.4502802-1.1120071-0.4795942-1.7121773c-0.0360827-0.7387848-0.151577-1.426342-0.4941108-2.1089325
			c-0.3144352-0.6265984-0.4136462-1.3453674-0.1815393-2.0602722c0.1200311-0.3697052,0.1898429-0.3978882,0.4978428-0.16469
			c0.1416726,0.1072674,0.2497311,0.2380943,0.2464252,0.4162464c-0.0065622,0.3536301,0.1691079,0.6040611,0.4099665,0.8353958
			c0.5360255,0.5148277,0.7989812,1.1940041,1.089437,1.8539391c0.2522602,0.5731544,0.5644302,1.1027908,1.0556788,1.5051003
			c0.2060456,0.1687431,0.1959543,0.4047623,0.2353668,0.6292305c0.0542984,0.3092461-0.0833249,0.7240868,0.4648681,0.7536774
			c0.1145363,0.0061836,0.1265478,0.2322769,0.1509991,0.3656006c0.0390196,0.2127571,0.0532246,0.4299278,0.0855665,0.6440811
			c0.0216784,0.1435318,0.057837,0.2876854,0.2502537,0.2781754c0.2573519-0.0127182,0.279561,0.1490593,0.2942667,0.3505363
			c0.0395908,0.5423698,0.163332,1.0215988,0.6268549,1.4134369c0.5383015,0.4550552,0.693819,1.1611061,0.9189539,1.804306
			c0.205862,0.5881424,0.4421844,1.1538925,0.8863173,1.6116829c0.2048683,0.2111702,0.1404562,0.5097466,0.1866579,0.7652283
			c0.0632458,0.3497658,0.1532707,0.6545486,0.408123,0.9245796c0.3607893,0.3822746,0.524765,0.8795395,0.6891212,1.3705635
			c0.2083912,0.6225815,0.3412523,1.3167114,0.8378811,1.7617073c0.5567636,0.4988747,0.6313982,1.1210022,0.7078047,1.7713852
			c0.0146112,0.1243782,0.0567474,0.1956673,0.1421461,0.287159c0.6533031,0.6999054,1.1202621,1.4949074,1.1720591,2.479538
			c0.007184,0.1366081,0.0374546,0.2370186,0.1417751,0.3363914c0.8963223,0.8537788,1.3251286,1.9466019,1.5587845,3.1288452
			c0.0431461,0.2183151,0.0753403,0.3393974,0.3398972,0.355896c0.2921963,0.0182228,0.3269424-0.1690445,0.347332-0.3495331
			c0.0958385-0.8483505,0.5031261-1.5245628,1.1153564-2.094841c0.2702618-0.2517395,0.1931438-0.6172066,0.2991753-0.9230881
			c0.0680504-0.1963081,0.0759659-0.4057732,0.3765965-0.3674889c0.1667919,0.021244,0.154604-0.1288376,0.1664715-0.2447739
			c0.0477352-0.4665337,0.1779804-0.8611221,0.5883617-1.1819763c0.5559082-0.4346313,0.8494606-1.0928001,1.200695-1.6933861
			c0.2153473-0.3682289,0.4640312-0.7089958,0.7536888-1.0260696c0.2030296-0.2222404,0.4007339-0.1867256,0.6250019-0.0908127
			c0.2276268,0.0973549,0.3581219,0.2736893,0.3053989,0.5200653c-0.0654106,0.3056831-0.0723057,0.5500641,0.2366371,0.7556915
			c0.1682606,0.1119957,0.1065178,0.3550072,0.0510635,0.5433617c-0.0560303,0.1903191-0.0710335,0.3621826,0.0403938,0.5500908
			c0.4055214,0.6838722,0.4921341,1.395813,0.2685528,2.1783028c-0.1059303,0.3707275-0.0318623,0.7935791-0.0342999,1.1928444
			c-0.0028954,0.473938,0.0222797,0.9381866-0.2218723,1.3887215c-0.2290268,0.4226227-0.1627388,0.9287453-0.2541065,1.3933563
			c-0.0967026,0.491745-0.2639809,0.9538574-0.6832352,1.2598457c-0.2602921,0.1899719-0.1566124,0.4723167-0.2229786,0.7034302
			c-0.0638466,0.2223244-0.0602417,0.4779816-0.0853672,0.7186737c-0.025116,0.2406502-0.0136986,0.4017754-0.3401012,0.4115944
			c-0.2078514,0.0062523-0.1903667,0.2822227-0.204071,0.439724c-0.0211906,0.2434807-0.057909,0.485714-0.0731411,0.7281685
			c-0.0147629,0.2350349-0.0623531,0.4011879-0.3268414,0.4233131c-0.1627216,0.0136147-0.1527824,0.1433487-0.1767216,0.2545624
			c-0.0809555,0.3760948-0.085907,0.7653046-0.2046795,1.1357689c-0.0283375,0.0883942-0.0267029,0.1969299-0.1376572,0.1993027
			c-0.4038963,0.0086403-0.2986546,0.2999573-0.3394604,0.5428505c-0.1601677,0.9534416-0.4083118,1.8786583-1.0652256,2.6318245
			c-0.0977802,0.1121063-0.1502571,0.2150192-0.1699181,0.3674927c-0.1481705,1.1490402-0.4572754,2.2306213-1.3661823,3.0403748
			c-0.2230721,0.1987381-0.1843014,0.4592133-0.1835556,0.7189484c0.0010281,0.3584747,0.1217937,0.7709579-0.3646069,0.9508362
			c-0.13587,0.0502396-0.2054672,0.0941391-0.2589912-0.1144791c-0.2819576-1.0990067-0.8270912-2.0465851-1.6952934-2.7947769
			c-0.2081146-0.1793518-0.2818384-0.4241714-0.3065424-0.68367c-0.0134935-0.141716,0.0081291-0.3005905-0.0832996-0.4105759
			c-0.3844261-0.4624023-0.3379126-1.0251694-0.3894892-1.5661697c-0.0206699-0.2168121-0.0149689-0.4435196-0.1733751-0.6189728
			c-0.5542526-0.6139069-0.6976242-1.3853989-0.8326578-2.1592789c-0.0878601-0.5035133-0.2500477-0.9723854-0.6014233-1.3571358
			c-0.0974073-0.1066628-0.1755199-0.207016-0.177537-0.3679695c-0.0136585-1.0898247-0.4882421-2.0870743-0.6466007-3.1490326
			c-0.0182934-0.1226616-0.0683689-0.2725601-0.1566639-0.3477325c-0.6602955-0.5621758-0.5466738-1.3626823-0.6573057-2.090519
			c-0.0269442-0.1772461-0.0685558-0.3162003-0.2077274-0.4322548c-0.2869253-0.2392654-0.4494028-0.5594063-0.5629511-0.9083519
			c-0.1706066-0.5242996-0.2288742-1.0866852-0.5313358-1.5664024c-0.0066261-0.0105057-0.0141201-0.0254898-0.0115519-0.0360374
			c0.168191-0.6912689-0.365859-1.1344872-0.5927792-1.6867638c-0.2295799-0.5587502-0.3369598-1.1650925-0.656002-1.6895294
			c-0.0133972-0.0220222-0.0386477-0.0465317-0.0361061-0.0671387C8.5205469,48.7851639,8.0962515,48.2301674,8.0663662,47.5989265z
			"/>
	</g>
	<g id="color1_00000017516941276629584180000004837802112068271013_">
		<path d="M48.5526314,16.8933945c-0.1514816,0.4614105,0.2216644,0.7702446,0.3107491,1.1636734
			c0.1523933,0.6730576,0.1431122,1.3891983,0.499485,2.0127373c0.0821686,0.1437702,0.1438065,0.3027287,0.2848778,0.3997288
			c0.2012405,0.1383762,0.265976,0.36199,0.2669296,0.5650291c0.0016251,0.3481846,0.1362305,0.6796894,0.092804,1.0306797
			c-0.022522,0.1820717,0.0348854,0.3823624,0.1659737,0.4887047c0.5382309,0.4366207,0.6604004,1.070715,0.8280029,1.6783829
			c0.071907,0.260725,0.1638565,0.5071621,0.2786293,0.7485046c0.0330544,0.0695095,0.1112747,0.1471786,0.0978813,0.2046165
			c-0.1523476,0.6533203,0.3225517,1.0795288,0.5508423,1.5988064c0.2330132,0.5300217,0.3248215,1.1155834,0.6091576,1.6306801
			c0.0515366,0.0933628,0.1109314,0.1907978,0.107399,0.3194656c-0.0101738,0.3705082-0.0587692,0.7293816,0.2564392,1.0572243
			c0.1927414,0.2004566,0.1306839,0.5566292,0.1247902,0.8525467c-0.0082588,0.4146557,0.0885086,0.7493267,0.5794983,0.8535538
			c0.2224464,0.0472183,0.1556358,0.3192654,0.183403,0.4824524c0.0617905,0.3630619,0.0741501,0.7360706,0.0839729,1.1056271
			c0.0039787,0.1495552,0.0277977,0.2917404,0.1211929,0.3919411c0.5192451,0.5570602,0.6353874,1.2914734,0.8843422,1.9666214
			c0.2755661,0.7473068,0.4757614,1.5088425,0.3802948,2.3184547c-0.0104332,0.0884933,0.0088005,0.1709557,0.0713997,0.2507095
			c0.4756699,0.6059608,0.5444679,1.3303108,0.5555191,2.0578117c0.0061264,0.4033546,0.0122032,0.7756462,0.3124924,1.0988464
			c0.3881645,0.4177742,0.4243164,0.9832802,0.456543,1.499279c0.0538483,0.8623962,0.1645393,1.6822548,0.5920677,2.4578285
			c0.1989594,0.3609238,0.2157364,0.8058586,0.2009506,1.2330704c-0.0058212,0.1682167-0.0555878,0.2209778-0.2231216,0.2203865
			c-0.3273926-0.001152-0.5433006-0.0557747-0.8208427-0.346653c-0.6898193-0.7229576-1.0192223-1.6152763-1.4459419-2.4676933
			c-0.1678619-0.3353195-0.354454-0.6763992-0.6493683-0.8943596c-0.3871155-0.2860947-0.4632149-0.6654396-0.5043106-1.0887184
			c-0.0228004-0.2348022-0.0201149-0.4635239-0.3879623-0.4762764c-0.2993622-0.010376-0.1254807-0.349472-0.2188988-0.5243874
			c-0.0570908-0.106884-0.0297508-0.2698364-0.0619354-0.4097519c-0.0426483-0.1853867-0.051178-0.3213005-0.3147697-0.3078995
			c-0.2793312,0.0142021-0.2352867-0.2880058-0.2388191-0.4301338c-0.0067635-0.2723236-0.1423721-0.5218468-0.1042442-0.7958336
			c0.013279-0.0954094-0.0393982-0.17556-0.1180458-0.2299309c-0.7917976-0.5474281-1.0330238-1.4270554-1.3369637-2.2574654
			c-0.1768112-0.483078-0.332016-0.96875-0.7022705-1.3408737c-0.2829208-0.2843513-0.335556-0.6557426-0.3775101-1.010807
			c-0.0360756-0.3053207-0.1252136-0.5459023-0.3180885-0.7863274c-0.469471-0.5852242-0.6980095-1.2945538-0.9313507-1.9932747
			c-0.1930656-0.578125-0.4015274-1.1485481-0.9131813-1.5182552c-0.3677902-0.2657509-0.3609047-0.6527042-0.3922043-1.014534
			c-0.0344696-0.3983307-0.1237793-0.7387199-0.4416428-1.0064831c-0.2198906-0.1852283-0.3309669-0.4556732-0.4302902-0.7147846
			c-0.2056122-0.5363369-0.6581268-0.9928341-0.544136-1.6359711c0.018055-0.1018581-0.0640297-0.1458492-0.1263275-0.21381
			c-0.7912979-0.8632927-1.2887573-1.8749371-1.5004425-3.0263939c-0.0586815-0.3191967-0.2402611-0.4272766-0.556076-0.3573513
			c-0.1241989,0.0275002-0.1215324,0.0993252-0.1344681,0.1915703c-0.1227188,0.8746529-0.4715538,1.6208324-1.1722641,2.1989594
			c-0.2921791,0.2410622-0.1960182,0.6603069-0.2893524,0.9933472c-0.0500908,0.1787434-0.0640068,0.2830563-0.2697105,0.2569809
			c-0.2545509-0.0322685-0.2665215,0.1863766-0.2726288,0.3275833c-0.0210342,0.4864941-0.2296753,0.8438606-0.6012878,1.1579418
			c-0.6579208,0.5560703-0.9260902,1.3951149-1.4296837,2.0660782c-0.1454239,0.1937523-0.2945518,0.3848248-0.4457169,0.5741501
			c-0.15028,0.188221-0.3332138,0.2781582-0.5706062,0.1619148c-0.2322235-0.1137123-0.4129448-0.2579727-0.3798523-0.5594444
			c0.0327301-0.2981873,0.0248337-0.5832119-0.2667389-0.7842293c-0.1381989-0.0952778-0.132576-0.2376022-0.0814743-0.4092903
			c0.0764046-0.2566757,0.0784836-0.5247478-0.0517654-0.7846279c-0.3275223-0.6534996-0.5652885-1.3174953-0.1888313-2.0426388
			c0.0485725-0.0935688,0.0222321-0.2275944,0.0248566-0.3430099c0.018528-0.8143559-0.0722466-1.629406,0.2482491-2.4258747
			c0.229538-0.5704556,0.125946-1.2345924,0.4050064-1.8057213c0.0667839-0.136694,0.1118774-0.311264,0.2226334-0.3946075
			c0.5486221-0.4128361,0.4490585-1.0349693,0.536026-1.5910568c0.0390472-0.2496777-0.0596352-0.5251846,0.3667641-0.512394
			c0.1496887,0.0044899,0.1710815-0.2122059,0.1902885-0.3651562c0.0409508-0.3261127,0.0929756-0.6508884,0.1443329-0.9756031
			c0.0096283-0.0608463,0.0318756-0.1681652,0.0574188-0.1709576c0.6691322-0.0732002,0.3676147-0.6298246,0.4812965-0.9727058
			c0.0302658-0.0913038,0.0657463-0.1986961,0.0673065-0.2918329c0.0045319-0.2697086,0.039505-0.4735851,0.3851967-0.4711447
			c0.1572227,0.0011101,0.0798264-0.1575289,0.0933495-0.2455339c0.159462-1.0379009,0.4392204-2.0283718,1.1315727-2.854044
			c0.069725-0.0831509,0.1000748-0.1593704,0.1159248-0.267868c0.1754074-1.2007113,0.4890518-2.3389797,1.4559402-3.1828852
			c0.2346649-0.2048178,0.2029915-0.4864864,0.1275673-0.755857c-0.0973053-0.3475175-0.0278282-0.6248393,0.2944946-0.8243814
			c0.1774673-0.1098642,0.2861633-0.0667391,0.342556,0.121541c0.3278694,1.0945854,0.8848991,2.0415516,1.7589569,2.7963753
			c0.1278839,0.1104393,0.1876831,0.2897863,0.2084465,0.4799061c0.0312653,0.2863016,0.0949059,0.5566988,0.2819099,0.8104391
			c0.1880875,0.2552137,0.112709,0.6106262,0.1807327,0.9172764c0.0189972,0.0856533-0.0009727,0.1791916,0.0102043,0.267437
			c0.0490494,0.3873405,0.1459694,0.7331343,0.4319611,1.0481377c0.4067764,0.4480476,0.4413719,1.0665932,0.5535851,1.6348171
			c0.1169853,0.592371,0.2658119,1.1700735,0.6942139,1.6158886C48.6352882,16.5193176,48.4477005,16.7210178,48.5526314,16.8933945
			z"/>
		<path d="M17.4499702,46.439373c-0.0299683,0.2699585-0.2799683,0.0699463-0.3899536,0.1399536
			c-0.1900024-0.0299683-0.3200073-0.0100098-0.5-0.1799927c-0.9200439-0.8900146-1.2000122-2.1400146-1.8900146-3.1400146
			c-0.0599976-0.0699463-0.0900269-0.1699829-0.1599731-0.2099609c-0.4800415-0.3400269-0.6600342-0.8200073-0.6900024-1.3800049
			c-0.0100098-0.1900024-0.0700073-0.289978-0.2800293-0.2800293c-0.210022,0.0200195-0.2399902-0.1300049-0.2700195-0.289978
			c-0.0199585-0.2199707-0.0299683-0.460022-0.0799561-0.6699829c-0.0400391-0.1600342-0.0400391-0.3600464-0.3300171-0.3699951
			c-0.3699951-0.0100098-0.25-0.4000244-0.2600098-0.5800171c-0.0499878-0.4899902-0.1900024-0.8699951-0.5700073-1.2200317
			c-0.5499878-0.539978-0.7600098-1.289978-1-2c-0.1499634-0.4299927-0.289978-0.8499756-0.6199951-1.1799927
			c-0.3699951-0.3699951-0.3900146-0.8599854-0.460022-1.3299561c-0.0199585-0.1199951,0.0100098-0.2600098-0.0999756-0.3599854
			C9.1999702,32.7993584,8.9799995,31.9693413,8.70998,31.189373c-0.2199707-0.6500244-0.5100098-1.210022-1.0499878-1.6500244
			c-0.3099976-0.2600098-0.1799927-0.7000122-0.2700195-1.0499878c-0.0499878-0.2199707-0.0599976-0.4500122-0.2399902-0.6199951
			c-0.5299683-0.5100098-0.7000122-1.2299805-1.0700073-1.8499756c0-0.0100098-0.0099487-0.0200195-0.0099487-0.0300293
			c0.1499634-0.6300049-0.3200073-0.960022-0.6200562-1.3900146c-0.5599976-0.8099976-0.9799805-1.6900024-1.0999756-2.6900024
			c-0.0299683-0.3299561-0.2999878-0.1300049-0.4600217-0.1699829c-0.1399536-0.039978-0.2199707,0.0100098-0.2299805,0.1900024
			c-0.0499878,0.7799683-0.3399658,1.4799805-0.9299927,1.9899902c-0.3300171,0.2800293-0.4199829,0.6000366-0.460022,0.9799805
			c-0.0299683,0.2400513-0.0099487,0.5400391-0.4099731,0.4800415c-0.0900269-0.0200195-0.1300049,0.039978-0.1300049,0.1300049
			c-0.0200195,0.6999512-0.4500122,1.1399536-0.9099731,1.6199951c-0.3400269,0.3499756-0.5700073,0.789978-0.8200073,1.2299805
			V16.4693413c0.3200073-0.039978,0.2999878-0.3499756,0.3099976-0.5599966
			c0.0199585-0.2799683,0.1399536-0.5499878,0.0999756-0.8299561c-0.0100098-0.1200562,0.0300293-0.2200317,0.1500244-0.2300415
			c0.3200073-0.0100098,0.3599854-0.2199707,0.3099976-0.4500122c-0.0800171-0.3799438,0.1799927-0.6499634,0.289978-0.9599609
			c0.2200317-0.6799927,0.3699951-1.3900146,0.960022-1.8800049c0.0700073-0.0499878,0.0700073-0.1300049,0.0700073-0.210022
			c0-0.9899902,0.4799805-1.8200073,0.9099731-2.6699829c0.0599976-0.1199951,0.1500244-0.2299805,0.25-0.2800293
			c0.4500122-0.2399902,0.460022-0.5999756,0.3300171-1.0199585C3.6100047,7.1493349,3.6700022,6.939374,3.8200266,6.7793398
			c0.1199951-0.1199951,0.2599485-0.2399902,0.4400022-0.1999512c0.1899414,0.0299683,0.0899658,0.2099609,0.1299438,0.3199463
			c0.3800049,0.9800415,0.8400269,1.9100342,1.6800537,2.5900269C6.1499825,9.5593691,6.2500191,9.6493349,6.2500191,9.729352
			c0.0199585,0.5599976,0.3599854,1.0200195,0.4899902,1.5400391c0.0700073,0.2599487,0.0700073,0.539978,0.0800171,0.789978
			c0.0199585,0.3800049,0.1599731,0.6499634,0.3799438,0.9299927c0.3700562,0.4799805,0.4700317,1.0800171,0.5700073,1.6699829
			c0.1100464,0.6199951,0.2800293,1.210022,0.7400513,1.6799917c0.0599976,0.0700073,0.1199951,0.1300049,0.1099854,0.2300415
			c-0.0499878,1.0499878,0.4699707,1.9899902,0.5700073,3.0100098c0.039978,0.3899536,0.2799683,0.75,0.6099854,1.0099487
			c0.1099854,0.0800171,0.1400146,0.1800537,0.1400146,0.3000488c0,0.4799805,0.0999756,0.9599609,0.1499634,1.4400024
			c0.0100098,0.0899658,0.0200195,0.1699829,0.1000366,0.2299805c0.5299683,0.3900146,0.6799927,0.9699707,0.8200073,1.5599976
			c0.0799561,0.3300171,0.1599731,0.6599731,0.3599854,0.9500122c0.0100098,0.0299683,0.0299683,0.0499878,0.0299683,0.0700073
			c-0.1799927,0.7999878,0.5,1.2999878,0.6900024,1.9699707c0.1400146,0.460022,0.2800293,0.9299927,0.5200195,1.3599854
			c0.0599976,0.1000366,0.039978,0.2200317,0.039978,0.3400269c0,0.3399658-0.039978,0.6699829,0.2800293,0.9400024
			c0.2000122,0.1900024,0.0999756,0.4899902,0.1099854,0.75c0,0.4599609,0,0.8999634,0.6199951,1.0100098
			c0.1099854,0.0199585,0.1500244,0.2299805,0.1600342,0.3800049c0.0199585,0.4499512,0.0799561,0.8899536,0.1399536,1.3299561
			c0.0200195,0.1600342,0.0700073,0.2700195,0.1700439,0.4000244c0.3599854,0.4400024,0.539978,0.9799805,0.6799927,1.5199585
			c0.0799561,0.2800293,0.1499634,0.5700073,0.2600098,0.8300171c0.1999512,0.4400024,0.2299805,0.8800049,0.2199707,1.3499756
			c-0.0200195,0.3300171,0.0300293,0.6200562,0.2299805,0.9300537c0.3099976,0.5,0.4100342,1.0899658,0.4000244,1.6900024
			c-0.0100098,0.4599609,0,0.8699951,0.3400269,1.2799683c0.3399658,0.4100342,0.3999634,0.960022,0.4299927,1.5100098
			c0.0499878,0.7700195,0.0799561,1.5499878,0.539978,2.2600098C17.5000191,45.4093437,17.4900093,45.939373,17.4499702,46.439373z"
			/>
		<path d="M30.0089989,46.5769691c-0.3099098,0-0.6198177,0.0000229-0.9297256-0.0000076
			c-0.6359825-0.000061-1.0967045-0.4276924-1.1564713-1.0660057c-0.0213985-0.2285271-0.0820179-0.4337578-0.2469921-0.6201782
			c-0.2554779-0.288681-0.1125584-0.6857567-0.2165813-1.0230293c-0.0433025-0.1404037-0.0647545-0.3126793-0.0591812-0.4446983
			c0.0122528-0.2902679-0.1295624-0.4779167-0.2822132-0.6783867c-0.4987946-0.6550369-0.5600471-1.457386-0.7419739-2.2174034
			c-0.106123-0.4433517-0.2505798-0.8573189-0.6079559-1.1665955c-0.0578442-0.0500603-0.1076603-0.109005-0.0971451-0.1977234
			c0.0651169-0.5494537-0.1046696-1.0450745-0.2887077-1.5569382c-0.172451-0.4796257-0.2272263-1.0026283-0.3209858-1.5089073
			c-0.0728779-0.3935318-0.2518196-0.7240448-0.5667267-0.9653778c-0.2326469-0.1782875-0.1406937-0.4436874-0.204073-0.6625252
			c-0.053833-0.1858902-0.089695-0.4171333-0.0699368-0.5965881c0.0548153-0.4978371-0.1941509-0.8011742-0.4914799-1.1417236
			c-0.2653046-0.3038673-0.3629856-0.720047-0.4580059-1.1173229c-0.0795212-0.3324928-0.1601467-0.6646576-0.3297195-0.9672298
			c-0.0294991-0.0526295-0.063343-0.1209183-0.0536976-0.1745243c0.0913887-0.5076962-0.1393471-0.8949146-0.4160595-1.2937775
			c-0.3882542-0.5596523-0.431591-1.2715816-0.7526569-1.8656921c-0.1189651-0.2201385-0.1772537-0.4436417-0.15868-0.6954021
			c0.0177689-0.2408295,0.0362549-0.479372-0.2023201-0.6622448c-0.1202106-0.0921478-0.1078873-0.2756844-0.1101055-0.4318447
			c-0.003973-0.2796574,0.0149193-0.5582485-0.0579948-0.8378868c-0.0427055-0.1637802-0.1586514-0.3665009-0.2406845-0.3625813
			c-0.6787109,0.0324345-0.4823112-0.5291138-0.5208817-0.8300037c-0.0462971-0.3611755-0.1667957-0.726265-0.1080151-1.1018047
			c0.0120316-0.0768547-0.0182304-0.1485672-0.0723305-0.2125378c-0.7371483-0.8716793-0.8386269-2.0019054-1.2233105-3.0169277
			c-0.030159-0.0795784-0.0101662-0.1789913-0.0095978-0.2691631c0.0037498-0.5962944,0.0245857-1.1681156-0.3675537-1.7113171
			c-0.3726387-0.5161896-0.2695484-1.1782017-0.2592602-1.7889977c0.0044842-0.2662573-0.0331688-0.4977551-0.2200985-0.7027569
			c-0.5042896-0.5530491-0.5916595-1.2543917-0.6259594-1.9515867c-0.0368137-0.748188-0.167942-1.4450312-0.5166435-2.1282101
			c-0.3281879-0.6429892-0.3550777-1.3704157-0.1632252-2.0806227C16.8863945,8.4383307,16.9226017,8.255908,17.0647583,8.2844
			c0.2486649,0.04984,0.5118198,0.2293673,0.5180683,0.4522715c0.015831,0.5649805,0.3857136,0.874341,0.7035561,1.2537355
			c0.3601246,0.4298573,0.5766239,0.9582071,0.7895603,1.475297c0.2126102,0.5163012,0.4760647,1.004838,0.8938389,1.3693647
			c0.2746677,0.2396564,0.3803768,0.5134201,0.4375191,0.8449287c0.0517216,0.300066-0.1012363,0.7427855,0.4720459,0.7258806
			c0.0429459-0.0012665,0.1119843,0.2095652,0.1343956,0.3282948c0.0422821,0.2239523,0.0578785,0.4528399,0.0875416,0.6792879
			c0.02104,0.160614,0.0613899,0.3051329,0.2742519,0.2859468c0.2102547-0.0189524,0.2670746,0.1085854,0.2704487,0.2870035
			c0.0111752,0.5913343,0.1585579,1.0938711,0.6598606,1.5016127c0.3766518,0.3063526,0.5523567,0.7966042,0.7097206,1.2618656
			c0.2614326,0.7729549,0.48423,1.5624237,1.0990715,2.1576996c0.1831455,0.1773167,0.1066608,0.4450703,0.1405144,0.6594925
			c0.0654125,0.4143467,0.1689529,0.7605629,0.4780846,1.0722084c0.3575878,0.3605042,0.4635296,0.8729668,0.6326599,1.3392563
			c0.3000488,0.8272419,0.5627117,1.6637383,1.3099117,2.2433434c0.1821499,0.1412945,0.0978413,0.4781494,0.1599522,0.7206154
			c0.0217514,0.0849037,0.0076065,0.1783466,0.0223255,0.2657948c0.0499439,0.2966824,0.2086964,0.5140533,0.391489,0.7633133
			c0.4994068,0.6810131,1.0191422,1.3906651,0.975256,2.3126221c-0.0064964,0.1364689,0.0622063,0.212225,0.1469517,0.2923489
			c0.9142857,0.8644047,1.3207359,1.9817543,1.5502186,3.1753387c0.0465088,0.2419167,0.1358223,0.2872925,0.3471165,0.2935791
			c0.2078094,0.0061836,0.2635136-0.0490761,0.2952805-0.2692184c0.1192608-0.8264008,0.4693222-1.5497208,1.1048679-2.1112137
			c0.3115692-0.2752686,0.2620239-0.6689415,0.3587303-1.0132751c0.0307045-0.1093292,0.0410538-0.3024368,0.1183624-0.2951088
			c0.547287,0.0518589,0.4365616-0.3931198,0.4877129-0.6620445c0.0539055-0.2833939,0.1597443-0.4860592,0.3844872-0.6663952
			c0.5202255-0.4174366,0.849781-0.9854965,1.1736984-1.5567036c0.2587357-0.4562645,0.5479317-0.8898849,0.9016724-1.2853508
			c0.2509689-0.2805729,0.4682426-0.1475277,0.7106285-0.0424671c0.231781,0.1004639,0.2154694,0.2870197,0.1958237,0.4974422
			c-0.0222206,0.2380028-0.112812,0.4919548,0.221344,0.6512051c0.2281647,0.1087418,0.1855736,0.383007,0.1139488,0.5931263
			c-0.0813942,0.2387676-0.0396042,0.4269924,0.08358,0.6473694c0.3564148,0.6376057,0.4563904,1.3164539,0.231617,2.0290947
			c-0.0949059,0.3008995-0.0321732,0.6143875-0.0384407,0.9218063c-0.0129929,0.6376152,0.015049,1.2582321-0.2814484,1.8775902
			c-0.2457542,0.5133514-0.1432304,1.1457558-0.3492661,1.6976089c-0.094696,0.2536545-0.1773376,0.520092-0.4191971,0.6649399
			c-0.3522835,0.2109756-0.2706566,0.5835648-0.3425522,0.8862c-0.0511513,0.2152939-0.0697708,0.4529266-0.0827484,0.6784859
			c-0.0141945,0.2468643-0.0072098,0.4085236-0.3379021,0.3977852c-0.220768-0.0071716-0.1929817,0.2795143-0.1955185,0.3949165
			c-0.0062599,0.2844658-0.1170006,0.5545654-0.0912857,0.8362579c0.0203667,0.2231407-0.0886841,0.34869-0.2885056,0.3718491
			c-0.2307816,0.0267525-0.2345009,0.1727104-0.2568626,0.3466415c-0.0451431,0.3511772-0.0567322,0.7063599-0.1477203,1.0534019
			c-0.0310822,0.1185265-0.0847168,0.2116127-0.1771126,0.2080383c-0.3407936-0.0131874-0.3095627,0.2088928-0.299778,0.4269028
			c0.0120811,0.2691841-0.0078659,0.5246506-0.1451912,0.774128c-0.2517433,0.4573555-0.2570381,1.0168228-0.5580101,1.4524803
			c-0.302063,0.437233-0.5302391,0.853054-0.5915413,1.4287338c-0.0490189,0.4603386-0.3543129,0.9342804-0.5076466,1.4168892
			c-0.046917,0.1476784-0.1432037,0.1864166-0.2915726,0.1833076
			C30.8355408,46.5712776,30.4222126,46.5769196,30.0089989,46.5769691z"/>
		<path d="M60.0000191,12.9193544v8.919982c-0.6199951-1.1300049-1.0500488-2.2999878-1.0100098-3.6199951
			c0.0100098-0.2799683-0.0400391-0.5-0.2399902-0.7299805c-0.2399902-0.2999878-0.3200073-0.6799927-0.3699951-1.0599976
			c-0.0100098-0.1400146-0.0300293-0.289978-0.0200195-0.4299917c0.039978-0.6099854-0.039978-1.1600342-0.4500122-1.6699829
			c-0.3300171-0.4000244-0.3599854-0.9400024-0.3900146-1.4500122c-0.039978-0.7700195-0.1300049-1.5200195-0.5199585-2.2399902
			c-0.3600464-0.6600342-0.3400269-1.4400024-0.1500244-2.1900024c0.0499878-0.2200317,0.1699829-0.2300415,0.3599854-0.1199951
			c0.2600098,0.1599731,0.3699951,0.3899536,0.3900146,0.6699829c0.0100098,0.1900024,0.0800171,0.3599854,0.2000122,0.4799805
			c0.6699829,0.6099854,0.9899902,1.4199829,1.3599854,2.210022C59.3700142,12.1493349,59.6100044,12.5893373,60.0000191,12.9193544
			z"/>
	</g>
</g>
</svg>
