<?xml version="1.0" encoding="utf-8"?>
<!-- Generator: Adobe Illustrator 27.2.0, SVG Export Plug-In . SVG Version: 6.00 Build 0)  -->
<svg version="1.1" xmlns="http://www.w3.org/2000/svg" xmlns:xlink="http://www.w3.org/1999/xlink" x="0px" y="0px"
	 viewBox="0 0 60 79" enable-background="new 0 0 60 79" xml:space="preserve">
<g id="print1">
	<g id="color1">
		<path d="M37.7553711,77.3430786c-1.2600098-1.0199585-2.5400391-2-3.7300415-3.0999756
			c-0.5999756-0.5599976-1.2299805-1.0999756-1.9500122-1.5200195c-1.0499878-0.6199951-2.0299683-1.3299561-2.9899902-2.0799561
			c-1.3699951-1.0700073-2.75-2.1199951-3.9199829-3.4200439c-0.5700073-0.6199951-1.1799927-1.1999512-1.8300171-1.7399902
			c-0.8699951-0.7299805-1.8299561-1.3599854-2.7399902-2.0499878c-0.4699707-0.3599854-0.8900146-0.7700195-1.1699829-1.2999878
			c-0.0900269-0.1799927-0.1600342-0.3699951-0.2600098-0.5400391c-0.1300049-0.2399902-0.3300171-0.3799438-0.6300049-0.3799438
			c-0.4299927,0.0099487-0.7000122-0.210022-0.8400269-0.6300049c-0.2299805-0.7300415-0.4199829-1.4800415-0.5799561-2.2300415
			c-0.1099854-0.5100098-0.0800171-0.9899902,0.2600098-1.4099731c0.289978-0.3699951,0.6900024-0.4700317,1.0299683-0.2299805
			c0.5100098,0.3699951,1.0900269,0.5,1.7000122,0.5c0.4500122,0.0099487,0.9000244-0.0500488,1.3599854-0.0400391
			c1.2299805,0.0300293,2.1400146,0.5400391,2.6699829,1.7000122c0.25,0.5499878,0.6700439,0.9500122,1.2800293,1.0800171
			c0.3099976,0.0700073,0.6300049,0.0999756,0.9500122,0.1099854c0.7399902,0.0200195,1.4699707,0.0100098,2.2099609,0.0100098
			c0.6400146-0.0100098,0.9100342-0.4299927,0.6700439-1.0200195c-0.1600342-0.3699951-0.4100342-0.6599731-0.710022-0.9199829
			c-1.0800171-0.9799805-2.1699829-1.960022-3.289978-2.9000244c-0.6900024-0.5799561-1.3699951-1.1699829-2.1799927-1.5899658
			c-1.8200073-0.9299927-3.4500122-2.1400146-4.9100342-3.5800171c-0.3699951-0.3699951-0.789978-0.6400146-1.2700195-0.8400269
			c-1.2799683-0.5499878-2.5-1.2099609-3.6999512-1.9099731c-0.9000244-0.5300293-1.7300415-1.1500244-2.6000366-1.7200317
			c-0.8900146-0.6699829-1.7999878-1.289978-2.8699951-1.6699829s-2.1499634-0.7999878-3.1199951-1.4099731
			c-1.0700073-0.6700439-2.2000122-1.1799927-3.4199829-1.5C0.7883301,40.9112549,0.3942871,40.8384399,0,40.7697144v8.4720459
			c0.7355347,0.4463501,1.4997559,0.835022,2.1653442,1.3913574c0.2700195,0.2299805,0.5499878,0.4599609,0.7199707,0.7700195
			c0.3099976,0.5499878,0.7900391,0.9199829,1.2600098,1.3099976c1.6900024,1.3999634,3.4299927,2.7399902,5,4.2799683
			c0.4800415,0.4700317,0.9200439,0.9799805,1.3800049,1.4700317c0.5400391,0.7699585,1.1600342,1.4499512,1.9199829,2.0199585
			c0.5900269,0.4299927,1.1500244,0.9100342,1.710022,1.3900146c0.3500366,0.289978,0.6199951,0.6500244,0.8300171,1.0499878
			c0.4599609,0.8900146,1.2299805,1.4299927,2.1099854,1.8200073c0.3300171,0.1500244,0.6600342,0.2800293,0.9899902,0.4199829
			c0.4800415,0.2000122,0.8599854,0.5100098,1.1000366,0.9900513c0.1599731,0.3099976,0.3299561,0.5999756,0.5499878,0.8699951
			c0.2700195,0.3499756,0.6199951,0.5999756,1.0599976,0.6799927c0.1400146,0.0199585,0.2199707,0.0899658,0.2799683,0.2099609
			c0.0700073,0.1400146,0.1500244,0.2800293,0.2200317,0.4200439c0.4199829,0.9199829,1.1300049,1.5899658,1.8999634,2.1999512
			l0.0500488,0.0500488c0.6900024,0.4899902,0.8200073,1.1900024,0.75,1.9699707
			c-0.0100098,0.0900269-0.0599976,0.1000366-0.1400146,0.1099854c-0.4000244,0.0400391-0.7299805-0.0499878-1.0599976-0.3299561
			c-1.3599854-1.2000122-2.6600342-2.4700317-3.960022-3.7400513c-2.4299927-2.3799438-4.9199829-4.6999512-7.4199829-7.0099487
			c-0.9799805-0.9000244-1.9799805-1.7900391-3.0999756-2.5100098c-0.1600342-0.1000366-0.2900391-0.2200317-0.4300537-0.3400269
			c-0.3399658-0.3599854-0.6199951-0.7600098-0.7299805-1.25c-0.039978-0.1599731-0.1699829-0.2299805-0.2999878-0.289978
			c-0.3300171-0.1600342-0.6500244-0.3200073-0.9799805-0.4500122c-0.5-0.2000122-0.9500122-0.460022-1.3000488-0.9000244
			c-0.5-0.6499634-1.1699829-1.1199951-1.8399658-1.5699463c-0.8699951-0.5800171-1.7800293-1.1100464-2.5900269-1.7900391
			C0.0981445,52.4430542,0.0474854,52.4075317,0,52.3679199v16.9539185
			c0.1018066-0.0474854,0.2035522-0.1017456,0.3053589-0.1487427c0.4099731-0.2099609,0.6900024-0.1599731,1,0.1699829
			c0.7000122,0.7800293,1.2099609,0.8600464,2.1099854,0.3500366c0.789978-0.4500122,1.6199951-0.7800293,2.460022-1.1000366
			c0.6199951-0.2299805,1.0199585-0.0199585,1.2199707,0.6200562c0.1099854,0.3599854,0.3499756,0.5899658,0.6900024,0.7399902
			c0.5700073,0.3099976,1.1799927,0.5299683,1.7700195,0.8099976c1.25,0.5899658,2.3899536,1.3499756,3.4400024,2.2399902
			c0.4400024,0.3699951,0.75,0.8499756,1.1300049,1.2700195c0.2999878,0.3399658,0.6099854,0.6699829,0.9599609,0.9499512
			c0.1799927,0.1500244,0.3699951,0.2700195,0.5900269,0.3400269c0.1099854,0.039978,0.2099609,0.0900269,0.3200073,0.1400146
			c0.5599976,0.25,0.8699951,0.6799927,0.8699951,1.3099976c0,0.0899658,0,0.1799927,0.0199585,0.2699585
			c0.0900269,0.4800415,0.4300537,0.6800537,0.9700317,0.5599976c0.2399902-0.0499878,0.4799805-0.0799561,0.7199707-0.0799561
			c0.3600464,0,0.5700073,0.1400146,0.6900024,0.4899902c0.0599976,0.1699829,0.0900269,0.3499756,0.0900269,0.539978
			c0,0.0689697,0.0010376,0.1379395,0,0.2069092h20.27948c-0.1037598-0.0953369-0.2191772-0.1777954-0.319458-0.2769165
			C38.8153687,78.2330933,38.2853394,77.7830811,37.7553711,77.3430786z M29.4553223,76.8331299
			c-0.0899658,0.0999756-0.1699829,0.2299805-0.3599854,0.1699829c-0.5100098-0.1600342-1.0100098-0.3300171-1.3900146-0.7399902
			c-0.1999512-0.210022-0.4799805-0.25-0.7399902-0.3500366c-0.3200073-0.1199951-0.3499756-0.1799927-0.3499756-0.6199951
			c0.039978-0.2799683,0.0899658-0.6599731,0.1400146-1.0299683c0.0199585-0.1099854,0.0699463-0.1000366,0.1499634-0.0499878
			c0.710022,0.4699707,1.4500122,0.8999634,2.1099854,1.4499512c0.25,0.210022,0.4100342,0.5100098,0.5500488,0.8000488
			C29.6453247,76.6231079,29.5453491,76.7330933,29.4553223,76.8331299z"/>
		<path d="M6.7953491,78.9230957c0.0599976-0.0199585,0.1199951-0.0299683,0.1599731-0.0499878
			c0.1092529,0.0164185,0.1985474,0.0591431,0.2785034,0.1134644C7.322937,78.9896851,7.4101562,79,7.5,79h7.3978882
			c-0.2803345-1.2342529-1.4680176-1.8968506-2.3025513-1.8869019c-0.6900024,0-1.3699951,0.1000366-2.0599976,0.1500244
			c-0.539978-0.0400391-0.8900146-0.3300171-1.0900269-0.8300171c-0.1399536-0.3599854-0.4099731-0.5599976-0.7799683-0.6500244
			c-0.5800171-0.1399536-1.1699829-0.1999512-1.75-0.3099976c-0.1900024-0.0299683-0.2399902,0.0800171-0.2000122,0.2400513
			c0.0499878,0.25,0.0499878,0.5099487,0.0599976,0.7699585c0.0200195,0.5200195-0.2299805,0.8599854-0.6699829,1.0800171
			c-0.1900024,0.0999756-0.3900146,0.1500244-0.5999756,0.2000122c-0.3400269,0.0799561-0.6800537,0.0999756-1,0.2299805
			c-0.1588745,0.0585327-0.2583618,0.1339722-0.3244629,0.2249756c0.7803345,0.3863525,1.6335449,0.647522,2.5385132,0.7411499
			C6.7453613,78.9481201,6.7681885,78.9324341,6.7953491,78.9230957z"/>
		<path d="M1.1653442,72.0430908c-0.0499878-0.2799683-0.1699829-0.4899902-0.4700317-0.5799561
			c-0.1699829-0.0400391-0.3399658-0.1200562-0.5099487-0.1900024C0.1235962,71.2479248,0.0617676,71.2490845,0,71.2359009V71.5
			c0,0.3787842,0.0371094,0.7480469,0.0913086,1.1117554c0.3245239-0.1022339,0.6453247-0.21698,0.9640503-0.338623
			C1.175354,72.2230835,1.1853638,72.1531372,1.1653442,72.0430908z"/>
		<path d="M1.0553589,32.7330933c0.4099731-0.3399658,0.8800049-0.6300049,1.289978-0.9799805
			c0.0800171-0.0599976,0.0999756-0.0100098,0.1300049,0.0499878c0.1400146,0.2600098,0.2399902,0.539978,0.25,0.8400269
			c0.0300293,0.6599731-0.289978,1.1799927-0.7399902,1.6199951c-0.5,0.4899902-0.8099976,1.0700073-0.8900146,1.7600098
			c-0.0999756,0.8599854,0.1500244,1.5199585,1.1199951,1.7699585c0.5499878,0.1400146,1.0900269,0.1000366,1.6199951-0.0899658
			c0.6799927-0.2399902,1.25-0.7300415,1.9299927-0.9800415c0.3000488-0.1199951,0.5900269-0.2399902,0.8900146-0.3699951
			c0.1199951-0.0599976,0.2000122-0.0599976,0.2600098,0.0900269c0.0499878,0.1199951,0.1400146,0.2199707-0.039978,0.3200073
			c-0.2000122,0.1199951-0.3900146,0.2600098-0.5900269,0.3900146c-0.2700195,0.1899414-0.5299683,0.3899536-0.7399902,0.6399536
			c-0.25,0.2999878-0.2299805,0.5700073,0.0700073,0.8200073c0.2199707,0.1900024,0.4799805,0.3300171,0.7600098,0.4000244
			c1.0799561,0.2799683,2.0699463,0.0899658,2.9899902-0.5400391c0.1499634-0.1099854,0.289978-0.2399902,0.4799805-0.2999878
			s0.3800049-0.1199951,0.539978,0.0400391c0.1800537,0.1900024,0.3400269,0.4099731,0.2700195,0.6900024
			c-0.1199951,0.5299683-0.3099976,1.0199585-0.6199951,1.4699707c-0.1099854,0.1699829-0.2199707,0.3499756-0.2999878,0.539978
			c-0.3200073,0.6900024-0.1799927,1.2800293,0.4699707,1.6900024c0.5800171,0.3600464,1.1799927,0.7000122,1.75,1.0800171
			c0.4299927,0.2700195,0.8500366,0.1900024,1.2200317-0.1500244c0.2000122-0.1900024,0.3699951-0.4099731,0.5100098-0.6499634
			c0.2199707-0.3800049,0.1999512-0.6300049-0.0900269-0.960022c-0.1699829-0.1900024-0.3699951-0.3399658-0.5299683-0.5299683
			c-0.5100098-0.6199951-0.4900513-1.25,0.1399536-1.710022c0.1600342-0.1199951,0.3400269-0.1400146,0.5100098-0.0200195
			c0.3599854,0.25,0.7299805,0.5,0.8599854,0.9700317c0.0599976,0.2099609,0.1800537,0.3999634,0.3099976,0.5800171
			c0.3600464,0.5,0.8300171,0.75,1.460022,0.6099854c0.25-0.0499878,0.5-0.0800171,0.75,0.0100098
			c0.1300049,0.0499878,0.2800293,0.0700073,0.289978,0.2699585c0.0100098,0.1900024-0.039978,0.3200073-0.2199707,0.4100342
			c-0.4400024,0.2299805-0.9099731,0.3299561-1.3900146,0.4099731c-0.6599731,0.1000366-1.1099854,0.4400024-1.3599854,1.0599976
			c-0.0800171,0.1900024-0.0700073,0.3300171,0.0900269,0.4899902c0.3999634,0.3900146,0.8399658,0.7300415,1.3199463,1.0200195
			c0.2600098,0.1699829,0.4700317,0.1400146,0.7000122-0.0299683c0.4700317-0.3500366,0.9100342-0.7300415,1.2900391-1.1700439
			c0.1299438-0.1599731,0.1999512-0.1499634,0.3099976,0.0200195c0.25,0.4000244,0.5199585,0.7799683,0.7999878,1.1500244
			c0.1099854,0.1399536,0.1799927,0.1399536,0.3099976,0.0299683c0.2199707-0.1900024,0.4500122-0.3800049,0.5800171-0.6500244
			c0.0799561-0.1699829,0.1599731-0.1499634,0.289978-0.0299683c0.5599976,0.5499878,1.1199951,1.1099854,1.7000122,1.6400146
			c0.2399902,0.2199707,0.2799683,0.4500122,0.2699585,0.7399902c-0.0099487,0.1199951-0.0599976,0.1300049-0.1599731,0.1499634
			c-0.3400269,0.0500488-0.6199951-0.0499878-0.8699951-0.2999878c-0.2000122-0.2000122-0.3800049-0.4199829-0.6199951-0.5799561
			c-0.2600098-0.1800537-0.4800415-0.1400146-0.6199951,0.1499634c-0.3400269,0.7700195-0.2300415,1.6400146,0.6099854,2.0700073
			c0.710022,0.3599854,1.4099731,0.7399902,2.1199951,1.1099854c1.0100098,0.5200195,2.0200195,1.0300293,3.039978,1.5400391
			c0.2300415,0.1199951,0.6300049,0.0599976,0.7800293-0.0900269c0.1699829-0.1799927,0.210022-0.5499878,0.0700073-0.7999878
			c-0.0800171-0.1400146-0.1699829-0.289978-0.2700195-0.4199829c-0.3599854-0.4700317-0.6699829-0.9500122-0.9099731-1.4900513
			c-0.1199951-0.289978-0.1000366-0.5299683,0.1099854-0.7699585c0.0899658-0.1099854,0.1400146-0.1000366,0.2399902-0.0400391
			c0.2299805,0.1400146,0.3800049,0.3400269,0.5100098,0.5800171c0.1900024,0.3400269,0.3599854,0.6900024,0.6599731,0.9500122
			c0.5800171,0.5200195,0.6700439,1.1699829,0.5400391,1.8900146c-0.0700073,0.3699951-0.1799927,0.7299805-0.1100464,1.1300049
			c0.1300049,0.6699829,0.5900269,0.9699707,1.2000122,1.0999756c0.4700317,0.0999756,0.8400269-0.1099854,1.1400146-0.4699707
			c0.1199951-0.1400146,0.2000122-0.3200073,0.3099976-0.4800415c0.2200317-0.3499756,0.5300293-0.3599854,0.75,0
			c0.0900269,0.1600342,0.1699829,0.3400269,0.2299805,0.5200195c0.210022,0.5200195,0.3099976,1.0700073,0.4900513,1.5999756
			c0.1799927,0.5100098,0.3999634,0.6100464,0.8899536,0.4200439c0.5100098-0.2000122,0.9500122-0.1100464,1.3600464,0.2299805
			c0.3699951,0.2999878,0.6999512,0.6499634,1.0299683,0.9899902c0.4199829,0.4199829,0.8599854,0.8300171,1.3699951,1.1400146
			c0.4000244,0.2399902,0.8099976,0.3699951,1.2800293,0.3599854c0.9799805-0.0200195,1.9400024-0.1699829,2.9099731-0.3400269
			c0.289978-0.0499878,0.5599976-0.2399902,0.6300049-0.539978s-0.1599731-0.5200195-0.3800049-0.710022
			c-0.0599976-0.039978-0.1300049-0.0799561-0.2000122-0.1099854c-0.289978-0.1300049-0.5899658-0.2600098-0.8899536-0.3699951
			c-0.6800537-0.25-1.3600464-0.5-1.9700317-0.8999634c-0.1799927-0.1100464-0.1199951-0.2400513-0.1199951-0.3700562
			c0.0100098-0.1299438,0.1099854-0.1399536,0.210022-0.1599731c0.7999878-0.1300049,1.5999756-0.2600098,2.3899536-0.3900146
			c0.7600098-0.1399536,1.0500488,0.0499878,1.2400513,0.7999878c0.0099487,0.0300293,0.0099487,0.0600586,0.0199585,0.0900269
			c0.210022,0.8400269,0.75,1.3599854,1.5900269,1.5700073c0.2299805,0.0599976,0.4599609,0.1099854,0.6900024,0.1699829
			c0.7299805,0.2000122,1.3900146,0.5800171,2.039978,0.960022c0.5100098,0.289978,0.9400024,0.3200073,1.4000244-0.1099854
			c0.4099731-0.3800049,0.8899536-0.4200439,1.3800049-0.1500244c0.1599731,0.0900269,0.3200073,0.1799927,0.4899902,0.2399902
			c0.8200073,0.2700195,1.5599976-0.3800049,1.4199829-1.2399902c-0.0700073-0.4500122-0.3300171-0.7399902-0.7000122-0.960022
			c-0.5199585-0.3200073-1.0700073-0.5599976-1.5999756-0.8599854c-0.7299805-0.4099731-1.4400024-0.8399658-1.7800293-1.6900024
			c-0.1999512-0.4899902-0.6399536-0.75-1.1699829-0.8300171c-0.3699951-0.0599976-0.7299805-0.0299683-1.0999756-0.0299683
			c-0.5200195,0-1-0.0999756-1.3900146-0.4700317c-0.0700073-0.0599976-0.1600342-0.0899658-0.0900269-0.2099609
			c0.0500488-0.1099854,0.1000366-0.1500244,0.2300415-0.1199951c0.1099854,0.0299683,0.2399902,0.0299683,0.3599854-0.0100098
			c0.3499756-0.1099854,0.7000122-0.2299805,1.0299683-0.3900146c0.3700562-0.1799927,0.3700562-0.1900024,0.2800293-0.6099854
			c-0.0599976-0.2399902-0.1599731-0.3800049-0.4299927-0.4199829c-0.3699951-0.0400391-0.7299805-0.0200195-1.1000366-0.0300293
			c-0.1699829,0-0.2999878,0.0599976-0.3799438,0.2000122c-0.1800537,0.3300171-0.4900513,0.4699707-0.8000488,0.6400146
			c-0.0999756,0.0499878-0.1199951,0.039978-0.1599731-0.0800171c-0.1400146-0.539978,0.039978-0.9899902,0.3099976-1.4400024
			c0.2000122-0.3300171,0.4000244-0.6599731,0.5299683-1.0300293c0.1300049-0.4199829,0.0300293-0.8799438-0.2399902-1.1099854
			c-0.2799683-0.2299805-0.5700073-0.2199707-1.0299683,0.0499878c-0.0200195,0.0100098-0.0400391,0.0200195-0.0599976,0.0300293
			c-0.9700317,0.5800171-1.8300171,1.289978-2.6300049,2.0800171c-0.1500244,0.1499634-0.2300415,0.3299561-0.2200317,0.5499878
			c0.0200195,0.3999634,0,0.7999878,0.0700073,1.1900024c0.1000366,0.5899658-0.2099609,0.9500122-0.5999756,1.2999878
			c-0.0400391,0.0300293-0.0800171,0.0900269-0.1199951,0c-0.1000366-0.2700195-0.2800293-0.5200195-0.2200317-0.8300171
			c0.0800171-0.4400024,0.1600342-0.8899536,0.2000122-1.3299561c0.0800171-0.8900146,0.0499878-1.7600098-0.2700195-2.6000366
			c-0.0899658-0.2299805-0.1999512-0.4599609-0.2999878-0.6900024c0.1600342-0.0299683,0.2900391,0.0200195,0.4199829,0.0700073
			c0.4100342,0.1400146,0.8099976,0.3099976,1.2200317,0.4500122c0.289978,0.0999756,0.4199829,0.0299683,0.5700073-0.2299805
			c0.1300049-0.25,0.1599731-0.5100098,0.1099854-0.7800293c-0.0700073-0.4099731-0.1300049-0.8300171-0.210022-1.2399902
			c-0.0199585-0.1600342,0.0100098-0.2399902,0.1800537-0.2700195c0.2699585-0.039978,0.539978-0.0899658,0.8099976-0.1599731
			c0.4499512-0.1099854,0.5799561-0.3200073,0.4599609-0.7700195c-0.0700073-0.289978-0.1799927-0.5700073-0.2799683-0.8499756
			c-0.0700073-0.210022-0.1100464-0.4200439-0.0400391-0.6300049c0.0900269-0.2600098,0.2600098-0.460022,0.4100342-0.6900024
			c0.039978-0.0700073,0.0899658-0.0599976,0.1499634-0.0200195c0.2200317,0.1699829,0.4500122,0.3300171,0.6000366,0.5599976
			c0.2099609,0.3099976,0.4199829,0.6199951,0.6099854,0.9500122c0.0900269,0.1599731,0.1699829,0.1400146,0.289978,0.0599976
			c0.25-0.1599731,0.5-0.2999878,0.7400513-0.460022c0.1099854-0.0700073,0.1599731-0.0499878,0.1999512,0.0700073
			c0.0500488,0.1400146,0.1000366,0.2800293,0.1600342,0.4500122c0.2199707-0.2999878,0.2600098-0.6099854,0.1900024-0.9299927
			c-0.0499878-0.1900024-0.1000366-0.3699951-0.1500244-0.5599976c-0.1699829-0.7700195,0.0700073-1.2399902,0.789978-1.3500366
			c0.4200439-0.0599976,0.5900269-0.2599487,0.6700439-0.6299438c0.0299683-0.1500244,0.0700073-0.2900391,0.0899658-0.4300537
			c0.0599976-0.3499756,0.0500488-0.3499756-0.2799683-0.5099487c-0.4199829-0.2000122-0.8400269-0.4100342-1.2600098-0.6100464
			c-0.3099976-0.1599731-0.5100098-0.3999634-0.5700073-0.75c-0.0299683-0.1399536-0.1199951-0.3099976-0.0700073-0.4199829
			c0.0599976-0.1500244,0.2700195-0.0599976,0.4100342-0.0899658c0.3200073-0.0700073,0.6199951-0.0100098,0.8999634,0.1999512
			c0.8099976,0.6000366,1.6199951,1.1799927,2.4299927,1.7700195c0.75,0.5499878,1.4900513,1.0900269,2.4500122,1.2199707
			c0.6199951,0.0800171,1.0100098-0.039978,1.2900391-0.5c0.0799561-0.1299438,0.1399536-0.2699585,0.1099854-0.4299927
			c-0.1000366-0.4699707-0.3200073-0.8399658-0.7700195-1.0499878c-0.2299805-0.0899658-0.460022-0.1799927-0.6799927-0.2700195
			c-0.2299805-0.0999756-0.4700317-0.1999512-0.6500244-0.3899536c-0.2799683-0.2900391-0.2699585-0.5900269,0.0700073-0.8099976
			c0.6600342-0.4200439,0.9899902-1.0500488,1.1700439-1.7900391c0.1199951-0.5,0.1799927-1.0299683,0.4199829-1.4899902
			c0.2099609-0.3800049,0.1599731-0.7000122-0.0300293-1.0499878c-0.0299683-0.0599976-0.0700073-0.1199951-0.0899658-0.1900024
			c-0.0499878-0.1799927-0.1199951-0.1900024-0.2900391-0.0900269c-0.6599731,0.3900146-1.3599854,0.7000122-2.1099854,0.8700562
			c-0.5,0.1099854-0.9500122-0.25-0.9899902-0.7600098c-0.0100098-0.2300415,0-0.460022,0.039978-0.6900024
			c0.0599976-0.2700195,0.1300049-0.5499878,0.1100464-0.8300171c-0.0500488-0.7199707-0.5400391-1.2000122-1.25-1.2000122
			c-0.1400146,0-0.25,0.0400391-0.3600464,0.1300049c-0.4499512,0.3699951-0.7099609,0.8300171-0.75,1.4400024
			c-0.0499878,0.8099976-0.0499878,1.6199951-0.0199585,2.4299927c0.0099487,0.5499878-0.2000122,0.9400024-0.6199951,1.25
			c-0.0400391,0.0300293-0.0800171,0.0900269-0.1300049,0.0200195c-0.210022-0.289978-0.5200195-0.5100098-0.5100098-0.9400024
			c0.0100098-0.5800171,0.0599976-1.1699829,0.0999756-1.75c0.0400391-0.710022,0.0700073-1.4299927,0.1199951-2.1400146
			c0.0499878-0.7299805-0.0899658-1.4099731-0.4799805-2.0299683c-0.0999756-0.1600342-0.1799927-0.3400269-0.3400269-0.460022
			c-0.2099609-0.1699829-0.4199829-0.1199951-0.539978,0.1199951c-0.0599976,0.1199951-0.0800171,0.2399902-0.0999756,0.3699951
			c-0.0599976,0.5599976-0.3800049,0.7800293-0.9200439,0.6300049c-0.2799683-0.0700073-0.5299683-0.2000122-0.7599487-0.3599854
			c-0.1900024-0.1300049-0.3800049-0.2600098-0.5800171-0.3699951c-0.5100098-0.2999878-0.5599976-0.5300293-0.2300415-1.0200195
			c0.0600586-0.0800171,0.1200562-0.1699829,0.1700439-0.2600098c0.0499878-0.0799561,0.0799561-0.1699829,0.1099854-0.2600098
			c0.0300293-0.0699463,0.0200195-0.1399536-0.0800171-0.1399536c-0.2600098,0-0.4400024-0.1700439-0.6300049-0.3000488
			c-0.0599976-0.0499878-0.1099854-0.1299438-0.1900024-0.0999756c-0.4899902,0.1199951-0.8899536-0.1400146-1.3099976-0.3099976
			c-0.2399902-0.0900269-0.4099731-0.2600098-0.5199585-0.5c-0.1300049-0.2700195-0.3099976-0.5300293-0.4200439-0.8099976
			c-0.1699829-0.460022-0.5-0.7800293-0.8899536-1.0499878c-0.0300293-0.0200195-0.0900269-0.0800171-0.1100464-0.0400391
			c-0.0699463,0.210022-0.1399536,0.0200195-0.1799927-0.0099487c-0.5700073-0.4400024-1.2299805-0.6900024-1.9199829-0.8900146
			c-1.0499878-0.3099976-2.1500244-0.1400146-3.210022-0.3500366c-0.3699951-0.0799561-0.75-0.0599976-1.1300049-0.0999756
			c-0.3099976-0.0300293-0.2999878-0.0300293-0.3799438,0.2600098c-0.0500488,0.1799927-0.0400391,0.3800049-0.1700439,0.5200195
			c-0.2099609,0.2199707-0.6900024,0.2399902-0.9299927,0.0499878c-0.1199951-0.0900269-0.2299805-0.2000122-0.3800049-0.2600098
			c-1.7399902-0.7700195-3.4799805-1.5700073-5.25-2.2800293c-0.4500122-0.1799927-0.8599854-0.1199951-1.2699585,0.0900269
			c-0.4700317,0.2399902-0.5500488,0.7600098-0.1700439,1.1400146c0.1900024,0.2099609,0.4400024,0.3200073,0.710022,0.3899536
			c0.7600098,0.2000122,1.2299805,0.6700439,1.4099731,1.4400024c0.0200195,0.1100464,0.0500488,0.2200317,0.0800171,0.3300171
			c0.1400146,0.5499878,0.4199829,0.6799927,0.9299927,0.4500122c0.2700195-0.1300049,0.5400391-0.2700195,0.8200073-0.3699951
			c0.4199829-0.1600342,0.7299805-0.0800171,1.0200195,0.2700195c0.2199707,0.2599487,0.4199829,0.539978,0.6399536,0.8099976
			c0.5400391,0.6799927,1.210022,0.8899536,2.0300293,0.6299438c0.4299927-0.1299438,0.8599854-0.2599487,1.3099976-0.3099976
			c1.1500244-0.1499634,2.0700073,0.2300415,2.8099976,1.1000366c0.3699951,0.4500122,0.6500244,0.9500122,0.9299927,1.4500122
			c0.2000122,0.3499756,0.1900024,0.4799805-0.0800171,0.7799683c-0.4099731,0.4500122-0.9399414,0.7000122-1.5099487,0.8599854
			c-0.3500366,0.0900269-0.6799927,0.1000366-1.0300293,0c-0.5200195-0.1399536-1.0499878-0.1999512-1.5899658-0.1499634
			c-0.6600342,0.0700073-1.1900024,0.4599609-1.4100342,1.0899658c-0.039978,0.1000366-0.039978,0.1900024-0.0100098,0.2900391
			c0.25,0.7099609,0.8800049,1.1799927,1.6199951,1.2099609c1.0400391,0.0300293,2.0500488,0.210022,3.0300293,0.5400391
			c0.4400024,0.1499634,0.8699951,0.3299561,1.3099976,0.4699707c0.3300171,0.1099854,0.6099854-0.0199585,0.7600098-0.3399658
			c0.1199951-0.2600098,0.1799927-0.5300293,0.1199951-0.8200073c-0.1000366-0.4700317,0.0100098-0.8800049,0.2999878-1.2999878
			c0.1799927,0.3099976,0.3499756,0.5999756,0.5100098,0.8899536c0.2299805,0.4000244,0.460022,0.7800293,0.5200195,1.2600098
			c0.0899658,0.6199951-0.1900024,0.9799805-0.8200073,0.960022c-0.6300049-0.0200195-1.2600098-0.1400146-1.8800049-0.2200317
			c-0.6300049-0.0799561-1.2399902-0.1699829-1.8699951,0.0100098c-0.3699951,0.1099854-0.3600464,0.0800171-0.2600098,0.4700317
			c0.1699829,0.6300049,0.5200195,1.0999756,1.0999756,1.3999634c0.1600342,0.0900269,0.3099976,0.210022,0.5,0.3300171
			c-0.0999756,0.0299683-0.1599731,0.0499878-0.2299805,0.0700073c-0.3900146,0.0899658-0.789978,0.1699829-1.1699829,0.2799683
			c-0.3600464,0.1000366-0.4500122,0.2700195-0.3600464,0.6400146c0.0599976,0.2999878,0.1900024,0.5700073,0.3300171,0.8500366
			c0.3099976,0.6299438,0.5700073,1.2799683,0.9400024,1.8799438c0.210022,0.3300171,0.5,0.4800415,0.9000244,0.4000244
			c0.1699829-0.039978,0.3399658-0.0999756,0.5-0.1699829c0.3899536-0.1600342,0.7399902-0.3900146,1.0700073-0.6500244
			c0.3699951-0.2999878,0.789978-0.4799805,1.2699585-0.3399658c0.710022,0.1900024,0.9299927,0.789978,1.1799927,1.3800049
			c0.2200317,0.5099487-0.039978,0.8299561-0.3299561,1.1599731c-0.0100098,0.0100098-0.0200195,0.0299683-0.0300293,0.039978
			c-0.0599976,0.1100464-0.1099854,0.0900269-0.1699829-0.0100098c-0.210022-0.3599854-0.4400024-0.6999512-0.6000366-1.0799561
			c-0.0599976-0.1400146-0.1299438-0.2800293-0.2299805-0.4000244c-0.0800171-0.0999756-0.1599731-0.1300049-0.2999878-0.0899658
			c-0.5800171,0.1699829-0.8400269,0.8099976-0.4799805,1.3199463c0.6399536,0.9200439,0.7199707,1.9400024,0.6099854,3.0100098
			c-0.0400391,0.3500366-0.1199951,0.710022-0.1500244,1.0599976c-0.039978,0.5400391,0,1.0599976,0.2900391,1.5500488
			c0.25,0.4199829,0.1699829,0.7199707-0.2200317,0.9699707c-0.3099976,0.2000122-0.5299683,0.4500122-0.6599731,0.789978
			c-0.1000366,0.2700195-0.2900391,0.4800415-0.6000366,0.5c-0.2000122,0.0100098-0.3899536-0.0699463-0.5700073-0.1599731
			c-0.2699585-0.1300049-0.539978-0.2800293-0.8199463-0.4000244c-0.7900391-0.3399658-1.5500488-0.289978-2.25,0.2400513
			c-0.2400513,0.1799927-0.4500122,0.3899536-0.6400146,0.6099854c-0.3200073,0.3699951-0.6000366,0.3699951-0.8900146-0.0100098
			c-0.4299927-0.5599976-0.9500122-1.039978-1.4500122-1.5300293c-0.1099854-0.0999756-0.1699829-0.1999512-0.2000122-0.3499756
			c-0.1399536-0.7299805-0.5-1.0499878-1.25-1.1599731c-0.3399658-0.0500488-0.6900024-0.0500488-1.039978-0.1300049
			c-1.1799927-0.25-1.7799683-0.960022-1.7799683-2.1600342c0-0.3200073-0.0500488-0.6199951-0.1600342-0.9199829
			c-0.2299805-0.6099854-0.710022-0.9899902-1.25-1.289978c-1.1699829-0.6400146-2.2600098-1.3800049-3.2199707-2.3000488
			c-0.210022-0.1900024-0.4400024-0.3599854-0.6600342-0.5299683c-0.9199829-0.7200317-1.9199829-0.8500366-2.9799805-0.3500366
			c-0.2600098,0.1200562-0.5200195,0.2400513-0.7999878,0.2700195c-0.210022,0.0300293-0.4400024,0.1099854-0.6100464-0.0800171
			c-0.5799561-0.6699829-1.0999756-1.3599854-1.0299683-2.3399658c0.039978-0.5-0.1699829-0.7399902-0.6500244-0.8099976
			c-0.7699585-0.1199951-1.5-0.3500366-2.2299805-0.6000366c-0.7700195-0.2699585-1.5599976-0.3699951-2.3300171,0.0100098
			c-0.1099854,0.0499878-0.1799927-0.0199585-0.2399902-0.0799561c-0.289978-0.25-0.5899658-0.4800415-0.9199829-0.6800537
			c-0.1500244-0.1099854-0.2900391-0.2199707-0.4400024-0.3299561c-0.6199951-0.4700317-1.0499878-1.0500488-1.0800171-1.8699951
			c-0.0100098-0.1800537-0.0599976-0.3699951-0.1499634-0.5400391c-0.4700317-1.0100098-1.5400391-1.4599609-2.6000366-1.0999756
			C0.9362183,29.5469971,0.4673462,29.6165161,0,29.5980835v5.9505615c0.2440186-0.3470459,0.3274536-0.7554321,0.3453369-1.1755371
			C0.3653564,33.7330933,0.5153198,33.1630859,1.0553589,32.7330933z M38.9153442,29.2731323
			c0.1300049-0.1300049,0.1900024,0.0299683,0.25,0.0999756c0.4699707,0.4899902,0.9799805,0.9500122,1.4000244,1.4799805
			c0.1499634,0.2000122,0.2799683,0.4000244,0.3999634,0.6199951c0.0599976,0.1100464,0.0900269,0.2400513,0.1099854,0.3699951
			c-0.0299683,0.2200317-0.0799561,0.4300537-0.1599731,0.6400146c-0.1199951,0.3099976-0.2299805,0.6099854-0.3499756,0.9200439
			c-0.0300293,0.0699463-0.0300293,0.1799927-0.1500244,0.1699829c-0.0999756-0.0100098-0.1400146-0.0700073-0.1799927-0.1600342
			c-0.3300171-0.7599487-0.6699829-1.5199585-0.9899902-2.2799683c-0.210022-0.4799805-0.3800049-0.9700317-0.5800171-1.4500122
			C38.5553589,29.4130859,38.8053589,29.3831177,38.9153442,29.2731323z"/>
		<path d="M60.0016937,20.4230824v14.7200298c-0.9200439-0.6199951-2.1900024-1.460022-2.5400391-1.710022
			c-4.0800171-2.9400005-8.1499634-5.880003-12.3499756-8.6400127c-1.7800293-1.1699829-3.6199951-2.2199707-5.5499878-3.1199951
			c-0.9400024-0.4400024-1.7800293-1.0700073-2.6800537-1.5800171c-0.8499756-0.4899902-1.6999512-0.9799805-2.5499878-1.4599609
			c-0.0499878-0.0400391-5.6099854-1.8699951-7.9599609-2.9800415c-0.7900391-0.1499634-1.3300171-0.7199707-1.9400024-1.1599731
			c-1.9299927-1.3599854-4.0599976-2.3300171-6.1600342-3.3699951c-1.6199951-0.789978-3.2399893-1.5700073-4.9099722-2.2600098
			c-0.2700195-0.1099854-0.5400391-0.2000122-0.8099976-0.2999878c-0.9000244-0.2600098-1.8099976-0.4899902-2.7200317-0.7200322
			c-1.0100098-0.25-2.0199585-0.5099487-3.0599976-0.6099854C5.8916483,7.1431136,5.0016947,7.1030746,4.11168,7.1530623
			c-1.4000247,0.0700073-2.75,0.3500366-4.1099854,0.6500244V2.0231185C0.6516579,2.0731063,1.3916482,2.1830916,2.10167,2.3030868
			c1.2000122,0.2700195,2.4099734,0.5300293,3.6199954,0.7600098c0.8599854,0.1599731,1.7399902,0.2700195,2.6300049,0.2999878
			c1.3599854,0.039978,2.7199707,0.1099854,4.0700073,0.3099976c0.0599976,0.0100098,0.1199951,0.0300293,0.1799927,0.0499878
			c0.75,0.0900269,1.4799805,0.2600098,2.2199707,0.4400024c1.9900503,0.4800415,3.8000479,1.3800049,5.5300283,2.460022
			s3.4799805,2.1500249,5.1900024,3.2600102c0.3300171,0.2099609,0.6799927,0.3399658,1.0700073,0.4199829
			c0.3299561,0.0700073,0.6400146,0.2800293,0.8599854,0.5200195c0.1300049,0.1300049,0.2600098,0.2199707,0.4099731,0.289978
			c1.710022,0.8599854,3.3500366,1.8300171,4.9100342,2.9500122c0.6699829,0.4799805,1.4199829,0.8200073,2.1099854,1.2799683
			c2.0599976,1.3800049,4.1600342,2.7200317,6.2600098,4.0300293c0.9099731,0.5700073,1.9000244,0.9899902,2.8599854,1.4699707
			c2.3699951,1.1900024,4.5700073,2.6400146,6.710022,4.2000122c0.7999878,0.5800171,1.7199707,0.9000244,2.6699829,1.0900269
			c0.4700317,0.0899658,0.9000244-0.0800171,1.2399902-0.4100342c0.5400391-0.5199585,0.8099976-1.1799927,0.8500366-1.9199829
			c0.0299683-0.4899902-0.1700439-0.8800049-0.5200195-1.2000122c-0.460022-0.4199829-0.9199829-0.8399658-1.3699951-1.2600098
			c-1-0.9199829-1.9799805-1.8699951-3.0200195-2.75c-1.1699829-0.9899902-2.3900146-1.8799438-3.7600098-2.5699463
			c-0.6999512-0.3500366-1.2999878-0.8300171-1.8599854-1.3600464c-1.6199951-1.539978-3.2999878-2.9899902-4.9299927-4.5100098
			c-0.7700195-0.7099609-1.6400146-1.2799683-2.5900269-1.7199707c-1.2799683-0.5999761-2.4199829-1.4199834-3.539978-2.2800298
			c-2.2999878-1.7699585-4.710022-3.4099731-7.0700073-5.0999756c-0.4299927-0.3099975-0.8499756-0.6300048-1.2799683-0.9500121
			V0.0530868c0.0899658,0,0.1799927-0.0100098,0.2799683-0.0100098c2.2300415,0,4.4700317,0.0100098,6.7000122,0
			c0.2200317,0,0.3900146,0.0499878,0.5700073,0.1799927c1.9199829,1.3400269,3.8200073,2.7000122,5.7199707,4.0700073
			c0.9500122,0.6799927,1.9200439,1.3400269,2.9300537,1.9299927c1.6399536,0.960022,3.0599976,2.1700444,4.3999634,3.5100102
			c0.3500366,0.3500366,0.7200317,0.6900024,1.0499878,1.0599976c1.1199951,1.2600098,2.4700317,2.2300415,3.9000244,3.1000366
			c1.1699829,0.7099609,2.4199829,1.2599487,3.6699829,1.8200073c0.7800293,0.3499756,1.4299927,0.8399658,2,1.4699707
			c0.6799927,0.7399902,1.4000244,1.4699707,2.1000366,2.2000122C58.9316864,19.4330921,59.531662,19.9730701,60.0016937,20.4230824
			z"/>
		<path d="M60.0016937,73.8430634v5.1600342h-3.710022l-0.6600342-0.6900024c-1.4499512-1-2.9199829-1.960022-4.3699951-2.9400024
			c-0.5199585-0.3599854-1.0499878-0.6900024-1.5799561-1.0200195c-0.5800171-0.3499756-0.9700317-0.8800049-1.2900391-1.4599609
			c-0.4099731-0.7300415-0.6799927-1.4900513-0.6599731-2.3300171c0.0200195-0.7999878,0.6300049-1.4400024,1.4199829-1.539978
			c1.7600098-0.210022,3.3900146,0.2299805,4.9700317,0.9499512c1.6499634,0.7700195,3.2099609,1.7000122,4.6300049,2.8600464
			c0.0899658,0.0799561,0.5699463,0.4199829,0.9499512,0.7399902L60.0016937,73.8430634z"/>
		<path d="M49.4476318,3.6159668c1.5272827,1.5673828,3.1883545,3.2232056,4.7671509,4.7410889
			c1.3776245,1.3961182,3.56604,2.467041,5.7852173,3.4725952V7.7044678
			c-0.5281982-0.3179321-1.1186523-0.6547852-1.1578979-0.6912842c-0.3139648-0.2915039-0.633728-0.5770264-0.9402466-0.8762207
			c-1.869751-1.8253174-3.5377197-3.8337402-5.2443848-5.8067627C52.6138916,0.2798462,52.506958,0.1375122,52.3922729,0h-6.5236206
			C47.0117188,1.0580444,48.4102173,2.5512695,49.4476318,3.6159668z"/>
		<path d="M57.116394,40.0646973c-0.4110107-0.3683472-0.8609009-0.7646484-1.1714478-1.2315063
			c-0.6098633-0.916748-1.539917-1.3237915-2.6329346-1.3292847c-0.1112061-0.0005493-0.1861572-0.0281982-0.27771-0.0914917
			c-0.2838135-0.1962891-0.4785156-0.4921265-0.7299194-0.7374268c0.2282715-0.1032104,0.4051514-0.1743164,0.6073608-0.2637939
			c0.3005371-0.1329956,0.6490479-0.1707764,0.9545898-0.0440674c0.3240356,0.1343384,0.7565918,0.2911377,1.0663452,0.4535522
			c0.4058228,0.2127075,0.6207886,0.0775146,0.9835815-0.105896c0.0476074-0.0240479,0.164978-0.0731201,0.1278076-0.1434326
			c-0.1303101-0.2462769-0.2217407-0.5007935-0.4956665-0.6578369c-0.9144897-0.524231-1.8779297-1.0391846-2.8249512-1.5038452
			c-0.9297485-0.4562988-1.4387817-0.2506714-1.7607422,0.7359619c-0.2401123,0.7357788-0.3633423,1.4812012-0.0863647,2.2382202
			c0.3358765,0.9180298,1.0539551,1.4145508,1.9291992,1.7266235c0.4158936,0.1483154,0.9414062,0.2357788,1.3482666,0.4112549
			c0.1051636,0.0452881,0.1361694,0.0795288,0.0308838,0.1644897c-0.4942627,0.3991699-1.1052246,0.7696533-1.7081299,1.0112915
			c-1.1954346,0.479187-2.4230957,0.6380005-3.6976318,0.5914307c-0.7845459-0.0286865-1.5709839-0.0053101-2.3648682-0.0053101
			c0.1887817,0.361145,0.4100342,0.6990356,0.7929688,0.9241333c0.631897,0.3713989,1.293457,0.694397,1.8837891,1.1352539
			c0.9190674,0.6864014,1.8410034,1.3689575,2.7582397,2.0578003c0.1898804,0.1425781,0.3964233,0.2131348,0.6293335,0.246582
			c0.1265259,0.0181885,0.2561035,0.0141602,0.3275757-0.0858154c0.0808105-0.1129761-0.0220947-0.2446899-0.0690308-0.3123779
			c-0.3313599-0.477417-0.7235107-0.8980103-1.020813-1.3985596c-0.1469727-0.2474365-0.0793457-0.5024414-0.0408325-0.7578735
			c0.008606-0.0571899,0.0460815-0.069397,0.0965576-0.0744019c0.4277954-0.0428467,0.8306885-0.0269775,1.0765381,0.4116821
			c0.052002,0.0927734,0.1224365,0.1756592,0.1884766,0.2598877c0.2145996,0.2736816,0.4672852,0.5029907,0.7720947,0.6751709
			c0.1247559,0.0704346,0.2243652,0.072876,0.3227539-0.0404053c0.2714844-0.3127441,0.4870605-0.644043,0.4486694-1.0877686
			c-0.0397339-0.4591675,0.0965576-0.8918457,0.2332764-1.3207397c0.0679932-0.2133789,0.2246704-0.3450317,0.4534912-0.3674316
			c0.6711426-0.0657959,1.2683716,0.0980835,1.7789307,0.5584106c0.2607422,0.2350464,0.5112305,0.4889526,0.8225098,0.6583252
			c0.6123657,0.3330688,0.9274902,0.7931519,0.8998413,1.4744263c-0.0291748,0.71875-0.0582886,1.4799194-0.0841064,2.1987305
			c-0.0348511,0.9727783,0.0177002,1.944397,0.0270386,2.916687c0.0031128,0.3214722,0.2350464,0.800354,0.4221802,1.112793
			C59.2728882,50.6254272,59.6404419,51.0571899,60,51.4205933v-8.1922607
			C59.1883545,42.3008423,57.692627,40.5811157,57.116394,40.0646973z"/>
		<path d="M7.8753662,24.4730835c0.7299805,0.3200073,1.4499512,0.6600342,2.1999512,0.9500122
			c0.2400513,0.1099854,0.4800415,0.2200317,0.7300415,0.3300171c1.2600098,0.539978,2.4899902,1.1500244,3.8299561,1.4799805
			c0.6300049,0.1600342,1.25,0.3500366,1.9100342,0.3400269c0.539978-0.0100098,0.9299927-0.3400269,1.0299683-0.8599854
			c0.0900269-0.4300537-0.0699463-0.8099976-0.2799683-1.1700439c-0.6199951-1.0599976-1.460022-1.9400024-2.2800293-2.8399658
			c-1.0999756-1.210022-2.2099609-2.4200439-3.3200073-3.6199951c-0.4799805-0.5100098-0.9499512-1.0400391-1.4699707-1.5100098
			c-0.039978-0.0499878-0.0700073-0.1000366-0.1099854-0.1400146c-1.5599976-1.6400146-3.3599854-2.9699707-5.3400269-4.0700073
			C3.2798462,12.5281982,1.7150879,11.9781494,0,11.9846191v8.8510742c0.4342651,0.1707764,0.864563,0.3518677,1.2853394,0.5574341
			C3.4553223,22.4730835,5.6553345,23.493103,7.8753662,24.4730835z"/>
		<path d="M12.8916655,0.0031063h4.1400003c0.5499992,0.03,1.0699997,0.22,1.6099987,0.33
			c0.2400017,0.05,0.4900017,0.11,0.7300014,0.17c0.5100002,0.13,0.9399986,0.63,0.9599991,1.08
			c0,0.2299999-0.1100006,0.3399999-0.3099995,0.38c-0.1700001,0.04-0.3400002,0.05-0.5200005,0.03
			c-0.7399998-0.08-1.4799995-0.13-2.2099991-0.2c-0.75-0.0699999-1.4900007-0.15-2.2300005-0.22
			c-0.6300001-0.0599999-1.2600002-0.13-1.8900003-0.1899999c-0.3800001-0.04-0.71-0.23-1.0600004-0.37
			c-0.7399998-0.3-3.2099991-0.96-3.2099991-1.01H12.8916655z"/>
		<path d="M50.43927,58.3141479c-0.6582642-0.0074463-1.020813,0.1349487-1.3001099,0.4349365
			c-0.1009521,0.1083374-0.1375732,0.1820068-0.0080566,0.3153687c0.6552124,0.6747437,1.3101807,1.3503418,1.8648071,2.1153564
			c0.1529541,0.2109985,0.348877,0.3865967,0.6152344,0.4550171c0.3948364,0.1013184,0.7179565-0.0698853,1.0217896-0.2840576
			c0.5708618-0.4024048,0.6864014-0.9963989,0.307373-1.5787964C52.3146362,58.8105469,51.3872681,58.3931885,50.43927,58.3141479z"
			/>
		<path d="M56.7946167,43.5537109c-0.3963013,0.0132446-0.5691528,0.3167114-0.6942749,0.6419678
			c-0.2439575,0.6339111-0.40448,1.2943726-0.6092529,1.9407349c-0.210144,0.663147-0.0723877,1.2976074,0.1218872,1.9259033
			c0.1087036,0.3514404,0.3850708,0.5199585,0.7314453,0.5141602c0.3815918-0.0063477,0.633728-0.1973267,0.6164551-0.5283203
			c-0.0353394-0.6774902,0.1710205-1.30896,0.3165283-1.9535522c0.1107178-0.4902344,0.3381348-0.9291992,0.5759277-1.3657227
			c0.1074219-0.1972656,0.2000122-0.4151001,0.0411377-0.6244507C57.6207886,43.7437744,57.249939,43.5385132,56.7946167,43.5537109
			z"/>
		<path d="M28.119812,27.3433838c0.4300537-0.0620728,0.8585815-0.124939,1.2111206-0.0507202
			c0.6370239,0.0404053,1.1178589-0.210144,1.6166382-0.3930054c0.1185913-0.0435181,0.0748291-0.1037598,0.03302-0.1742554
			c-0.1012573-0.1706543-0.1951904-0.3457642-0.2996216-0.5144043c-0.3433228-0.5545044-0.895813-0.7772217-1.5358887-0.6345825
			c-0.4779663,0.1065063-0.9075928,0.3815308-1.3878174,0.4456787c-0.418396,0.0558472-0.6121216,0.3279419-0.8247681,0.6157837
			c-0.0358276,0.0485229-0.0532227,0.0848999,0.0004272,0.1360474C27.267395,27.0929565,27.6008301,27.4182739,28.119812,27.3433838
			z"/>
	</g>
</g>
</svg>
