<?xml version="1.0" encoding="utf-8"?>
<!-- Generator: Adobe Illustrator 27.2.0, SVG Export Plug-In . SVG Version: 6.00 Build 0)  -->
<svg version="1.1" xmlns="http://www.w3.org/2000/svg" xmlns:xlink="http://www.w3.org/1999/xlink" x="0px" y="0px"
	 viewBox="0 0 60 79" enable-background="new 0 0 60 79" xml:space="preserve">
<g id="print4">
	<g id="color1">
		<path d="M8.3184681,36.0100975c0.0543823,0.0289307,0.1298828,0.0406494,0.1408691,0.1470337
			C7.5533314,36.3677025,6.64464,36.5788231,5.6889515,36.80093c0.1625977,0.0924072,0.2805176,0.1638184,0.4023438,0.2280273
			c2.4561157,1.2943726,4.9127197,2.5877686,7.3690796,3.8817139c1.5042725,0.7924805,3.0079346,1.5861816,4.5124512,2.3781738
			c2.6166992,1.3773804,5.2341919,2.7531738,7.850708,4.1308594c1.3735962,0.7232666,2.7454224,1.4499512,4.1188354,2.173645
			c2.5070782,1.3210449,5.0147686,2.6408691,7.5220318,3.9614868c1.4898682,0.784729,2.979248,1.5701904,4.4690552,2.3549805
			c2.4708252,1.3016968,4.9417114,2.6032715,7.4127808,3.90448c1.5770874,0.8304443,3.1546631,1.6600952,4.7318726,2.4904785
			c0.043335,0.0228271,0.1015015,0.039856,0.1229858,0.0769043c0.0374146,0.0643921-0.0371704,0.0425415-0.0638428,0.0579834
			c-0.0617676,0.0559692-0.1347046,0.0439453-0.2073364,0.0340576c-0.2102051,0.0217896-0.4204102,0.0437012-0.6306152,0.0655518
			c-0.0617676,0.0556641-0.1347656,0.0431519-0.2072144,0.0341187c-0.194458,0.0204468-0.388855,0.0409546-0.583313,0.0614014
			c-0.0617065,0.0565796-0.1344604,0.0458984-0.2073975,0.0339966c-0.0626221,0.0046387-0.1253052,0.0093384-0.1879272,0.0139771
			c-0.0772095,0.0639038-0.166748,0.0454712-0.2546387,0.0380859c-0.2629395,0.0188599-0.5258179,0.038147-0.8295898,0.1064453
			c0.2526855,0.1368408,0.4610596,0.25,0.6697388,0.3626099c2.298645,1.2404137,4.597229,2.4810143,6.8961182,3.7210045
			c0.4682617,0.2525635,0.9365845,0.5050049,1.4049072,0.7575073V67.418541
			c-1.3399048-0.7233887-2.6798096-1.4468384-4.0198975-2.1699829c-1.3007202-0.7019043-2.6021729-1.4022789-3.902832-2.1042442
			c-0.057373-0.0310059-0.1171265-0.0637207-0.1625977-0.1088867c-0.0661621-0.0657349-0.0110474-0.0968628,0.0494995-0.1184082
			c0.105835-0.067749,0.2238159-0.036438,0.3372803-0.0415039c0.1507568-0.0180054,0.3016357-0.0360107,0.4525146-0.0540161
			c0.1053467-0.0664673,0.2202759-0.045105,0.3336792-0.0366211c0.1680298-0.0211182,0.3361206-0.0421143,0.5042725-0.0631104
			c0.0889893-0.0631104,0.187561-0.0452271,0.2852783-0.0339966c0.0366211-0.0046387,0.0733643-0.0090942,0.1100464-0.0136108
			c0.088623-0.0647583,0.1873169-0.0461426,0.2850342-0.034668c0.2224121-0.0215454,0.446167-0.0354614,0.6712646-0.0804443
			c-0.0305176-0.0828247-0.0844116-0.0914307-0.1256104-0.1131592c-2.6004028-1.3720703-5.201355-2.743103-7.8023071-4.1141357
			c-1.4893799-0.7851562-2.9785156-1.5706787-4.4682617-2.3551636c-2.5506592-1.3432617-5.1018677-2.6854248-7.6525269-4.0288086
			c-1.4387817-0.7578125-2.8764038-1.5177002-4.3151836-2.2755737c-2.7902832-1.4698486-5.5811157-2.9386597-8.371521-4.4083862
			c-1.4823608-0.7807617-2.9639893-1.5630493-4.4463501-2.34375c-2.5143433-1.3241577-5.0290527-2.647522-7.543457-3.9714355
			c-1.2208862-0.6428223-2.4416504-1.2858887-3.6618042-1.9301147c-0.0591431-0.03125-0.1348877-0.0487671-0.173645-0.1503296
			c0.9220581-0.2140503,1.8268433-0.4240723,2.7330933-0.6344604c-0.0248413-0.0866699-0.0807495-0.0931396-0.1217041-0.1149292
			c-1.9364624-1.0289917-3.8735962-2.0565796-5.8104858-3.0847778c-1.0614014-0.5634766-2.1225586-1.1275024-3.1837769-1.6913452
			v0.2481079c1.6482544,0.8762817,3.2964478,1.7525024,4.9448853,2.628418
			C6.0691395,34.8166161,7.1944447,35.4121971,8.3184681,36.0100975z"/>
		<path d="M16.7577381,36.9528465c2.1765747,1.1369019,4.3530884,2.2739868,6.5297852,3.4108276
			c3.7417603,1.9542847,7.4835205,3.9085693,11.225462,5.8625488c1.6598511,0.8667603,3.3202515,1.7325439,4.9797974,2.5999146
			c0.06073,0.0316772,0.1385498,0.0455933,0.1759644,0.1444702c-1.0571289,0.1707153-2.104126,0.3397827-3.1616821,0.5105591
			c0.0491333,0.0848389,0.1175537,0.098999,0.1738281,0.128418c2.8311157,1.4803467,5.6628418,2.9596558,8.4943848,4.4390869
			c2.1546021,1.1257935,4.3088989,2.2521973,6.4638062,3.3773804c2.7868042,1.4550171,5.5739136,2.9096069,8.3609009,4.3641968
			V52.623745c-0.1078491-0.0577393-0.2166138-0.1137085-0.3244019-0.1715088
			c-2.2442627-1.203186-4.4909058-2.4019775-6.7360229-3.6035767c-0.0689087-0.0368652-0.1485596-0.0617676-0.1974487-0.1409302
			c0.0796509-0.0162354,0.1532593-0.0263062,0.223938-0.0465088c0.2360229-0.0674438,0.4358521-0.0111084,0.6494141,0.1139526
			c0.6306763,0.3693848,1.276062,0.713623,1.9158325,1.0673828c1.4768677,0.8165894,2.9712524,1.5999756,4.468689,2.3775024
			v-1.0195312c-1.6790161-0.9050903-3.3551636-1.8154297-5.0315552-2.7252808
			c-0.0422974-0.0229492-0.1203003-0.0264893-0.1012573-0.1091309c0.1958008-0.0332642,0.3904419-0.062439,0.583313-0.1003418
			c0.1434937-0.0281982,0.2657471-0.0036011,0.3977661,0.0687256c1.2680054,0.694397,2.5368042,1.3874512,3.8119507,2.0686035
			c0.112793,0.0602417,0.2268677,0.118103,0.3397827,0.1781616v-0.7312622
			c-1.0438232-0.5518799-2.0883179-1.102356-3.1317139-1.6550293c-0.0544434-0.0288696-0.1294556-0.0390015-0.1461182-0.1175537
			c0.0584717-0.0452271,0.1483154,0.0031128,0.2064209-0.0783691c-0.0703735-0.0721436-0.1655884-0.1000977-0.250061-0.1421509
			c-2.7209473-1.3535156-5.4771118-2.633728-8.215332-3.951355c-2.8493652-1.3712158-5.6895752-2.7612915-8.5230713-4.1651001
			c-2.9145508-1.4439697-5.817688-2.9107056-8.7149639-4.3891602c-2.5462036-1.2992554-5.0861816-2.6104736-7.6199341-3.9337158
			c-3.4075317-1.7796021-6.8057861-3.5767212-10.1929932-5.3947144c-2.2798462-1.2236938-4.5634766-2.4402466-6.8452148-3.6604614
			c-0.1362305-0.072876-0.2703247-0.1497192-0.4162598-0.2307739c0.116333-0.1051025,0.2510376-0.0576172,0.3636475-0.0964966
			c0.1503906-0.052002,0.2802734-0.0140991,0.4188232,0.0639648c1.0592651,0.5966797,2.121521,1.1880493,3.1853027,1.7765503
			c1.8690186,1.0339355,3.7677002,2.012146,5.6641235,2.9941406c3.0999756,1.6051636,6.2023315,3.2058716,9.3067627,4.8024292
			c2.2132568,1.1382446,4.4290771,2.2716064,6.6483154,3.3980713c3.3839092,1.7175903,6.768858,3.4331665,10.1586895,5.1390381
			c3.9692993,1.9975586,7.9783325,3.9135742,11.9891968,5.8257446c1.2232056,0.5831909,2.4453735,1.1685181,3.6681519,1.7526245
			c0.0887451,0.0423584,0.1832275,0.1166992,0.2747192,0.0944824c0.1654053-0.0401001,0.284668,0.0374756,0.4135132,0.1051025
			c0.2327881,0.1221313,0.4650269,0.2451782,0.6978149,0.3673096c0.3533325,0.1853027,0.7069702,0.3701782,1.0601807,0.5557251
			v-0.6035156c-0.1782837-0.0945435-0.3577271-0.1868896-0.5360107-0.2814331
			c-0.1730957-0.0918579-0.3439331-0.1878052-0.519104-0.2836304c0.0633545-0.0652466,0.1624756-0.019043,0.208313-0.1098022
			c-0.164978-0.1208496-0.3582153-0.1885986-0.5404663-0.2764893c-2.6709595-1.2871094-5.3449097-2.5679321-8.0123901-3.8622437
			c-2.8005371-1.3588867-5.5985107-2.7230835-8.3909302-4.0985718c-3.9052734-1.923584-7.7993774-3.869812-11.6791973-5.8444214
			c-2.3864746-1.2145386-4.7685547-2.4376831-7.1442871-3.6731567c-2.7183228-1.4136353-5.4283447-2.8428345-8.1303711-4.2873535
			c-2.2819214-1.2199097-4.555542-2.4552002-6.824585-3.6987915c-0.0532227-0.0291748-0.1274414-0.0387573-0.1439209-0.1172485
			c0.1239014-0.0827637,0.2720947-0.0539551,0.4055786-0.0924072c0.2542725-0.0731812,0.4785156-0.0239258,0.7189331,0.1110229
			c2.4783325,1.3915405,4.9801025,2.7402954,7.5063477,4.0430298c2.8982544,1.4945679,5.7963257,2.989624,8.7011108,4.4714966
			c2.9632568,1.5117188,5.9312134,3.0144043,8.9031963,4.5088501c4.0726318,2.0479736,8.1428223,4.1008301,12.2368164,6.1061401
			c3.1715698,1.5535889,6.3526611,3.0874634,9.5360107,4.6168213c1.206665,0.5796509,2.4157715,1.1542969,3.6184692,1.7421875
			c0.0279541,0.0136719,0.0579224,0.0206909,0.0864868,0.0325317v-0.7542114
			c-0.1525879-0.0733643-0.3053589-0.1464233-0.4578857-0.2200928c-2.4332275-1.1750488-4.867981-2.3469238-7.298645-3.5272217
			c-2.6375732-1.2808228-5.2734985-2.5651245-7.9060059-3.8563843c-2.4998169-1.2261963-4.9962769-2.4594116-7.4906006-3.6967163
			c-3.3406372-1.6571045-6.6704082-3.3358154-9.9942608-5.0263062c-3.2581177-1.6569824-6.5095215-3.3270874-9.7456665-5.0265503
			c-2.2035522-1.1571655-4.4019165-2.3240967-6.6022949-3.4873047c-0.1332397-0.0703735-0.2636719-0.1460571-0.4030762-0.2235718
			c0.1184082-0.0971069,0.2564697-0.0512695,0.3637695-0.1072388c-0.027832-0.0814209-0.0909424-0.0897217-0.1390991-0.1134033
			c-0.9213867-0.4529419-1.8396606-0.9125366-2.7663574-1.3543091c-2.5227661-1.2026978-5.0450439-2.4065552-7.5598755-3.6256714
			v11.9064941c2.2225342,1.1608276,4.4453735,2.3214722,6.6680298,3.4822388
			C10.0312977,33.4396019,13.3945179,35.1961937,16.7577381,36.9528465z"/>
	</g>
	<g id="color2">
		<path d="M9.6718006,20.4718895c0.6148682,0.2922363,1.2441406,0.5586548,1.8487549,0.8671265
			c2.0117798,1.0264282,4.0023193,2.0945435,6.0038452,3.1411743c2.9841309,1.5604248,5.9728394,3.1121826,8.9758911,4.6359253
			c2.7392578,1.3898315,5.4891968,2.7584229,8.244627,4.1159668c2.4680786,1.2159424,4.93396,2.4363403,7.4030151,3.6503296
			c2.5058594,1.2320557,5.013855,2.4596558,7.5218506,3.6873169c3.0021973,1.4696655,6.0053101,2.9375,9.0081177,4.4057617
			c0.4406128,0.2154541,0.8814087,0.4304199,1.3220825,0.645752v-0.5455322
			c-2.0991821-1.0183716-4.1990356-2.0351562-6.2967529-3.0565186c-2.7172852-1.3230591-5.4336548-2.6478882-8.1480713-3.9766235
			c-2.0211182-0.9894409-4.0408936-1.9816895-6.0571899-2.980835c-4.4006958-2.1806641-8.793211-4.3775024-13.1662579-6.6132812
			c-3.2469482-1.6600952-6.4868164-3.3338013-9.7109985-5.0379028c-1.3651123-0.7214966-2.727478-1.4482422-4.090271-2.1741943
			c-0.0584717-0.031189-0.142395-0.0413208-0.1594238-0.1350098c0.1104736-0.0549316,0.2472534,0.0006104,0.3543701-0.1029053
			c-0.1231689-0.0627441-0.223999-0.1166382-0.3269043-0.1661377c-0.6881104-0.3312988-1.3773804-0.6602783-2.0650635-0.9925537
			C6.8884144,18.1750755,3.4415758,16.514431-0.0000135,14.842555v0.9854736
			c1.848938,0.9016123,3.7018433,1.7950449,5.5584717,2.6809702C6.9295521,19.1632957,8.2997303,19.8196678,9.6718006,20.4718895z"
			/>
		<path d="M9.6310902,18.8094749c1.367981,0.6611938,2.7508545,1.2922974,4.1005249,1.9907837
			c2.1594238,1.1176147,4.31073,2.2507935,6.4714966,3.3657837c2.5914307,1.3372803,5.1865845,2.6672974,7.78479,3.991394
			c2.5250244,1.2868042,5.0534039,2.5670166,7.584837,3.8411255c3.1772461,1.5992432,6.3555908,3.1963501,9.546814,4.7675171
			c2.2108154,1.088501,4.4204102,2.1793823,6.6317749,3.2666016c2.4766846,1.2177124,4.9616699,2.4181519,7.4539795,3.6035156
			c0.2645264,0.1257935,0.5300293,0.2493286,0.7946777,0.3748169v-0.4581909
			c-2.1278687-1.0343018-4.2560425-2.0678711-6.3833008-3.1033936c-2.5404663-1.2367554-5.0817871-2.4718018-7.6192017-3.7147827
			c-2.9432983-1.4417114-5.8859253-2.8846436-8.8231812-4.338623c-5.6831646-2.8132935-11.3500347-5.6590576-16.9816875-8.5743408
			c-1.7799683-0.9213867-3.555603-1.8510742-5.3320923-2.7791748c-0.1427612-0.074585-0.293335-0.1390381-0.4321899-0.2504272
			c0.1838379-0.0981445,0.3917236-0.0502319,0.5844727-0.1553955c-0.098999-0.0497437-0.1711426-0.0873413-0.2443848-0.1226807
			c-2.1379395-1.031189-4.2779541-2.0581665-6.4136353-3.0941772c-2.7866211-1.3517456-5.571228-2.7077036-8.3547974-4.0656137
			v0.7817993c0.2982178,0.1463623,0.5946655,0.2963257,0.8930664,0.4423218
			C3.7999132,16.0006981,6.7173939,17.4011497,9.6310902,18.8094749z"/>
		<path d="M12.323534,18.3921165c1.3054199,0.6386719,2.6100464,1.2788696,3.9157104,1.9171143
			c0.0949707,0.0464478,0.1880493,0.1245117,0.2952271,0.1123657c0.2475586-0.0279541,0.4928589-0.0757446,0.7719116-0.1207886
			c-0.0951538-0.0936279-0.1812134-0.1217041-0.2596436-0.15979c-1.6322632-0.7924194-3.2653809-1.5830688-4.8977051-2.3754272
			c-2.2749023-1.1043091-4.5507812-2.2064829-6.8234253-3.3154306c-1.7760623-0.8666382-3.5506592-1.7363892-5.3256226-2.6052856
			v0.5163574c1.0986328,0.5383911,2.1970215,1.0772095,3.2958374,1.6151123
			C6.3046131,15.4491835,9.3143787,16.9199486,12.323534,18.3921165z"/>
		<path d="M12.8765125,17.0641747c2.0166626,0.9595947,4.0395508,1.9055786,6.0755005,2.8238525
			c0.2337036,0.1054077,0.4414673,0.1050415,0.680603,0.0233765c-0.0698242-0.0892334-0.1613159-0.1096802-0.2397461-0.1478882
			c-2.2887573-1.1142578-4.5783081-2.2269287-6.8677368-3.3400269c-2.3706055-1.1525278-4.7420044-2.3033457-7.1114502-3.4583139
			c-1.8053591-0.8799438-3.6094971-1.7624512-5.4136963-2.6447754v0.47052
			c1.7926025,0.8844604,3.5859985,1.7674561,5.3797607,2.6495972C7.870409,14.6654921,10.3701649,15.8716688,12.8765125,17.0641747z
			"/>
	</g>
</g>
</svg>
