<?xml version="1.0" encoding="utf-8"?>
<!-- Generator: Adobe Illustrator 27.2.0, SVG Export Plug-In . SVG Version: 6.00 Build 0)  -->
<svg version="1.1" xmlns="http://www.w3.org/2000/svg" xmlns:xlink="http://www.w3.org/1999/xlink" x="0px" y="0px"
	 viewBox="0 0 60 79" enable-background="new 0 0 60 79" xml:space="preserve">
<g id="print7">
	<g id="color1_00000172432600265659111470000002249578453343301053_">
		<path d="M59.995224,56.3548965v22.6499634h-8.1099854c-2.3800049-3.0599976-5.9700317-7.8599854-6.1199951-8.0499878
			c-0.8400269-1.0599976-1.7000122-2.0999756-2.5599976-3.1400146c-0.7400513-0.8899536-1.4900513-1.7599487-2.2200317-2.6499634
			c-0.7999878-0.9700317-1.5800171-1.960022-2.3599854-2.9400024c-0.0200195-0.0300293-0.0200195-0.0700073-0.0400391-0.1000366
			c-0.3899536-0.3899536-0.6999512-0.8599854-1.0299683-1.2999878c-0.75-1.0199585-1.5599976-1.9899902-2.4500122-2.8999634
			c-0.9400024-0.960022-1.8699951-1.9200439-2.789978-2.9000244c-0.5000019-0.5300293-0.9800434-1.0999756-1.4600239-1.6599731
			c-0.0499878-0.0500488-0.0700073-0.1200562-0.1099854-0.1800537c-0.4700317-0.5299683-0.8699951-1.1199951-1.2399902-1.7299805
			c-0.5900269-0.9699707-1.0499878-2-1.2399902-3.1300049c-0.1900024-1.1900024-0.0900269-2.3499756,0.3199463-3.4799805
			c0.0800171-0.2299805,0.1600342-0.0700073,0.2300415-0.0100098c0.6199951,0.5999756,1.1900024,1.2399902,1.7399902,1.9099731
			c0.8200073,1.0100098,1.5900288,2.0600586,2.3099995,3.1400146c0.6799927,1,1.3400269,2.0100098,2,3.0100098
			c0.0599976,0.0999756,0.1199951,0.1900024,0.1799927,0.289978c0.4299927,0.5900269,0.8500366,1.1800537,1.2800293,1.7700195
			c0.6099854,0.8400269,1.2599487,1.6500244,1.9400024,2.4400024c0.4799805,0.5300293,0.9799805,1.039978,1.5,1.5300293
			c1.0199585,0.9699707,2.1199951,1.8299561,3.3699951,2.5c0.3800049,0.1999512,0.7799683,0.3800049,1.1599731,0.5899658
			c0.5800171,0.2399902,1.1600342,0.4899902,1.75,0.7200317c1.0700073,0.4199829,2.1600342,0.75,3.2999878,0.8899536
			c0.8400269,0.1100464,1.6900024,0.0900269,2.4500122-0.3699951c0.3599854-0.2199707,0.6799927-0.4899902,0.6600342-0.9799805
			c0.0299683-0.6900024-0.25-1.289978-0.5200195-1.8900146c-0.5800171-1.3099976-1.3099976-2.5299683-1.9299927-3.8200073
			c-0.3300171-0.7099609-0.6400146-1.4299927-0.7700195-2.2099609c-0.0299683-0.1300049-0.0299683-0.2600098-0.0299683-0.3900146
			c-0.0100098-0.1300049,0.0499878-0.210022,0.1900024-0.210022c0.289978,0,0.5699463-0.0599976,0.8599854-0.0599976
			c1.3699951-0.0100098,2.7099609,0.2000122,4.039978,0.4899902c1.6300049,0.3600464,3.1900024,0.8800049,4.6900024,1.6000366
			C59.3351898,55.9548721,59.6752167,56.1448746,59.995224,56.3548965z"/>
		<path d="M59.995224,15.2048712v37.6799927c-2.539978-1.3599854-5.289978-2.2699585-7.9500122-3.3699951
			c-1.8499756-0.7600098-3.6599731-1.6099854-5.2399902-2.8699951c-0.5700073-0.460022-1.1300049-0.9299927-1.6300049-1.460022
			c-0.8400269-0.7799683-1.6099854-1.6399536-2.3499756-2.5099487c-2.1000366-2.460022-3.8699951-5.1600342-5.7000122-7.8099976
			c-0.0200195-0.0200195-0.0400391-0.0599976-0.0499878-0.0900269c-0.8099976-1.1099854-1.6199951-2.2199707-2.4200439-3.3400269
			c-1.7299805-2.4499512-4.079958-4.0899658-6.7599506-5.3299561c-1.9000244-0.8800049-3.8600464-1.5800171-5.8200073-2.2999878
			c-1.8600464-0.6900024-3.7200317-1.3800049-5.5-2.2900391c-3.8099966-1.9299927-6.8699942-4.7099609-9.3000488-8.2099619
			c-1.4599609-2.1200562-2.7399902-4.3600464-4.039978-6.5800166C2.6152177,5.6648936,1.855208,4.734901,0.8852373,3.9648814
			C0.5752397,3.8348765,0.2751909,3.6848521-0.0047774,3.524879V0.0048594h24.3399658c0,0.2800293-0.0099487,0.4899902,0,0.5200195
			c0.75,2.6099854,1.8200073,5.0700073,3.3300171,7.3300171c1.1000366,1.6499629,2.3500366,3.1799922,3.7200317,4.6099849
			c2.5700092,2.6599731,5.0499897,5.4099741,7.8399677,7.8599863c1.6400146,1.4400024,3.3699951,2.7600098,5.2900391,3.8099976
			c0.539978,0.2900391,1.0999756,0.5700073,1.7099609,0.8099976c-0.039978-0.1199951-0.0599976-0.2000122-0.0899658-0.2799683
			c-0.5-1.4200439-1.2600098-2.6900024-2.0400391-3.960022c-0.9699707-1.5700073-1.9599609-3.1199951-2.6799927-4.830018
			c-1.3099976-3.0699463-2.5499878-6.1900024-4.0199585-9.1900024c-0.9100342-1.8699951-1.3500366-3.8299561-1.210022-5.9099731
			c0.0100098-0.0599976-0.0200195-0.3699951-0.0599976-0.7700195h13.3399658
			c-0.0199585,0.3900146-0.0299683,0.6700439-0.039978,0.710022c-0.0900269,1.3099976,0.2299805,2.539978,0.7399902,3.7199707
			c0.9700317,2.25,2.4400024,4.1700435,4.0800171,5.9600215c1.210022,1.3200073,2.5499878,2.4799805,3.9699707,3.5599976
			C58.7952118,14.4048834,59.3952484,14.8148565,59.995224,15.2048712z"/>
		<path d="M38.7751923,79.0048599H-0.0047774V68.1648941c0.039978,0,0.0700073-0.0400391,0.0700073-0.1400146
			c0.0100098-0.6099854,0-1.2299805-0.0700073-1.8300171V11.3848639c0.2000122,0.3200073,0.4099731,0.6400146,0.5999756,0.960022
			c0.670044,1.0800171,1.3600464,2.1400146,1.8000488,3.3499756c0.3099976,0.8500376,0.4499512,1.7399912,0.539978,2.6400156
			c0.1499634,1.4000244,0.1799927,2.8099976,0.2700195,4.2200317c0.1099854,1.7699585,0.5899658,3.4699707,1.1099854,5.1499634
			c0.7099609,2.3500366,1.5899658,4.6400146,2.7099609,6.8200073c0.0200195,0.0300293,0.0300293,0.0599976,0.0400391,0.0999756
			c0.4400024,0.7900391,0.8800049,1.5900269,1.3200078,2.3900146c1.3800049,2.4500122,2.9699707,4.7700195,4.5999756,7.0599976
			c0.0499878,0.0700073,0.0999756,0.1500244,0.1500244,0.2200317c0.6099854,0.8099976,1.2099609,1.6300049,1.8200073,2.4400024
			c0.9299927,1.2399902,1.8799429,2.4599609,2.8499746,3.6699829c0.8499756,1.0700073,1.7000122,2.1300049,2.539978,3.1900024
			c0.4899902,0.5999756,0.9800415,1.1900024,1.4700317,1.789978c0.7199707,0.8800049,1.4299927,1.7600098,2.1499634,2.6500244
			c0.3900146,0.4899902,0.7700195,1,1.1700439,1.4899902c0.6900024,0.8200073,1.3499756,1.6699829,2,2.5200195
			c0.5700073,0.7399902,1.1499634,1.4599609,1.6799927,2.2199707c0.4299927,0.4799805,0.7799683,1.0200195,1.1499634,1.5300293
			c1.2800293,1.7399902,2.4500141,3.539978,3.7000141,5.2999878c0.2200317,0.3099976,0.3599854,0.6699829,0.6000366,0.9699707
			C34.3351898,72.1448746,36.9452362,76.1448746,38.7751923,79.0048599z"/>
	</g>
</g>
</svg>
