<?xml version="1.0" encoding="utf-8"?>
<!-- Generator: Adobe Illustrator 27.2.0, SVG Export Plug-In . SVG Version: 6.00 Build 0)  -->
<svg version="1.1" xmlns="http://www.w3.org/2000/svg" xmlns:xlink="http://www.w3.org/1999/xlink" x="0px" y="0px"
	 viewBox="0 0 60 79" enable-background="new 0 0 60 79" xml:space="preserve">
<g id="print3">
	<g id="color1_00000147922340835204404850000005250697919840696964_">
		<path d="M34.9069595,43.601738c-0.0499878-0.039978-0.1099854-0.0700073-0.1699829-0.0799561h-0.4899902
			c-0.2700195,0.0299683-0.5300293,0.1499634-0.7999878,0.2099609c-0.3100586,0.0700073-0.5600586,0.2399902-0.75,0.4899902
			c-0.1400146,0.1700439-0.2600098,0.3400269-0.3900146,0.5100098c-2.1600323,2.710022-4.3599834,5.3900146-6.7000103,7.9500122
			c-1.2200317,1.3400269-2.3900146,2.7399902-3.3599854,4.2700195c-0.0900269,0.1399536-0.2000122,0.2699585-0.3099976,0.3999634
			c-0.2900391,0.3099976-0.6400146,0.4400024-1.0700073,0.4000244c-0.4000244-0.0400391-0.6600342-0.25-0.75-0.6400146
			c-0.1600342-0.7600098,0.0800171-1.4299927,0.7000122-1.8200073c0.1499634-0.0999756,0.2999878-0.2099609,0.4299927-0.3399658
			c0.5599976-0.6000366,0.9199829-1.3099976,1.1699829-2.0800171c0.0300293-0.1300049,0.0300293-0.2600098,0-0.3900146
			c-0.0800171-0.2399902-0.2600098-0.3599854-0.4799805-0.4199829c-0.210022-0.0599976-0.3600464,0-0.4899902,0.1699829
			c-0.0800171,0.1000366-0.1300049,0.210022-0.1700439,0.3200073c-0.2799683,0.7399902-0.7399902,1.3699951-1.2999878,1.9299927
			c-0.4000244,0.4100342-0.8400269,0.7800293-1.2799683,1.1600342c-0.6300049,0.5299683-1.2400513,1.0699463-1.75,1.7199707
			c-0.1900024,0.2399902-0.4400024,0.3800049-0.7400513,0.4299927c-0.1599731,0.0400391-0.3200073,0.0300293-0.4799805,0.0100098
			c-0.4899902-0.1199951-0.7600098-0.4400024-0.9099731-0.9000244c-0.0200195-0.1299438-0.0200195-0.2599487,0-0.3999634
			c0.0599976-0.2299805,0.1999512-0.4100342,0.3599854-0.5700073c0.1699829-0.1699829,0.3399658-0.3300171,0.5200195-0.4899902
			c0.7799683-0.7200317,1.4399414-1.5400391,1.9399414-2.4899902c0.0400391-0.0700073,0.1000366-0.1400146,0.0900269-0.2300415
			c-0.0900269-0.0199585-0.1599731,0.0200195-0.2399902,0.0400391c-0.539978,0.1799927-1.0100098,0.4799805-1.4199829,0.8699951
			c-0.3699951,0.3599854-0.6700439,0.7699585-0.9500122,1.2099609c-0.2600098,0.4000244-0.5100098,0.8200073-0.7600098,1.2200317
			c-0.2800293,0.4299927-0.5499878,0.8499756-0.8499756,1.2600098c-0.2800293,0.3699951-0.6200562,0.6300049-1.0900269,0.6900024
			c-0.289978,0.039978-0.5200195,0.1699829-0.7299805,0.3699951c-0.1500244,0.1400146-0.3000488,0.289978-0.4700317,0.4299927
			c-0.539978,0.460022-1.0299683,0.9699707-1.4799805,1.5299683c-0.7399902,0.9200439-1.3599854,1.9200439-1.9600224,2.9300537
			c-0.8699951,1.4799805-1.8499756,2.8799438-2.9400024,4.1999512c-1.6499634,1.9899902-3.1399536,4.0800171-4.5,6.2600098
			l-0.3399658,0.6500244v4.6199951h1.5899658c0.460022-0.8200073,1.1100464-1.75,1.1100464-1.75
			c0.2999878-0.3099976,0.6299438-0.5700073,1.0199585-0.7900391c0.7000122-0.3999634,1.25-0.9599609,1.6699829-1.6399536
			c0.3000488-0.4800415,0.5300293-0.9899902,0.7300415-1.5200195c0.1900024-0.5200195,0.3699951-1.039978,0.5599976-1.5599976
			c0.1099854-0.2999878,0.2999878-0.539978,0.5999756-0.6699829c0.710022-0.2900391,1.2600102-0.7800293,1.7399907-1.3600464
			c0.25-0.3099976,0.4900513-0.6299438,0.7300415-0.9599609c0.2399902-0.3400269,0.4899902-0.6799927,0.7699585-0.9799805
			c1.1100464-1.1600342,2.1000366-2.4300537,3.0599976-3.710022c0.8500366-1.1500244,1.6700439-2.3200073,2.5500488-3.4400024
			c0.2199707-0.2800293,0.4499512-0.5599976,0.7199707-0.789978c0.2200317-0.210022,0.4700317-0.3800049,0.7700195-0.4400024
			c0.1199951-0.0200195,0.2299805-0.0200195,0.3399658,0c0.1100464,0.0199585,0.2000122,0.0599976,0.2900391,0.1099854
			c0.3399658,0.2000122,0.4400024,0.4299927,0.3299561,0.8200073c-0.0499878,0.2000122-0.1399536,0.3800049-0.25,0.5599976
			c-0.2699585,0.4199829-0.5999756,0.789978-1,1.0899658c-0.2299805,0.1799927-0.4299927,0.3699951-0.5899658,0.6100464
			c-0.0700073,0.0899658-0.1199951,0.1900024-0.1500244,0.2999878c-0.039978,0.1599731,0.0200195,0.289978,0.1700439,0.3800049
			c0.1399536,0.0700073,0.2599487,0.0599976,0.3899536-0.0599976c0.1000366-0.1000366,0.1799927-0.2200317,0.2700195-0.3300171
			c0.0800171-0.1099854,0.1699829-0.210022,0.2999878-0.2600098c0.3900146-0.1199951,0.6699829-0.3800049,0.9000244-0.7000122
			c0.1400146-0.1900024,0.2699585-0.3899536,0.3999634-0.5899658c0.1300049-0.1900024,0.2700195-0.3900146,0.4400024-0.5499878
			c0.2000122-0.2000122,0.4299927-0.3400269,0.7200317-0.3800049c0.0800171-0.0300293,0.1699829-0.0100098,0.2600098-0.0200195
			c0.3200073-0.0100098,0.6499634,0.0299683,0.9799805-0.0200195c0.2299805-0.0999756,0.2700195-0.1900024,0.2199707-0.4199829
			c-0.0599976-0.210022-0.1599731-0.4099731-0.2699585-0.5999756c-0.0599976-0.1100464-0.1300049-0.2200317-0.1500244-0.3400269
			c-0.0199585-0.1199951-0.039978-0.2299805,0.0100098-0.3499756c0.0800171-0.2200317,0.25-0.3400269,0.460022-0.4100342
			c0.2399902-0.0899658,0.4899902-0.0899658,0.7399902-0.0299683c0.2199707,0.0499878,0.4299927,0.1099854,0.6400146,0.1599731
			c0.1300049,0.0300293,0.2599487,0.039978,0.3899536,0c0.2900391-0.0800171,0.4299927-0.3200073,0.5400391-0.5800171
			c0.0700073-0.1900024,0.1499634-0.3800049,0.2699585-0.5499878c0.1100464-0.1599731,0.2200317-0.3099976,0.3300171-0.4699707
			c0.3099976-0.4200439,0.4199829-0.8699951,0.2399902-1.3800049c-0.0700073-0.1900024-0.0700073-0.3800049,0.0100098-0.5800171
			c0.1000366-0.2399902,0.289978-0.4000244,0.5300293-0.5100098c0.2199707-0.0999756,0.4499512-0.1300049,0.6900024-0.1499634
			c0.4099731-0.0300293,0.539978-0.1600342,0.5999756-0.5599976c0.0499878-0.2600098,0.1199951-0.5200195,0.25-0.7600098
			c0.2000122-0.3699951,0.5-0.6000366,0.9199829-0.6799927c0.2700195-0.0500488,0.5499878-0.0400391,0.8200073,0
			c0.4199829,0.0599976,0.6600342-0.1100464,0.7299805-0.5100098c0.1300049-0.6600342,0.4100342-1.2700195,0.7700195-1.8500366
			c0.2800293-0.4400024,0.6000366-0.8499756,0.9500122-1.2299805c0.4899902-0.539978,0.9899883-1.0599976,1.4799786-1.5999756
			c0.6300049-0.6700439,1.210022-1.3800049,1.6100464-2.210022c0.0699463-0.1400146,0.1799927-0.2399902,0.3099976-0.3200073
			c0.1399536-0.0899658,0.289978-0.1699829,0.4199829-0.2700195C35.1569595,43.9817429,35.1469498,43.7717819,34.9069595,43.601738z
			 M13.3469639,61.5617599c-0.1099854,0.1599731-0.2199707,0.3099976-0.3399658,0.4500122
			c-0.6400146,0.7399902-1.3200073,1.4199829-2.0599976,2.0599976c-0.2200317,0.1900024-0.4500122,0.3699951-0.710022,0.5
			c-0.0800171,0.0299683-0.1600342,0.0299683-0.2399902,0.0100098c-0.2700195-0.1200562-0.3400269-0.2300415-0.3400269-0.5100098
			c0.0100098-0.1300049,0.0499878-0.2600098,0.0900269-0.3900146c0.2099609-0.5900269,0.5499878-1.1099854,0.9500122-1.5900269
			c0.4899902-0.5699463,1.0599976-1.0599976,1.6399536-1.539978c0.0900269-0.0800171,0.1900024-0.1300049,0.3099976-0.1599731
			c0.1000366-0.0200195,0.1900024-0.0300293,0.2900391,0c0.3399658,0.1699829,0.5700073,0.5999756,0.5100098,0.9599609
			C13.4369907,61.4317551,13.3969517,61.5017624,13.3469639,61.5617599z"/>
		<path d="M59.9969864,0.0017633v1.2700195l-1.8200073,1.3499756c-0.7200317,0.5899658-1.3400269,1.2799683-1.8900146,2.0499878
			c-0.3399658,0.4899902-0.6699829,0.9899902-0.9500122,1.5200195c-0.5499878,1.039978-1.2399902,1.9799805-1.9699707,2.8999634
			c-0.5,0.6199951-1.0100098,1.25-1.4700317,1.9100342c-0.4499512,0.6300049-0.8499756,1.289978-1.1599731,2
			c-0.1600342,0.3599854-0.4000244,0.6499634-0.6600342,0.9199829c-0.3399658,0.3400269-0.7099609,0.6500244-1.0999756,0.9400024
			c-0.4500122,0.3499756-0.9000244,0.6799927-1.3499756,1.0300293c-0.460022,0.3499746-0.8400269,0.7699575-1.1199951,1.2799673
			c-0.1800537,0.3400269-0.3099976,0.7000122-0.3600464,1.0900269c-0.0299683,0.2099609-0.0199585,0.4199829,0,0.6199951
			c0.0400391,0.4599609,0.2200317,0.8699951,0.4899902,1.2399902c0.1000366,0.1400146,0.210022,0.2799683,0.3000488,0.4299927
			c0.1399536,0.2299805,0.0999756,0.3599854-0.1400146,0.5c-0.0499878,0.0200195-0.0999756,0.0499878-0.1500244,0.0700073
			c-0.4899902,0.1900024-0.9199829,0.4799805-1.3299561,0.8099976c-0.2700195,0.210022-0.5300293,0.4099731-0.8200073,0.5999756
			c-0.6799927,0.460022-1.4200439,0.6100464-2.2200317,0.3699951c-0.1199951-0.0299683-0.2299805-0.0199585-0.3399658,0
			c-0.1700439,0.0300293-0.3200073,0.0900269-0.4700317,0.1700439c-0.2399902,0.1099854-0.3900146,0.2799683-0.4599609,0.5499878
			c-0.1400146,0.5200195-0.4200439,0.9699707-0.7300415,1.4000244c-0.3200073,0.4199829-0.6799927,0.8099976-1.0199585,1.2099609
			c-0.2800293,0.3200073-0.5400391,0.6400146-0.7700195,0.9899902c-0.3300171,0.5200195-0.539978,1.0900269-0.6300049,1.7000122
			c-0.0300293,0.1900024-0.0200195,0.3800049,0,0.5800171c0.0499878,0.3800049,0.25,0.6699829,0.539978,0.8999634
			c0.210022,0.1700439,0.460022,0.2800293,0.7000122,0.4100342c0.1799927,0.0999756,0.3699951,0.210022,0.4400024,0.4299927
			c0.0200195,0.0999756,0.0200195,0.1900024-0.0100098,0.289978c-0.0599976,0.2800293-0.2799683,0.3400269-0.5199585,0.3600464
			c-0.3700562,0.0199585-0.7300415,0.1300049-1.0900269,0.2099609c-0.0700073,0.0100098-0.1300049,0.0400391-0.2000122,0.0499878
			c-0.2600098,0.0599976-0.4099731,0.1800537-0.4400024,0.4900513c-0.0899658,0.7599487-0.5299683,1.2799683-1.2600098,1.539978
			c-0.4099731,0.1400146-0.8499756,0.210022-1.2799683,0.289978c-0.3699951,0.0599976-0.7299805,0.1199951-1.0900269,0.2200317
			c-0.5599976,0.1699829-1.0100098,0.4699707-1.2699585,1.0199585c-0.0700073,0.1600342-0.1700439,0.2000122-0.3500366,0.1700439
			c-0.1499615-0.0200195-0.2799664-0.0800171-0.419981-0.1500244c-0.1500244-0.0800171-0.2999878-0.1699829-0.460022-0.2399902
			c-0.2099609-0.0999756-0.4299927-0.2000122-0.6699829-0.2199707c-0.1599731-0.0400391-0.3200073-0.0300293-0.4899902-0.0100098
			c-0.3200073,0.0499878-0.5300293,0.25-0.6900024,0.5299683c-0.1699829,0.2999878-0.2399902,0.6400146-0.289978,0.9899902
			c-0.0300293,0.1799927-0.0400391,0.3600464-0.0900269,0.5400391c-0.0599976,0.2399902-0.1900024,0.3899536-0.460022,0.4299927
			c-0.2799683,0.039978-0.5199585,0.1900024-0.7399902,0.3599854c-0.1799927,0.1400146-0.3599854,0.289978-0.539978,0.4299927
			c-0.1500244,0.1099854-0.3099976,0.210022-0.5,0.2600098c-0.1699829,0.039978-0.3400269,0.0300293-0.5100098-0.0299683
			c-0.0700073-0.0300293-0.0999756-0.0900269-0.0499878-0.1500244c0.0499878-0.0800171,0.1099854-0.1500244,0.1799927-0.2200317
			c0.1699829-0.1900024,0.3499756-0.3699951,0.5-0.5699463c0.1900024-0.2400513,0.2999878-0.5100098,0.3099976-0.8300171
			c0.0200195-0.4299927,0.2000122-0.7999878,0.4699707-1.1300049c0.2200317-0.2800293,0.4800415-0.5100098,0.7600098-0.7200317
			c0.6600342-0.4899902,1.210022-1.0899658,1.75-1.6900024c0.3200073-0.3699951,0.5700073-0.7699585,0.6500244-1.2699585
			c0.0299683-0.2000122,0.0200195-0.3900146,0.0200195-0.5900269c0.0099487-0.2999878,0.1199951-0.5499878,0.3999634-0.7099609
			c0.1199951-0.0700073,0.2600098-0.1000366,0.4100342-0.1100464c0.630003-0.039978,1.1599712-0.3200073,1.5999737-0.7699585
			c0.1500244-0.1500244,0.289978-0.3099976,0.4299927-0.4700317c2.710022-3.3200073,5.4700317-6.5999756,8.2200317-9.8900146
			c0.6499634-0.789978,1.3199463-1.5799561,1.9699707-2.3599854c0.2299805-0.2699585,0.4199829-0.5599976,0.4799805-0.9199829
			c0.0300293-0.1400146,0.0300293-0.289978,0-0.4299917c-0.0999756-0.4299927-0.3099976-0.7700195-0.7599487-0.9000244
			c-0.1500244-0.0299683-0.2900391-0.0299683-0.4300537,0c-0.2599487,0.0400391-0.4899902,0.1400146-0.7299805,0.210022
			c-0.1099854,0.0299683-0.2199707,0.0999756-0.3499756,0.0599976c0.0299683-0.1199951,0.0999756-0.210022,0.1599731-0.2999878
			c0.8400269-1.3900146,1.8300171-2.6799927,2.8699951-3.9299927c1.0599976-1.2700195,2.1700439-2.4900513,3.2399902-3.7400513
			c1.960022-2.3099976,3.9200439-4.6300049,5.8699951-6.9499512c0.0500488-0.0599976,0.1000366-0.1199951,0.1600342-0.1600342
			l0.3099976-0.2299805H59.9969864z"/>
	</g>
	<g id="color2_00000163787970263578643680000017185902974043488959_">
		<path fill="#515151" d="M15.950304,40.4903908c-0.1099854,0.1300049-0.25,0.2399902-0.3999634,0.3300171
			c-0.2600098,0.1699829-0.5300293,0.3299561-0.7999878,0.5c-0.2000122,0.1199951-0.3900146,0.2399902-0.5700073,0.3800049
			c-0.2000122,0.1599731-0.3699951,0.3499756-0.4800415,0.5799561c-0.8099976,1.7000122-1.8899536,3.210022-3.0899658,4.6400146
			c-0.9299927,1.1199951-1.9400024,2.1699829-2.9400029,3.2199707c-1.0100098,1.0600586-2.0300293,2.1200562-2.9899902,3.2300415
			c-1.25,1.4599609-2.3800049,3.0100098-3.2200317,4.75c-0.5599975,1.1499634-0.9899902,2.3399658-1.2299805,3.5999756
			c-0.0400391,0.25-0.1199951,0.460022-0.2299805,0.6300049V52.690403c0.6199951-0.7399902,1.2299805-1.4899902,1.8399658-2.2300415
			c2.1699829-2.6499634,4.2999878-5.3200073,6.4299932-7.9899902c0.4400024-0.5499878,0.8300171-1.1300049,1.2900391-1.6699829
			c0.2199707-0.2600098,0.4499512-0.5,0.7299805-0.710022c0.2600098-0.2000122,0.539978-0.3599854,0.8499756-0.4500122
			c0.6799927-0.1999512,1.3699951-0.3899536,2.0499878-0.5799561c0.3800049-0.1099854,0.7700195-0.1799927,1.1600342-0.210022
			c0.3900146-0.0200195,0.7600098,0.0100098,1.1099854,0.1799927c0.25,0.1099854,0.4400024,0.2900391,0.5800171,0.5100098
			C16.2603016,39.8703957,16.2203236,40.2004128,15.950304,40.4903908z"/>
		<path fill="#515151" d="M46.846962,0.0017633c-0.1400146,0.1599731-0.3200073,0.2799683-0.539978,0.3800049
			c-0.4899902,0.2000122-0.8900146,0.5499878-1.2600098,0.9400024c-0.3599854,0.3800049-0.6699829,0.8099976-0.9799805,1.2399902
			c-0.2800293,0.3800049-0.5500488,0.75-0.8699951,1.0899658c-0.9500122,0.9900513-1.8000488,2.0599976-2.6200562,3.1500244
			c-0.9400024,1.25-1.8399658,2.5200195-2.789978,3.7600098c-0.25,0.3200073-0.5,0.6400146-0.789978,0.9099731
			c-0.1900024,0.1799927-0.4000244,0.3400269-0.6400146,0.4400024c-0.3099976,0.1300049-0.5999756,0.1100464-0.8800049-0.0799561
			c-0.289978-0.1900024-0.3800049-0.4000244-0.2999878-0.7400513c0.0499878-0.1999512,0.1300049-0.3800049,0.2299805-0.5499878
			c0.2800293-0.4500122,0.6300049-0.8399658,1.0599976-1.1699829c0.1900024-0.1400146,0.3599854-0.3099976,0.5-0.4899902
			c0.0900269-0.1099854,0.1699829-0.2399902,0.2000122-0.3800049c0.0499878-0.1600342,0-0.2900391-0.1500244-0.3800049
			c-0.1300049-0.0800171-0.2699585-0.0700073-0.3899536,0.0499878c-0.0900269,0.0900269-0.1700439,0.2000122-0.25,0.3099976
			c-0.1100464,0.1400146-0.2400513,0.25-0.4100342,0.3099976c-0.2099609,0.0700073-0.3900146,0.2000122-0.5499878,0.3599854
			c-0.1799927,0.1800537-0.3300171,0.3800049-0.4699707,0.5900269c-0.1500244,0.2399902-0.3000488,0.4799805-0.4900513,0.7000122
			c-0.2299805,0.2699585-0.5,0.4799805-0.8599854,0.539978c-0.0800171,0.0300293-0.1699829,0.0100098-0.2600098,0.0100098
			c-0.3200073,0.0200195-0.6499634-0.0200195-0.9799805,0.0200195c-0.2200317,0.0999756-0.2700195,0.1799927-0.2299805,0.3999634
			c0.0199585,0.1199951,0.0700073,0.2300415,0.1199951,0.3300171c0.0799561,0.1599731,0.1599731,0.3099976,0.2399902,0.4699707
			c0.1900024,0.3800049,0.0700073,0.7200317-0.3200073,0.8900146c-0.2600079,0.1199951-0.5399761,0.1300049-0.8099957,0.0700073
			c-0.1900024-0.039978-0.3800049-0.1099854-0.5700073-0.1499634c-0.4899902-0.1100464-0.7700195,0.0299683-0.9799805,0.4899902
			c-0.0200195,0.0499878-0.0400391,0.0999756-0.0599976,0.1499634c-0.0800171,0.2200317-0.1900024,0.4200439-0.3300171,0.6000366
			c-0.0800171,0.1199951-0.1699829,0.25-0.2600098,0.3699951c-0.2999878,0.4099731-0.3999634,0.8499756-0.2299805,1.3399658
			c0.0200195,0.0400381,0.0200195,0.0800161,0.0299683,0.1199942c0.0700073,0.2800293-0.0099487,0.5300293-0.1999512,0.7400513
			c-0.1800537,0.1900024-0.4100342,0.2999878-0.6600342,0.3399658c-0.1400146,0.0300293-0.2799683,0.039978-0.4299927,0.0599976
			c-0.3599854,0.0400391-0.5,0.1600342-0.5599976,0.5200195c-0.0499878,0.25-0.1099854,0.4899902-0.2200317,0.7199707
			c-0.2399902,0.5-0.6399536,0.75-1.1799927,0.7900391c-0.1699829,0.0100098-0.3499756,0.0100098-0.5199585-0.0200195
			c-0.0800171-0.0100098-0.1700439-0.0200195-0.2600098-0.0200195c-0.2800293,0.0100098-0.4500122,0.1400146-0.5200195,0.4200439
			c-0.0299683,0.1199951-0.0499878,0.2299805-0.0800171,0.3499756c-0.25,0.9400024-0.75,1.75-1.3699951,2.4899902
			c-0.5499878,0.6699829-1.1599731,1.2700195-1.75,1.9000244c-0.6300049,0.6799927-1.2099609,1.3900146-1.6199951,2.2299805
			c-0.0700073,0.1500244-0.1900024,0.25-0.3299561,0.3400269c-0.1300049,0.0799561-0.2700195,0.1599731-0.3900146,0.25
			c-0.2600098,0.1900024-0.2399902,0.4299927,0.0299683,0.5899658c0.1600342,0.0900269,0.3300171,0.1000366,0.5100098,0.0800171
			c0.3099976-0.039978,0.6099854-0.1500244,0.9199829-0.2299805c0.3200073-0.0800171,0.5700073-0.25,0.7700195-0.5100098
			c0.1300049-0.1799927,0.2600098-0.3599854,0.4000244-0.5300293c2.3399658-2.9699707,4.7699585-5.8499756,7.3099976-8.6499634
			c0.9699707-1.0700073,1.8599854-2.2000113,2.6400146-3.4299917c0.1299438-0.2000122,0.2799683-0.4000244,0.4599609-0.5700073
			c0.1400127-0.1300049,0.2900372-0.2400513,0.4799786-0.2900391c0.75-0.1699829,1.2700195,0.1100464,1.3000488,0.9100342
			c0.0299683,0.6699829-0.2200317,1.1900024-0.7800293,1.5499868c-0.2700195,0.1699829-0.5,0.3900146-0.6900024,0.6500244
			c-0.3300152,0.4499512-0.5700054,0.9599609-0.7899761,1.4699707c-0.0400391,0.1099854-0.0599976,0.2299805-0.0900269,0.3499756
			c-0.0299683,0.1100464-0.0100098,0.2200317,0.0300293,0.3200073c0.0999756,0.2600098,0.2999878,0.3800049,0.5599976,0.4100342
			c0.2499981,0.0299683,0.380003-0.1199951,0.4699688-0.3200073c0.0500488-0.0900269,0.1000366-0.2000122,0.1400146-0.2999878
			c0.1500244-0.3699951,0.3599854-0.7200317,0.5900269-1.0500488c0.3999634-0.539978,0.8699951-1,1.3800049-1.4299927
			c0.8199463-0.7199697,1.6599731-1.3999624,2.3499756-2.2600088c0.3599854-0.4299927,1.1699829-0.6699829,1.75-0.0699463
			c0.4799805,0.4899902,0.4899902,1,0.0200195,1.5c-0.1900024,0.2099609-0.4100342,0.3999634-0.6100464,0.5899658
			c-0.7699585,0.710021-1.4099731,1.5200186-1.8899536,2.4400015c-0.0400391,0.0700073-0.1000366,0.1300049-0.0800171,0.2299805
			c0.1099854,0.0100098,0.2000122-0.0299683,0.289978-0.0599976c0.6600342-0.2399902,1.2000122-0.6399536,1.6500244-1.1599731
			c0.4500122-0.5300293,0.7999878-1.1199951,1.1599731-1.7000113c0.3400269-0.5599976,0.7000122-1.1099854,1.0800171-1.6400146
			c0.2999878-0.4199829,0.6799927-0.6799927,1.1900024-0.75c0.25-0.0299683,0.4500122-0.1499634,0.6199951-0.3199463
			c0.1400146-0.1300049,0.2700195-0.2700195,0.4199829-0.3900146c0.7800293-0.6400146,1.4500122-1.4000244,2.0400391-2.2200317
			c0.6699829-0.9199829,1.2399902-1.8899536,1.8200073-2.8599854c0.6399536-1.0599976,1.3199463-2.0999756,2.1199951-3.0499878
			c1.2199707-1.4400024,2.3499756-2.9400024,3.4199829-4.5H46.846962z M44.0269547,7.641778
			c-0.2299805,0.6699829-0.6099854,1.2399902-1.0799561,1.7599487c-0.4500122,0.5100098-0.960022,0.960022-1.4800415,1.3900146
			c-0.0599976,0.0400391-0.1199951,0.0800171-0.1799927,0.1199951c-0.2999878,0.1600342-0.6099854,0.0800171-0.7999878-0.2099609
			c-0.1099854-0.1799927-0.1600342-0.3800049-0.1699829-0.6300049c-0.0100098-0.1000366,0.0599976-0.2200317,0.1399536-0.3300171
			c0.25-0.3599854,0.5599976-0.6799927,0.8600464-1c0.4899902-0.5300293,1.0199585-1.039978,1.5699463-1.5
			c0.1800537-0.1500244,0.3600464-0.289978,0.5600586-0.4000244c0.3099976-0.1599731,0.6199951,0.0200195,0.6599731,0.3600464
			C44.1169815,7.3517389,44.0769424,7.5017633,44.0269547,7.641778z"/>
		<path fill="#515151" d="M41.8403168,40.980381c-0.0299683,0.1500244-0.0800171,0.289978-0.1500244,0.4199829
			c-0.6599731,1.3000488-1.2599487,2.6199951-2.0199585,3.8600464c-0.3800049,0.6099854-0.8099976,1.1699829-1.3099976,1.6799927
			c-0.3300171,0.3399658-0.6300049,0.6999512-0.8800049,1.1099854c-0.2299805,0.3900146-0.4000244,0.789978-0.4299927,1.2399902
			c-0.0200195,0.3900146,0.0499878,0.75,0.2299805,1.0999756c0.1900024,0.3700562,0.3400269,0.75,0.4199829,1.1500244
			c0.0100098,0.0900269,0.0200195,0.1799927,0.0300293,0.2600098c0.0299683,0.2199707,0.0299683,0.4500122,0,0.6699829
			c-0.0499878,0.4899902-0.2399902,0.9299927-0.5,1.3400269c-0.3500366,0.539978-0.7999878,1-1.25,1.4500122
			c-1.2299805,1.2099609-2.460022,2.4099731-3.5700073,3.7299805c-0.8200054,0.9899902-1.5399761,2.039978-2.0999737,3.2000122
			c-0.3000488,0.5999756-0.5400391,1.2299805-0.7200317,1.8699989c-0.1199951,0.3900146-0.2700195,0.7600098-0.5100098,1.0899658
			c-0.1199951,0.1799927-0.2600098,0.3400269-0.4299927,0.4700317c-2.1699829,1.6799927-4,3.6900024-5.5999756,5.9099731
			c-1.3300171,1.8400269-2.5,3.7800293-3.6199951,5.75c-0.3200073,0.5499878-0.6300049,1.1099854-0.9400024,1.6700439
			c-0.0100098,0.0199585-0.0200195,0.0299683-0.0300293,0.0499878h-8.1099854
			c0.3900146-0.6000366,0.7299805-1.2300415,1.039978-1.8800049c0.5700073-1.1900024,1.0599976-2.4000244,1.5499878-3.6199951
			c0.8300171-2.1000366,2.0400391-3.9700317,3.5200195-5.6600342c0.9199829-1.0499878,1.8599854-2.0899658,2.7700195-3.1499634
			c0.6900024-0.8100014,1.3499756-1.6500282,2.0299683-2.4700356c1.0200195-1.2299805,2.0700073-2.4199829,3.1400146-3.5999756
			c1.789978-1.9800415,3.6300049-3.9199829,5.4400024-5.8800049c1.8400269-1.9899902,3.669981-4,5.3900127-6.1000366
			c0.6300049-0.7599487,1.2299805-1.5499878,1.8399658-2.3199463c0.710022-0.9000244,1.460022-1.7400513,2.3699951-2.4500122
			c0.2700195-0.210022,0.5500488-0.4100342,0.8500366-0.5900269c0.289978-0.1699829,0.5800171-0.3299561,0.8399658-0.539978
			c0.1000366-0.0800171,0.2200317-0.1500244,0.3600464-0.1600342C41.750351,40.5704079,41.8903046,40.7203712,41.8403168,40.980381z
			"/>
		<path fill="#515151" d="M59.9669571,18.8217697c-2.1699829,2.8299561-4.0700073,5.8399658-5.7799683,8.9599609
			c-0.710022,1.3000488-1.4400024,2.5800171-2.2800293,3.8000488c-0.8699951,1.25-1.8599854,2.3899536-3.0700073,3.3399658
			c-0.2799683,0.2200317-0.4699707,0.5-0.5700073,0.8400269c-0.2699585,0.9400024-0.7399902,1.7600098-1.3399658,2.5100098
			c-0.5599976,0.7099609-1.2000122,1.3399658-1.8400269,1.9699707c-0.2000122,0.210022-0.4099731,0.4099731-0.5999756,0.6199951
			c-0.5499878,0.6199951-0.6699829,1.3200073-0.2700195,2.0700073c0,0.0100098,0,0.0200195,0.0100098,0.0299683
			c0.1699829,0.3300171,0.1599731,0.6600342,0.0100098,1c-0.1300049,0.2800293-0.3099976,0.5300293-0.5300293,0.75
			c-0.2199707,0.2200317-0.4099731,0.460022-0.5799561,0.710022c-0.4900513,0.7299805-0.8400269,1.5200195-1.2300415,2.2999878
			c-0.0299683,0.0599976-0.039978,0.1199951-0.0499878,0.1799927c-0.0100098,0.1100464,0.0499878,0.1600342,0.1500244,0.1700439
			c0.0799561,0.0199585,0.1499634-0.0200195,0.2199707-0.0700073c0.0800171-0.0499878,0.1500244-0.1199951,0.2300415-0.1600342
			c0.6999512-0.3800049,1.25-0.9299927,1.75-1.539978c0.4399414-0.539978,0.8699951-1.0999756,1.3199463-1.6400146
			c1.2900391-1.5499878,2.6800537-3.0100098,4.0500488-4.4799805c0.9599609-1.039978,1.9099731-2.0800171,2.8299561-3.1599731
			c0.6300049-0.75,1.2200317-1.5200195,1.8900146-2.25c0.460022-0.5,0.9000244-1.0100098,1.3200073-1.5400391
			c0.6500244-0.8200073,1.0999756-1.75,1.4899902-2.7099609c0.2600098-0.6500244,0.5200195-1.2900391,0.8400269-1.9100342
			c0.4899902-0.9199829,1.1399536-1.6900024,2.0599976-2.210022v-7.6199951
			C59.9869766,18.7917404,59.9769669,18.8117599,59.9669571,18.8217697z"/>
	</g>
	<g id="color3">
		<path fill="#878787" d="M59.9969864,5.5017633v5.0899658c-0.4400024,0.4800415-0.9000244,0.9500122-1.3699951,1.4100342
			c-0.3600464,0.3599854-0.75,0.7000122-1.1199951,1.0499878c-0.6200562,0.5999756-1.2000122,1.2399902-1.7400513,1.9000244
			c-0.9499512,1.1499624-1.8199463,2.3499746-2.7299805,3.5299673c-0.710022,0.9100342-1.4699707,1.7900391-2.2700195,2.6300049
			c-0.1699829,0.1799927-0.3399658,0.3599854-0.5499878,0.4899902c-0.4199829,0.2800293-0.8399658,0.2800293-1.2600098,0.0100098
			c-0.1799927-0.1199951-0.3399658-0.2600098-0.4799805-0.4199829c-0.3499756-0.4299927-0.3699951-0.9899902-0.0700073-1.5400391
			c0.1699829-0.3299561,0.4199829-0.6099854,0.7000122-0.8499756c0.9099731-0.789978,1.6699829-1.7000122,2.3699951-2.6699829
			c0.6799927-0.960021,1.289978-1.9700308,1.9000244-2.9700308c0.6900024-1.1499634,1.3899536-2.2799683,2.1900024-3.3499756
			c0.7999878-1.0499878,1.7099609-1.9899902,2.7399902-2.8099976C58.6569595,6.721734,59.4169693,6.0317316,59.9969864,5.5017633z"
			/>
		<path fill="#878787" d="M17.6003284,48.7604103c0,0.0299683-0.0100098,0.0599976-0.0300293,0.1199951
			c-0.1399536-0.0700073-0.1999512-0.1700439-0.25-0.2800293c-0.0899658-0.1499634-0.1300049-0.3200073-0.1900024-0.4799805
			c-0.0499878-0.1500244-0.0999756-0.2999878-0.1999512-0.4299927c-0.1300049-0.1900024-0.3000488-0.2700195-0.5300293-0.2200317
			c-0.4099731,0.1000366-0.75,0.3200073-1.0299683,0.6400146c-0.3200073,0.3599854-0.5500488,0.789978-0.7000122,1.25
			c-0.3900146,1.2000122-1.0800171,2.2299805-1.9299927,3.1400146c-0.5100098,0.539978-0.9500122,1.1399536-1.3699951,1.75
			c-0.4400024,0.6499634-0.8699951,1.2999878-1.3200073,1.9400024c-0.2900391,0.3999634-0.6000366,0.7699585-0.9200439,1.1399536
			c-0.539978,0.6400146-1.0099487,1.3200073-1.4599614,2.0100098c-0.6699829,1.0200195-1.460022,1.9500122-2.2800293,2.8500366
			c-1.1099854,1.2099609-2.1499634,2.5000038-3.0100098,3.909977c-0.3799438,0.6199951-0.8799438,1.1400146-1.4099731,1.6199951
			c-0.3400269,0.3099976-0.6599731,0.6400146-0.9699707,0.9800415v-2.9200439
			c0.4299927-0.5499878,0.8699951-1.0799561,1.3399658-1.5899658c0.4799805-0.5200233,0.8800049-1.1000404,1.2700195-1.6900063
			c0.4500122-0.6799927,0.8699951-1.3699951,1.3299561-2.0400391c0.5900269-0.8699951,1.3000488-1.6199951,2.0900269-2.3099976
			c1.460022-1.2999878,2.6300054-2.8099976,3.3499761-4.6499634c0.3500366-0.8900146,0.9400024-1.5700073,1.7200317-2.1000366
			c0.1900024-0.1300049,0.3900146-0.25,0.5800171-0.3699951c0.1699829-0.1099854,0.3200073-0.2299805,0.4400024-0.3900146
			c0.2199707-0.2999878,0.2599487-0.5999756,0.0899658-0.9399414c-0.0599976-0.1100464-0.1300049-0.210022-0.2000122-0.3100586
			c-0.0499878-0.0699463-0.1099854-0.1399536-0.1499634-0.2199707c-0.1199951-0.2000122-0.0900269-0.2700195,0.1199951-0.3499756
			c0.3099976-0.1199951,0.5700073-0.3099976,0.8099976-0.5300293c0.1799927-0.1599731,0.3599854-0.3300171,0.539978-0.4899902
			c0.4000244-0.3499756,0.8500366-0.5700073,1.4000244-0.5499878c0.2700195,0.0199585,0.5299683-0.0400391,0.789978-0.1000366
			c0.3500366-0.0899658,0.7000122-0.1699829,1.0400391-0.25c0.1599731-0.0299683,0.3199463-0.0299683,0.4699707-0.0299683
			c0.2399902,0.0100098,0.3900146,0.1300049,0.4700317,0.3399658c0.0499878,0.1300049,0.0799561,0.2700195,0.0899658,0.4200439
			C17.6003284,48.0004005,17.6003284,48.3804054,17.6003284,48.7604103z"/>
	</g>
</g>
</svg>
