<?xml version="1.0" encoding="utf-8"?>
<!-- Generator: Adobe Illustrator 27.2.0, SVG Export Plug-In . SVG Version: 6.00 Build 0)  -->
<svg version="1.1" xmlns="http://www.w3.org/2000/svg" xmlns:xlink="http://www.w3.org/1999/xlink" x="0px" y="0px"
	 viewBox="0 0 60 79" enable-background="new 0 0 60 79" xml:space="preserve">
<g id="print8">
	<g id="color1_00000178924805471681488650000007293975393790889115_">
		<path d="M52.1474686,14.7041426c-0.0599976,0.0529785-0.0328369,0.1207275-0.0333862,0.1799927
			c-0.0029297,0.2901001,0.0102539,0.5808716-0.0045776,0.8702393c-0.0101929,0.1983643,0.0587769,0.3345938,0.197998,0.4747915
			c2.5665283,2.5835571,5.1292725,5.1708374,7.6925049,7.7576294v-1.3916016
			c-2.5439453-2.5662231-5.0878906-5.1323242-7.632019-7.6983633
			C52.2998123,14.8279829,52.2456131,14.7402754,52.1474686,14.7041426z"/>
		<path d="M52.1126175,42.159893c0,0.3510742,0.0094604,0.6937866-0.0036621,1.0355225
			c-0.0075684,0.1959229,0.0519409,0.3349609,0.192688,0.4767456c2.5679932,2.5863647,5.1328125,5.1758423,7.6983643,7.7645874
			v-1.3895264c-2.5496826-2.5726929-5.0991211-5.1454468-7.649231-7.7176514
			C52.2898026,42.2680473,52.2429886,42.1837578,52.1126175,42.159893z"/>
		<path d="M11.924263,78.527626c0.0006714-0.055481,0.000061-0.1109619,0.0004883-0.1664429
			c-0.7469482-0.7475586-1.4897461-1.4991455-2.2348633-2.2485352c-0.059021-0.0593872-0.104126-0.1448364-0.2195435-0.1636963
			c0,0.3790894,0.0101929,0.7406616-0.0043945,1.1012573c-0.006958,0.1719971,0.0547485,0.2849731,0.171936,0.4013672
			c0.5159912,0.5125122,1.0261841,1.0307617,1.5370483,1.5484009h1.0600586
			c-0.0698853-0.0687256-0.1386719-0.1385498-0.2090454-0.2068481C11.9470291,78.7165298,11.9229813,78.6330948,11.924263,78.527626
			z"/>
		<path d="M6.5344315,77.1515884c0,0.4098511,0.0010376,0.8226929-0.0007324,1.2355347
			c-0.0004272,0.0955811,0.0698242,0.1428223,0.1251221,0.1992188c0.1279907,0.1306152,0.2564087,0.2607422,0.3850708,0.390625
			c0.1516724,0.0091553,0.302124,0.0230103,0.4561157,0.0230103h0.9404297
			c-0.5846558-0.5922241-1.1702881-1.1834717-1.757019-1.7736816C6.6484451,77.1910782,6.6215897,77.1363297,6.5344315,77.1515884z"
			/>
		<path d="M6.4940262,27.6570835c0.0227051-0.0212402,0.0336304-0.0266724,0.0336914-0.0322266
			c0.0032959-0.2717896-0.0140991-0.5456543,0.0130615-0.8150024c0.0046997-0.0463867-0.0006104-0.086731-0.0015869-0.1295776
			c-0.1264648-0.1279297-0.2531128-0.2556763-0.3795776-0.383606c-0.0570679-0.0578003-0.1173096-0.1113281-0.1168823-0.204834
			c0.0004272-0.092041,0-0.1851196,0.0001831-0.2772217c-2.017334-2.0273438-4.0291748-4.0600586-6.0429077-6.0910034v1.3937378
			c2.1087036,2.1278687,4.2174072,4.2557373,6.3262939,6.3834229C6.380806,27.5557041,6.4395828,27.6064854,6.4940262,27.6570835z"
			/>
		<path d="M6.5358353,55.1066704c0-0.343811-0.0100098-0.6655884,0.0043335-0.9862061
			c-0.1200562-0.1209717-0.239563-0.2424927-0.3597412-0.3633423c-0.0963135-0.0968018-0.1439819-0.1935425-0.140625-0.3331909
			c0.0012817-0.0526123-0.0003052-0.1043091,0.0004272-0.1568604c-2.0148926-2.0291138-4.0272217-4.06073-6.0402222-6.0916138
			v1.3895874c2.0929565,2.1118774,4.1856689,4.223999,6.2792358,6.3353882
			C6.3505325,54.972332,6.4087601,55.0665703,6.5358353,55.1066704z"/>
		<path d="M30.3595657,15.993083c0.0539551,0.0544424,0.0947266,0.1315908,0.2158813,0.1472769
			c0-0.374938-0.0062866-0.7424307,0.0030518-1.1096182c0.0037842-0.1484375-0.0442505-0.2528076-0.1480713-0.3574219
			c-2.862915-2.8841553-5.7227783-5.7713013-8.5844727-8.6565552c-0.0462646-0.0466309-0.0789795-0.1248779-0.1815796-0.1101685
			c0,0.354187,0.0072021,0.7067871-0.0031128,1.0588379c-0.005127,0.1745605,0.0435181,0.3017578,0.1706543,0.4296875
			C24.6770706,10.2585249,27.5172806,13.126811,30.3595657,15.993083z"/>
		<path d="M21.8300247,60.899456c-0.039978-0.0403442-0.0689087-0.1109619-0.1657104-0.0859375
			c0,0.340271,0.0097046,0.6828003-0.0037231,1.024353c-0.0076904,0.1949463,0.0484009,0.3337402,0.1896362,0.475769
			c2.8306885,2.8471031,5.6554565,5.7000694,8.4821777,8.5510826c0.0629272,0.0634766,0.1152954,0.1404419,0.2429199,0.1976929
			c0-0.4289551-0.0038452-0.8253174,0.0023804-1.2215576c0.00177-0.1164551-0.0645752-0.1810303-0.1348267-0.2518921
			C27.5720901,66.6922989,24.7016678,63.795269,21.8300247,60.899456z"/>
		<path d="M30.5745316,43.6061821c0-0.394043-0.0072021-0.7540283,0.0033569-1.1134644
			c0.0046387-0.1589355-0.0493164-0.2704468-0.1591797-0.3811646c-2.8555298-2.8771973-5.708252-5.7571411-8.5623169-8.6357422
			c-0.0469971-0.0474243-0.085144-0.1140137-0.1920776-0.1270752c0,0.3748169,0.0100098,0.734375-0.0042725,1.0929565
			c-0.0068359,0.1715698,0.0551758,0.2841187,0.1716309,0.4014282c2.8244019,2.8441772,5.6452637,5.6918945,8.4675903,8.538147
			C30.3678665,43.4504814,30.425972,43.5330009,30.5745316,43.6061821z"/>
		<path d="M60,78.8829803l-2.1325607-2.1502762c-1.8532104-1.8706055-3.7055664-3.7420044-5.5628662-5.6084595
			c-0.1393433-0.1399536-0.2050781-0.2771606-0.196228-0.475769c0.0153198-0.3416138,0.0042725-0.6844482,0.0042725-1.0413818
			c0.1268921,0.0736084,3.7296753,3.6808472,6.390686,6.3747559L60,77.5212784V78.8829803z"/>
		<path d="M51.6305618,18.4678135c-0.0007935-0.0570068,0.0025024-0.1138916,0.0022583-0.1708984
			c-2.6185303-2.6381216-5.2346802-5.2785635-7.8517456-7.9180899c-0.0475464-0.0479126-0.0880737-0.1099854-0.1871338-0.1391602
			c0,0.3733521,0.0100708,0.7244873-0.0040283,1.074646c-0.0075684,0.1878052,0.0521851,0.3181152,0.1845703,0.4512939
			c2.703125,2.7201538,5.4014282,5.4451284,8.1015625,8.168273c0.0618286,0.0623779,0.1131592,0.1397095,0.1995239,0.1732788
			c0.0667725-0.0509033,0.0407104-0.1192017,0.0412598-0.1775513c0.0024414-0.2597046-0.0010376-0.5194702,0.003479-0.7789917
			c-0.1151733-0.1165771-0.2294922-0.2340088-0.3453369-0.3499756
			C51.6792068,18.704813,51.6324539,18.6073399,51.6305618,18.4678135z"/>
		<path d="M51.6295853,73.2674942c0.0012207-0.0249634-0.0020752-0.0501099-0.0014648-0.0751343
			c-2.6240234-2.6442871-5.2457886-5.2907104-7.8689575-7.9356689c-0.0400391-0.0404053-0.0682983-0.111084-0.1652222-0.0892334
			c0,0.3138428,0.0140381,0.6299438-0.0043945,0.9441528c-0.0148926,0.2532959,0.0626221,0.4329834,0.2462769,0.6173706
			c2.6820679,2.6931152,5.3551025,5.3951416,8.031189,8.0941772c0.0625,0.0630493,0.112854,0.142395,0.2523804,0.1939697
			c0-0.3428345-0.0018311-0.6604004,0.0025024-0.9787598c-0.0981445-0.0980835-0.1953735-0.1970825-0.2936401-0.2950439
			C51.6889114,73.6043472,51.6196365,73.4672623,51.6295853,73.2674942z"/>
		<path d="M51.6235428,45.8175468c0.0009766-0.0269165-0.0004883-0.055603,0.0002441-0.0825195
			c-2.6005249-2.6168823-5.1964722-5.2382202-7.7938843-7.8582153c-0.0608521-0.0614014-0.1134644-0.135437-0.2359619-0.1925659
			c0,0.4144287,0.006958,0.7858276-0.00354,1.1567993c-0.0039673,0.1413574,0.0481567,0.2348022,0.1430664,0.3304443
			c2.7323608,2.7533569,5.4624023,5.5089722,8.1942139,8.2629395c0.0459595,0.0463257,0.079834,0.1206055,0.1900024,0.1126709
			c0-0.3167725-0.0089111-0.6312866,0.0042114-0.9447632c-0.0883179-0.0887451-0.1762085-0.1779175-0.2645874-0.2666626
			C51.7071609,46.1849174,51.6157303,46.0363579,51.6235428,45.8175468z"/>
		<path d="M37.2910843,44.0751152c-0.0971069-0.0970459-0.1401367-0.1977539-0.1387329-0.3353882
			c0.0005493-0.0553589-0.0026245-0.1107178-0.0032349-0.1660767c-2.1287842-2.1448364-4.2555542-4.2915039-6.3833008-6.4373779
			c-0.0477295-0.0481567-0.0889893-0.1089478-0.1939087-0.1442261c0,0.3648071,0.0110474,0.7058105-0.0041504,1.0455933
			c-0.0092163,0.2067871,0.0579834,0.3515625,0.2041016,0.4984131c2.2125854,2.2236328,4.4191895,4.4533081,6.6282349,6.6804199
			c0.0612793,0.0618286,0.1083374,0.145752,0.204895,0.1642456c0.0483398-0.0577393,0.0327148-0.1239014,0.0330811-0.1854248
			c0.0015869-0.2561035-0.0009155-0.5123291,0.003418-0.7682495C37.5245438,44.3098564,37.4082108,44.1921196,37.2910843,44.0751152
			z"/>
		<path d="M37.132515,71.0751724c0.001709-0.0236816-0.0007935-0.0474854,0.0001831-0.071228
			c-2.1171875-2.1307373-4.2312012-4.2645874-6.3457642-6.3978882c-0.0548096-0.0552979-0.1112671-0.1090088-0.1998901-0.1956787
			c-0.0071411,0.1062622-0.0143433,0.1656494-0.0145874,0.2250366c-0.0012207,0.2992554,0.0097656,0.598999-0.0043945,0.897583
			c-0.0085449,0.1796875,0.0556641,0.3024292,0.1793213,0.4268799c2.2180176,2.2319946,4.4320068,4.4680176,6.6479492,6.7020874
			c0.0620728,0.0626221,0.1094971,0.1467896,0.2072144,0.1686401c0.0584717-0.0721436,0.034668-0.1567383,0.0353394-0.2353516
			c0.0021362-0.2436523-0.0031738-0.4875488,0.0023193-0.7310181c-0.1039429-0.1036377-0.206665-0.2085571-0.3109131-0.3118896
			C37.1895828,71.4139175,37.1182938,71.2729874,37.132515,71.0751724z"/>
		<path d="M37.3975906,17.7647495c0.0623169,0.0628052,0.1122437,0.1425781,0.2020264,0.1746216
			c0.0616455-0.050293,0.0379639-0.1185303,0.0383301-0.1783447c0.0015259-0.2623901-0.0011597-0.5247803,0.00177-0.7870483
			c-0.1154175-0.1169434-0.2310791-0.2336426-0.3465576-0.3505249c-0.0699463-0.0708008-0.152832-0.1365356-0.1519775-0.2473755
			c0.0006714-0.0879517-0.0023804-0.1760254-0.0044556-0.2640991c-2.1343994-2.1505728-4.2669067-4.3030996-6.4009399-6.4541006
			c-0.0388794-0.0391846-0.0668945-0.1169434-0.1638794-0.072937c0,0.3566895,0.0075073,0.7189941-0.003418,1.0807495
			c-0.0048828,0.1599121,0.0530396,0.2674561,0.1629028,0.3780518
			C32.9553909,13.2822065,35.1756058,15.524394,37.3975906,17.7647495z"/>
		<path d="M43.4321365,15.5597944c0.0391235,0.0393677,0.0668945,0.1156616,0.1640625,0.0755615
			c0-0.3085327-0.0023804-0.6206665,0.0027466-0.932373c-0.1126709-0.1134033-0.2246094-0.2275391-0.3374634-0.3407593
			c-0.1104736-0.1107788-0.1646729-0.2209473-0.1601562-0.3798828c0.0013428-0.0477905-0.0003662-0.0994873,0.0004272-0.1473389
			c-0.8720093-0.8745117-1.7406616-1.7522583-2.6108398-2.62854c-0.0553589-0.0557251-0.0994873-0.1273804-0.2180786-0.1663208
			c0,0.3953857,0.0057983,0.7662354-0.0029907,1.1366577c-0.0032959,0.1381226,0.0378418,0.2360229,0.135498,0.3339844
			C41.4164505,13.5249434,42.4227982,14.5438032,43.4321365,15.5597944z"/>
		<path d="M43.2030716,69.1865005c-0.0725098-0.0651855-0.100769-0.1422119-0.0998535-0.2404785
			c0.0006714-0.0697021-0.000061-0.1389771,0.0003052-0.2086792c-0.8870239-0.8911133-1.7713013-1.7850342-2.6571045-2.6774292
			c-0.0406494-0.0409546-0.0696411-0.1072998-0.173584-0.0957031c0,0.3587036,0.0092163,0.7177734-0.0040283,1.0759888
			c-0.0063477,0.1697388,0.050354,0.2844849,0.1682739,0.4023438c0.9741211,0.9741211,1.9423828,1.9541626,2.9107056,2.934021
			c0.0634766,0.064209,0.1133423,0.1418457,0.1694946,0.2132568c0.0263062-0.0130615,0.0526123-0.0261841,0.0789185-0.0392456
			c0-0.3222046-0.0023193-0.6444092,0.0025635-0.9664917c-0.0806885-0.0811768-0.1613159-0.1624146-0.2420044-0.2435913
			C43.3056107,69.2890396,43.2569046,69.2349625,43.2030716,69.1865005z"/>
		<path d="M43.1015701,41.4861259c0.0014648-0.0665283-0.0001831-0.1339722,0.0005493-0.2005005
			c-0.8848877-0.8883057-1.7669067-1.779541-2.6508789-2.6688232c-0.0454712-0.0457153-0.0774536-0.125061-0.1784058-0.1057129
			c0,0.3540039,0.0073853,0.706604-0.0031128,1.0587158c-0.005249,0.1745605,0.0438843,0.3014526,0.1710815,0.4283447
			c0.9867554,0.9846191,1.9658813,1.9768677,2.9458618,2.9683228c0.0505981,0.0512085,0.0873413,0.1160889,0.1305542,0.1746216
			c0.0263062-0.0127563,0.0526733-0.0255737,0.0789795-0.0383301c0-0.3214111-0.0020752-0.6428223,0.0023804-0.9641724
			c-0.121521-0.1237183-0.242981-0.2474365-0.3649902-0.3707275C43.1547928,41.6881523,43.0988846,41.6104546,43.1015701,41.4861259
			z"/>
		<path d="M21.4420242,2.8484905c0.0566406,0.0571289,0.1161499,0.1114502,0.2245483,0.2150269
			c0-0.4320679-0.0062866-0.8010254,0.0030518-1.1695557c0.0037842-0.1479492-0.0432129-0.2519531-0.1473389-0.3562622
			C21.0119705,1.02653,20.504097,0.5129802,19.9956131-0.0000203H18.644783
			c0.0239868,0.0368042,0.0421753,0.074585,0.0780029,0.1103516C19.6331253,1.0191448,20.5362625,1.9350994,21.4420242,2.8484905z"
			/>
		<path d="M18.0672684,29.7971592c0.0014038-0.048584,0.0006714-0.0986938,0.0014648-0.1473999
			c-0.8015137-0.8046265-1.6002197-1.6120605-2.4005127-2.4179077c-0.0543823-0.0547485-0.0964355-0.1292725-0.2108765-0.1542969
			c0,0.378418,0.006958,0.7459106-0.0032349,1.112915c-0.0043945,0.1580811,0.0479126,0.2672729,0.1591797,0.378479
			c0.9162598,0.9157715,1.8262329,1.8378906,2.7385254,2.7576904c0.0546265,0.0550537,0.1132202,0.1060791,0.2113647,0.1975098
			c0-0.3661499-0.0036011-0.6893921,0.0018311-1.0085449c-0.1126099-0.112793-0.2246094-0.2261963-0.3373413-0.3388672
			C18.1175613,30.0666904,18.0626907,29.9561558,18.0672684,29.7971592z"/>
		<path d="M18.5611038,53.5028496c0,0.4259644,0.0044556,0.8232422-0.0026855,1.2202759
			c-0.0021362,0.1177979,0.0657959,0.180603,0.135498,0.2509155c0.9371948,0.9458008,1.8739624,1.8919678,2.8126221,2.8363037
			c0.0396729,0.039917,0.0667114,0.1141357,0.1600342,0.0858765c0-0.3598022-0.0101929-0.7218628,0.0044556-1.0829468
			c0.006958-0.171814-0.0549927-0.2843628-0.1715088-0.4009399c-0.9030151-0.9031982-1.7998657-1.812439-2.6999512-2.7185669
			C18.7374954,53.6312675,18.6867752,53.5536308,18.5611038,53.5028496z"/>
		<path d="M15.4541092,0.7506511c-0.0040283,0.1488037,0.0449219,0.251709,0.1486206,0.3556519
			c0.9342651,0.9361572,1.8632812,1.8775635,2.7952881,2.815979c0.0404663,0.0407104,0.0680542,0.1105344,0.1651611,0.0938108
			c0-0.3166502-0.0036621-0.6339109,0.003418-0.9508054C18.4411087,2.9383342,18.3154373,2.8115032,18.189949,2.68455
			c-0.0567017-0.057373-0.119812-0.1090088-0.1193237-0.2035522c0.0004883-0.0914307,0-0.1887207,0.0001831-0.2804565
			c-0.7305298-0.7317505-1.4580688-1.4662476-2.1859741-2.2005615h-0.4260254
			C15.4600296,0.2596232,15.46064,0.5088298,15.4541092,0.7506511z"/>
		<path d="M12.4176102,47.3285942c0,0.3590698,0.0090942,0.7189941-0.0039673,1.078125
			c-0.0061646,0.1695557,0.0485229,0.2854614,0.1671753,0.4039307c0.8916626,0.890564,1.7761841,1.788208,2.6641846,2.6824341
			c0.0551758,0.055542,0.0994873,0.1269531,0.2147827,0.1630859c0-0.3970337-0.0055542-0.7686157,0.0028687-1.1398926
			c0.0031128-0.1378784-0.0378418-0.2357788-0.1358643-0.3338623c-0.9163818-0.9171753-1.8275146-1.8395386-2.7415771-2.7589722
			C12.5443802,47.3824272,12.5161209,47.3133354,12.4176102,47.3285942z"/>
		<path d="M15.3268509,77.6375504c-0.911377-0.9193726-1.8223267-1.8391724-2.7346802-2.7576294
			c-0.0407715-0.0410156-0.0678101-0.1103516-0.1745605-0.0921021c0,0.3728027,0.0045166,0.7490845-0.0025024,1.1251831
			c-0.0024414,0.1282349,0.0391235,0.2190552,0.1290283,0.3092041c0.9205933,0.9229736,1.8369141,1.8502197,2.7563477,2.7744141
			c0.0009766,0.0009766,0.0019531,0.0023193,0.0029297,0.0033569h0.156311
			c-0.0004883-0.3696289-0.0040283-0.7405396,0.0025024-1.1114502
			C15.4643021,77.7709122,15.3966141,77.7079239,15.3268509,77.6375504z"/>
		<path d="M21.4790726,30.3339634c0.0469971,0.0473633,0.0859375,0.1126099,0.1875,0.1276245
			c0-0.3770752-0.0099487-0.7374878,0.0043335-1.0969238c0.0068359-0.1715698-0.0548096-0.2843628-0.1716309-0.401123
			c-0.9041748-0.90448-1.802002-1.8152466-2.703186-2.7227783c-0.0611572-0.0615845-0.1108398-0.1402588-0.2351685-0.1816406
			c0,0.4003906,0.0074463,0.7721558-0.0037842,1.1433716c-0.0042725,0.1421509,0.0473022,0.2355957,0.1424561,0.3311157
			C19.6278152,28.4653111,20.5523758,29.4007359,21.4790726,30.3339634z"/>
		<path d="M18.0697708,57.3517265c0.0006714-0.0814819,0.0004272-0.1656494,0.0007324-0.2476196
			c-0.8110352-0.8189697-1.6220093-1.6378174-2.4350586-2.4547729c-0.0446777-0.0448608-0.0752563-0.1323853-0.1781006-0.0955811
			c0,0.3616333,0.0076294,0.7241821-0.003479,1.0861206c-0.0049438,0.1594238,0.0498657,0.2672119,0.1607666,0.3781128
			c0.9170532,0.9171753,1.8278809,1.8405762,2.7409668,2.7616577c0.050415,0.0509033,0.1043091,0.0982666,0.2072754,0.1947632
			c0-0.3731689-0.0008545-0.7030029,0.0007324-1.0272217c-0.1217651-0.1225586-0.2437134-0.2449951-0.3654785-0.3675537
			C18.1345291,57.5156059,18.0689163,57.456768,18.0697708,57.3517265z"/>
		<path d="M15.2497635,24.048624c0.0507202,0.0511475,0.104248,0.0995483,0.2089233,0.1990967
			c0-0.4765625-0.0012207-0.8894043,0.0009155-1.3022461c0.0004883-0.0963745-0.0701294-0.1428833-0.1255493-0.1989136
			c-0.9172363-0.927124-1.8353271-1.8534546-2.7548218-2.7783813c-0.0394897-0.0396729-0.067749-0.1143188-0.1616211-0.0789795
			c0,0.3583984,0.007019,0.7194214-0.0032959,1.0799561c-0.0044556,0.1572266,0.0437622,0.2681885,0.1554565,0.3798218
			C13.4666214,22.2454014,14.3570633,23.1481113,15.2497635,24.048624z"/>
		<path d="M11.9317093,51.2328911c-0.0003662-0.1049194-0.0007324-0.2098999-0.0010986-0.3148193
			c-0.7418213-0.7431641-1.4801025-1.4896851-2.2200317-2.2346802c-0.062439-0.0629272-0.1149902-0.1384277-0.2402344-0.1972656
			c0,0.4003906,0.0070801,0.7699585-0.003418,1.1389771c-0.0042114,0.1497192,0.0476074,0.2514648,0.1505127,0.3546143
			c0.8825073,0.8843994,1.7598877,1.7738647,2.640625,2.6599731c0.0396729,0.039917,0.0654907,0.1136475,0.161499,0.090271
			c0-0.3265381-0.0048218-0.6549072,0.0036011-0.982666c-0.1497803-0.151123-0.2996826-0.3021851-0.4494629-0.4533081
			C11.9597244,51.2736626,11.9456863,51.2532768,11.9317093,51.2328911z"/>
		<path d="M9.4727249,26.4457188c0-0.3154907-0.0025635-0.6328735,0.0027466-0.9498901
			c-0.1135254-0.1144409-0.2260132-0.2299194-0.3400269-0.343811c-0.1110229-0.1108398-0.1625977-0.2224731-0.1583252-0.380127
			c0.0012207-0.045105-0.0003662-0.0896606,0.0003662-0.1347656c-0.7542114-0.7567139-1.5056763-1.5162964-2.2577515-2.2752075
			c-0.0440063-0.0443726-0.0906372-0.0861206-0.1859131-0.1762695c0,0.4680786,0.0029297,0.8729248-0.0019531,1.2776489
			c-0.0013428,0.1065674,0.0637207,0.1630249,0.1268311,0.2266846c0.8856201,0.8933105,1.770813,1.7869263,2.65802,2.6785889
			C9.3552322,26.4073277,9.3820267,26.4853916,9.4727249,26.4457188z"/>
		<path d="M12.1958084,25.128458c0.0560303,0.0565186,0.1152344,0.1098633,0.2233887,0.2125854
			c0-0.3730469-0.0004883-0.7019653,0.0006104-1.0250244c-0.1147461-0.1150513-0.2290039-0.2305908-0.3438721-0.34552
			c-0.102417-0.102478-0.1582642-0.2042236-0.1537476-0.355835c0.0014648-0.0495605-0.0003662-0.0991821,0.0004883-0.1487427
			c-0.7714233-0.7783203-1.5424805-1.5569458-2.3145752-2.3346558c-0.0337524-0.0339966-0.0632324-0.0974731-0.1377563-0.0483398
			c0,0.3585815,0.0078735,0.7211914-0.0036011,1.0831909c-0.0050049,0.1600342,0.0521851,0.2667847,0.1625366,0.3770752
			C10.4882278,23.4015293,11.3408279,24.2661533,12.1958084,25.128458z"/>
		<path d="M8.9776077,52.2957573c0.0012207-0.0671387-0.0001831-0.1380615,0.0004272-0.2053833
			c-0.7596436-0.7665405-1.5189819-1.5331421-2.2797852-2.2984619c-0.039917-0.0401611-0.0678711-0.112793-0.1646729-0.0828247
			c0,0.3488159,0.0079346,0.7004395-0.0033569,1.0514526c-0.0056152,0.175415,0.0454712,0.3015747,0.1722412,0.4278564
			c0.8476562,0.8438721,1.6865234,1.6965942,2.52948,2.5452271c0.0622559,0.0626831,0.1138306,0.1395264,0.2407227,0.1931152
			c0-0.3446045-0.0004883-0.6641846,0.0021973-0.9855347c-0.1209106-0.121521-0.2416992-0.2431641-0.3626709-0.364624
			C9.0329666,52.4969902,8.9753494,52.4192924,8.9776077,52.2957573z"/>
		<path d="M40.2750931,43.9152031c0-0.3398438-0.0023193-0.656311,0.0029297-0.9735107
			c-0.1005859-0.1008911-0.2001343-0.2028198-0.3009033-0.3035278c-0.138916-0.138855-0.2073975-0.2746582-0.1980591-0.4744873
			c0.0012817-0.0274048-0.0006104-0.0558472,0.0003662-0.083252c-0.6439819-0.6463013-1.2858887-1.2947998-1.9291992-1.9417725
			c-0.0542603-0.0546265-0.0966797-0.1281738-0.1811523-0.147644c-0.0593872,0.0541992-0.0342407,0.1207886-0.034668,0.1798706
			c-0.0021362,0.2895508,0.008606,0.5794067-0.0036621,0.8684082c-0.0078735,0.1852417,0.0480347,0.3196411,0.1817017,0.4525146
			c0.7571411,0.7525024,1.5047607,1.5145874,2.2566528,2.2724609C40.1188431,43.814373,40.1590042,43.8777885,40.2750931,43.9152031
			z"/>
		<path d="M40.1322708,16.3761997c0.0340576,0.0342407,0.0606689,0.0966187,0.1427612,0.0611572
			c0-0.3093872-0.0024414-0.6225576,0.0029297-0.9354849c-0.105835-0.105957-0.2110596-0.2125854-0.3170166-0.3184204
			c-0.1233521-0.1231689-0.1888428-0.2453613-0.1815796-0.4262085c0.0016479-0.0405884-0.0005493-0.0845947,0.0004883-0.1252441
			c-0.640564-0.6422729-1.2783813-1.2875977-1.9177246-1.9312744c-0.0559082-0.0562744-0.0995483-0.1306152-0.2285156-0.1636353
			c0,0.4313965,0.0002441,0.8374023-0.0001831,1.2434692c-0.000061,0.0932617,0.0671997,0.144104,0.1239624,0.201416
			C38.5485916,14.7804365,39.3397903,15.5789595,40.1322708,16.3761997z"/>
		<path d="M39.7805252,69.6518936c0.0010376-0.0397339-0.0003662-0.0808105,0.0003052-0.1205444
			c-0.6595459-0.6619873-1.3170166-1.3262329-1.9759521-1.9888916c-0.0404663-0.0406494-0.0686646-0.111084-0.1717529-0.0883789
			c0,0.3469849,0.0068359,0.6984253-0.0029297,1.0493774c-0.0048218,0.1746826,0.0444946,0.3030396,0.1724243,0.4299927
			c0.7580566,0.7521362,1.5063477,1.5141602,2.2593384,2.2714233c0.0546875,0.0549316,0.0971069,0.1287842,0.2130737,0.1565552
			c0-0.3425293-0.0020752-0.6636963,0.0026855-0.9854126c-0.1135254-0.1141968-0.2263794-0.229187-0.3400269-0.3432617
			C39.8266678,69.9213028,39.7764359,69.8093033,39.7805252,69.6518936z"/>
		<path d="M6.5357742,0.2701823c0-0.0665283,0.0006714-0.2033691,0.0004883-0.2702026C6.4626799,0,6.3350205-0.0042009,6.1613035,0
			c0.0437622,0.0440674,0.2133989,0.195048,0.2571611,0.2391154C6.4467239,0.2675578,6.4754715,0.3144328,6.5357742,0.2701823z"/>
	</g>
	<g id="color2_00000116916441600512942680000001660257150309919134_">
		<path fill="#515151" d="M51.8869095,44.9677544c-0.0706787-0.0710449-0.1270142-0.1693115-0.2601929-0.1962891
			c0,0.3343506,0.005249,0.6490479-0.0029297,0.963562c0.0953979,0.0960083,0.1905518,0.1923828,0.2860107,0.2883911
			c0.152832,0.1537476,0.2235107,0.3062744,0.2123413,0.5234985c-0.0009155,0.0183716,0.0005493,0.0370483-0.0002441,0.0554199
			c1.7338867,1.7423096,3.4628906,3.4893799,5.1934814,5.2348633c0.8946533,0.9023438,1.789856,1.8040771,2.6846313,2.7062988
			v-1.4060669c-0.9534912-0.961731-1.9065552-1.9238892-2.8604736-2.8851929
			C55.3900833,48.4892998,53.6388626,46.7281303,51.8869095,44.9677544z"/>
		<path fill="#515151" d="M51.9097977,46.0234184c-0.095459-0.0960083-0.1906128-0.1923828-0.2860107-0.2883911
			c-0.0007324,0.0269165,0.0007324,0.055603-0.0002441,0.0825195c-0.0078125,0.218811,0.0836182,0.3673706,0.2337646,0.5181274
			c0.0883789,0.0887451,0.1762695,0.1779175,0.2645874,0.2666626c0.0007935-0.0183716-0.0006714-0.0370483,0.0002441-0.0554199
			C52.1333084,46.3296928,52.0626297,46.177166,51.9097977,46.0234184z"/>
		<path fill="#515151" d="M53.7146072,19.3683872c-0.6705322-0.6751099-1.3393555-1.3518066-2.0089722-2.027771
			c-0.0200195-0.0039062-0.039978-0.0078735-0.0599976-0.0119019c-0.0109253,0.3225708-0.0141602,0.6452637-0.0128174,0.9682007
			c0.1085815,0.109375,0.21698,0.2189331,0.3255615,0.3283081c0.1094971,0.1103516,0.168396,0.2197266,0.1625977,0.3797607
			c-0.00177,0.0484619,0.0001831,0.0971069-0.0006714,0.1456299c0.3560181,0.3604126,0.7109375,0.7219238,1.0675659,1.0817871
			c2.1687622,2.1884766,4.3377686,4.37677,6.5079346,6.5639038c0.1013184,0.1021118,0.2028198,0.2041626,0.3041992,0.3062744
			v-1.4058838c-0.2555542-0.2576904-0.5108032-0.515625-0.7664185-0.7732544
			C57.3950272,23.0707188,55.5539627,21.2203159,53.7146072,19.3683872z"/>
		<path fill="#515151" d="M51.9583817,18.6252232c-0.1085815-0.109375-0.21698-0.2189331-0.3255615-0.3283081
			c0.0002441,0.0570068-0.0030518,0.1138916-0.0022583,0.1708984c0.0018921,0.1395264,0.048645,0.2369995,0.1444092,0.3328247
			c0.1158447,0.1159668,0.2301636,0.2333984,0.3453369,0.3499756c0.0008545-0.0485229-0.0010986-0.097168,0.0006714-0.1456299
			C52.1267776,18.8449497,52.0678787,18.7355747,51.9583817,18.6252232z"/>
		<path fill="#515151" d="M8.9805984,78.5630264c0,0.1452026,0,0.2913208,0,0.4369507h0.5103149
			c-0.116272-0.1166992-0.2316284-0.234314-0.3484497-0.3505249C9.1019363,78.609108,9.073494,78.5372696,8.9805984,78.5630264z"/>
		<path fill="#515151" d="M5.1824417,56.9052544c0.2709351,0.2748413,0.5435181,0.5479736,0.861145,0.8678589
			c0-0.480835-0.0011597-0.894165,0.0009155-1.3074341c0.0004272-0.0941162-0.0615234-0.1462402-0.1177368-0.2044678
			c-0.1636353-0.1695557-0.3255005-0.3408813-0.491394-0.5082397c-1.8114016-1.8278198-3.6230471-3.6553955-5.4353638-5.4824219
			v1.4058228c1.588501,1.6000366,3.1782227,3.1987915,4.7669678,4.7985229
			C4.9074783,56.616375,5.0424881,56.7632866,5.1824417,56.9052544z"/>
		<path fill="#515151" d="M5.8122025,30.0890293c0.0609741,0.0613403,0.1141357,0.1351929,0.2323608,0.1879272
			c0-0.3792114-0.0090332-0.729248,0.0036621-1.0785522c0.0067749-0.1862183-0.0491333-0.3204346-0.1819458-0.4537964
			c-1.5611572-1.567627-3.1155398-3.1419067-4.6738281-4.7124023c-0.3972167-0.4003296-0.7950439-0.8000488-1.1924438-1.2001953
			v1.4055786c0.3076782,0.3102417,0.6150513,0.6207886,0.9227905,0.9309692
			C2.551338,26.8099155,4.1818924,28.4493809,5.8122025,30.0890293z"/>
		<path fill="#515151" d="M25.4257278,14.1377363c1.4621582,1.473938,2.9259644,2.9462271,4.390686,4.4176016
			c0.0707397,0.0710449,0.1273804,0.1698608,0.2646484,0.1951294c0-0.4460449,0-0.8694458,0-1.2928467
			c-0.0130615-0.0198975-0.026123-0.039856-0.0391846-0.0596924c-0.0497437-0.0527344-0.0983276-0.1066284-0.149353-0.1580811
			c-1.5756836-1.5910635-3.1509399-3.1824942-4.7277832-4.7723989c-1.2449341-1.255249-2.4915771-2.508728-3.7385864-3.7619019
			c-0.067627-0.0680542-0.1254272-0.1505737-0.2524414-0.2122803c0,0.3870239,0.0088501,0.7453003-0.0037842,1.1028442
			c-0.0062866,0.1782227,0.0518799,0.3027954,0.1768188,0.4281616
			C22.7094193,11.392375,24.0657425,12.7668867,25.4257278,14.1377363z"/>
		<path fill="#515151" d="M25.7300491,67.9230728c-1.4295654-1.4435425-2.8587036-2.8874512-4.2897339-4.329464
			c-0.0715942-0.0721436-0.1282959-0.171814-0.2666016-0.1986694c0,0.37146,0.0093994,0.7237511-0.0037842,1.0751305
			c-0.0070801,0.1879883,0.0559692,0.3198853,0.187561,0.4516602c1.5253296,1.5274658,3.0454102,3.0601196,4.5668335,4.5914917
			c0.3260498,0.328186,0.6519165,0.6564941,0.9776001,0.9849243c1.0281982,1.0366821,2.0562744,2.0734863,3.0843506,3.1102905
			c0.0333252-0.0049438,0.0666504-0.0098267,0.0998535-0.0147705c0.0007935-0.3446655-0.0064087-0.6895752,0.0059814-1.0337524
			c0.0060425-0.168396-0.0479126-0.286438-0.1665649-0.4055786C28.5240555,70.7469254,27.1276932,69.3343277,25.7300491,67.9230728z
			"/>
		<path fill="#515151" d="M28.7494583,44.9201469c0.4151611,0.4179688,0.8286743,0.8375854,1.2429199,1.2564697
			c0.0311279-0.0025635,0.0621948-0.0050659,0.0932617-0.0076294c0.0009766-0.3626099-0.003418-0.7253418,0.0057373-1.0877075
			c0.003479-0.1387939-0.0408325-0.2382202-0.138916-0.3346558c-0.2714233-0.2667847-0.5318604-0.5447388-0.7998657-0.8150635
			c-2.5978394-2.6201172-5.196228-5.2396851-7.7957764-7.8581543c-0.046875-0.0471802-0.0803833-0.123291-0.1831055-0.1158447
			c0,0.373291,0.0056152,0.7436523-0.0028076,1.1137085c-0.0032959,0.1470337,0.0410156,0.2537231,0.145813,0.3585205
			c0.6281128,0.6281738,1.2481079,1.2644653,1.8739624,1.8948975
			C25.0428543,41.1905937,26.8966751,43.0548515,28.7494583,44.9201469z"/>
		<path fill="#515151" d="M51.4287796,76.0785294c-0.9036865-0.9039917-1.7984619-1.8168945-2.6989136-2.7241821
			c-1.8201904-1.8339844-3.6420288-3.6663818-5.4644775-5.4981079c-0.0394287-0.0396118-0.0687256-0.114624-0.1605835-0.0759277
			c0,0.3175049,0.0003052,0.6373291-0.0012817,0.9570312c0.1168213,0.1173706,0.2329712,0.2353516,0.3499146,0.3526001
			c0.1044922,0.1047363,0.149231,0.2096558,0.1456909,0.3567505c-0.0010986,0.0457764,0.0003052,0.0916138-0.0003662,0.1373901
			c1.3954468,1.40448,2.7913818,2.8085327,4.1862793,4.213501c1.2518311,1.2609863,2.5024414,2.5231323,3.75354,3.78479
			c0.0310669-0.006897,0.0621338-0.0137329,0.0931396-0.0206909c0.0088501-0.3443604-0.0022583-0.6882935-0.0094604-1.0324707
			C51.6183548,76.3416519,51.5602493,76.2100601,51.4287796,76.0785294z"/>
		<path fill="#515151" d="M43.4534378,69.0899429c-0.1169434-0.1172485-0.2330933-0.2352295-0.3499146-0.3526001
			c-0.0003662,0.0697021,0.0003662,0.1389771-0.0003052,0.2086792c-0.0009155,0.0982666,0.0273438,0.175293,0.0998535,0.2404785
			c0.053833,0.0484619,0.1025391,0.1025391,0.1536865,0.1539917c0.0806885,0.0811768,0.1613159,0.1624146,0.2420044,0.2435913
			c0.0006714-0.0457764-0.0007324-0.0916138,0.0003662-0.1373901C43.6026688,69.2995987,43.55793,69.1946793,43.4534378,69.0899429z
			"/>
		<path fill="#515151" d="M43.5993729,14.5568037c-0.0013428,0.0488892,0.0003662,0.09729-0.0004272,0.1461792
			c0.7879028,0.7929077,1.5725098,1.5891104,2.3596802,2.3827505c1.8634644,1.8787231,3.7283325,3.7559814,5.5926514,5.6338501
			c0.0261841-0.0026245,0.0523682-0.005249,0.0784302-0.0079346c-0.0044556-0.3348999-0.0230103-0.6703491-0.0083008-1.0043335
			c0.0100708-0.227356-0.062439-0.3867188-0.2234497-0.5480957c-1.7213745-1.7260132-3.4345093-3.4602051-5.1508789-5.1911612
			c-0.9699097-0.9780884-1.9414062-1.9546509-2.9129639-2.9311523c-0.0610352-0.0612793-0.1142578-0.1348877-0.2294922-0.1888428
			c0,0.3465576,0.0025635,0.6664429-0.0028687,0.9869385c0.1135864,0.1139526,0.2263794,0.2286987,0.3401489,0.3424683
			C43.5535965,14.2891645,43.6037064,14.399333,43.5993729,14.5568037z"/>
		<path fill="#515151" d="M43.2614822,14.3622236c0.112854,0.1132202,0.2247925,0.227356,0.3374634,0.3407593
			c0.0007935-0.0488892-0.0009155-0.09729,0.0004272-0.1461792c0.0043335-0.1574707-0.0457764-0.2676392-0.1574707-0.3793335
			c-0.1137695-0.1137695-0.2265625-0.2285156-0.3401489-0.3424683c-0.0007935,0.0478516,0.0009155,0.0995483-0.0004272,0.1473389
			C43.0968094,14.1412764,43.1510086,14.2514448,43.2614822,14.3622236z"/>
		<path fill="#515151" d="M43.1046829,40.3130302c0,0.3269653,0.0009766,0.6496582-0.0025635,0.9725952
			c0.118042,0.1185303,0.2354126,0.2377319,0.3536377,0.3560791c0.1054688,0.1055908,0.1464844,0.211792,0.1431885,0.3578491
			c-0.0010376,0.0463257,0.0003052,0.0927124-0.0003662,0.1390381c0.2977295,0.3031006,0.5949707,0.6067505,0.8942871,0.9082642
			c1.833374,1.8466187,3.6681519,3.6918335,5.5018921,5.5380859c0.517395,0.5209351,1.03302,1.0437012,1.5494995,1.5656128
			c0.0198975,0.0045776,0.039856,0.0091553,0.0598145,0.013855c0.0108643-0.34375,0.0183716-0.6877441,0.0338745-1.0313721
			c0.008728-0.1937866-0.055481-0.3412476-0.197937-0.4799805c-0.3961182-0.3856201-0.776001-0.7879028-1.1652832-1.1806641
			c-2.3232422-2.3438721-4.6470947-4.6871338-6.9723511-7.0289917
			C43.2504349,40.3910332,43.2138138,40.305645,43.1046829,40.3130302z"/>
		<path fill="#515151" d="M43.4557571,41.6417046c-0.1182251-0.1183472-0.2355957-0.2375488-0.3536377-0.3560791
			c-0.0007324,0.0665283,0.0009155,0.1339722-0.0005493,0.2005005c-0.0026855,0.1243286,0.0532227,0.2020264,0.132019,0.2817383
			c0.1220093,0.123291,0.2434692,0.2470093,0.3649902,0.3707275c0.0006714-0.0463257-0.0006714-0.0927124,0.0003662-0.1390381
			C43.6022415,41.8534966,43.5612259,41.7472954,43.4557571,41.6417046z"/>
		<path fill="#515151" d="M37.0627518,47.9782524c0.0215454,0.0039062,0.0430908,0.0078125,0.0646362,0.0118408
			c0.0651855-0.350769,0.0097656-0.7053223,0.0319824-1.057251c0.0112305-0.1774902-0.0536499-0.305603-0.1792603-0.4308472
			c-0.6676025-0.6658936-1.3256226-1.3414307-1.9898682-2.0107422c-1.5712891-1.583374-3.144043-3.1653442-4.7177734-4.7462769
			c-0.0462036-0.0463867-0.078064-0.1278687-0.1860352-0.1044922c0,0.3602295,0.0062256,0.7220459-0.0028687,1.0834961
			c-0.0039673,0.1567993,0.0310669,0.28302,0.156189,0.3822632c0.0494385,0.0391846,0.090271,0.0890503,0.1350708,0.1340942
			c1.2463379,1.2543335,2.493103,2.5081787,3.7388916,3.7630615C35.0974197,45.9943657,36.0797806,46.9866142,37.0627518,47.9782524
			z"/>
		<path fill="#515151" d="M30.1122513,13.4858809c0.0872192,0.2019653,0.2880859,0.3431396,0.4472656,0.5033569
			c1.8643188,1.8768921,3.729187,3.7532339,5.5935059,5.630065c0.3063965,0.3084106,0.611084,0.6184692,0.9165649,0.9277344
			c0.0181274,0.00354,0.0361938,0.0070801,0.0543213,0.0106812c0.0633545-0.3962402,0.0292358-0.7945557,0.0244751-1.1921997
			c-0.0011597-0.0949097-0.0421753-0.1708374-0.1110229-0.2386475c-0.135376-0.1334229-0.2623291-0.2753906-0.3961792-0.4104614
			c-2.1172485-2.1363525-4.2348022-4.2722769-6.3534546-6.4071646c-0.0474243-0.0477295-0.0847168-0.1194458-0.2012939-0.1131592
			c0,0.2163086-0.0032349,0.4301758,0.0009155,0.6439819C30.0914993,13.0569258,30.028511,13.2919722,30.1122513,13.4858809z"/>
		<path fill="#515151" d="M33.4096146,70.3503189c-1.085022-1.0932007-2.1688843-2.187439-3.2532959-3.28125
			c-0.0210571-0.0010376-0.0421753-0.0021362-0.0632935-0.0032349c-0.0021973,0.3622437,0.0033569,0.7248535-0.0100098,1.086731
			c-0.0062256,0.1688232,0.0498047,0.2863159,0.1680908,0.4046631c0.7687988,0.7687988,1.5289917,1.5460815,2.2947998,2.3179321
			c1.4741821,1.4858398,2.9500122,2.9701538,4.4265747,4.4537354c0.0400391,0.0402222,0.0686035,0.111145,0.1739502,0.0845947
			c0.0189209-0.326416,0.0010986-0.6588135,0.0064087-0.9909668c0.0040283-0.2496948-0.1022949-0.4157715-0.2722778-0.585022
			C35.7184525,72.6802139,34.564949,71.5143204,33.4096146,70.3503189z"/>
		<path fill="#515151" d="M4.4229426-0.0000203l0.5074849,0.4614258c0.3220825,0.3277588,0.6435547,0.6562501,0.96875,0.9810181
			c0.1036987,0.1035767,0.1521606,0.2084961,0.1484375,0.3568115C6.0383377,2.1699626,6.0445633,2.5409954,6.0445633,2.908427
			C5.9637527,2.9376628,5.9367752,2.877238,5.9021072,2.8423259C5.2556229,2.1906536,4.6095657,1.538615,3.9632032,0.8868205
			L3.0186875-0.0000203H4.4229426z"/>
		<path fill="#515151" d="M57.1303902,79c-0.3430786-0.3493042-1.6959343-1.6319809-2.0407219-1.9796371
			c-0.9874878-0.9957275-1.975708-1.9908447-2.9677734-2.9819946c0.0006714-0.0518188-0.0007935-0.1075439,0.0004272-0.1592407
			c0.0032959-0.1400146-0.0466309-0.2355957-0.1428833-0.3325195c-0.1171265-0.118042-0.2341919-0.2362061-0.3513184-0.354248
			c0.0053101-0.2279053-0.0098267-0.456665-0.0130615-0.6851196c-0.0013428-0.0975952-0.0167847-0.1997681,0.0657959-0.3170166
			c1.7637939,1.7802734,3.5219727,3.5549316,5.2796631,5.3290405L58.5033035,79H57.1303902z"/>
		<path fill="#515151" d="M51.9794388,73.546608c-0.1171265-0.118042-0.2341919-0.2362061-0.3513184-0.354248
			c-0.0006104,0.0250244,0.0026855,0.0501709,0.0014648,0.0751343c-0.0099487,0.1997681,0.0593262,0.336853,0.1986694,0.4758301
			c0.0982666,0.0979614,0.1954956,0.1969604,0.2936401,0.2950439c0.0006714-0.0518188-0.0007935-0.1075439,0.0004272-0.1592407
			C52.125618,73.7391129,52.0756912,73.6435318,51.9794388,73.546608z"/>
		<path fill="#515151" d="M40.278511,42.7834892c-0.0014648,0.0514526,0.0003662,0.1066895-0.0004883,0.1582031
			c0.8530884,0.8556519,1.7014771,1.7160034,2.552063,2.5741577c0.0733032,0.0739136,0.1362305,0.1642456,0.276123,0.2230225
			c0-0.3876343-0.0090942-0.7462769,0.0038452-1.104126c0.0064697-0.178833-0.0529785-0.3037109-0.1778564-0.4283447
			c-0.9818726-0.9797363-1.9573975-1.9658813-2.9362183-2.9487305c-0.0545654-0.0548096-0.09729-0.1289673-0.2124023-0.1534424
			c0,0.3322754,0.006958,0.654541-0.0041504,0.9761963c0.1159058,0.116333,0.2310791,0.2333374,0.347168,0.3494263
			C40.2290726,42.5323296,40.2828445,42.6334648,40.278511,42.7834892z"/>
		<path fill="#515151" d="M39.9771194,42.6381645c0.100769,0.100708,0.2003174,0.2026367,0.3009033,0.3035278
			c0.0008545-0.0515137-0.0009766-0.1067505,0.0004883-0.1582031c0.0043335-0.1500244-0.0494385-0.2511597-0.1519165-0.3536377
			c-0.1160889-0.1160889-0.2312622-0.2330933-0.347168-0.3494263c-0.0009766,0.0274048,0.0009155,0.0558472-0.0003662,0.083252
			C39.769722,42.3635063,39.8382034,42.4993095,39.9771194,42.6381645z"/>
		<path fill="#515151" d="M40.278389,15.3581953c-0.0014038,0.0480347,0.0004272,0.0956421-0.0004272,0.1436768
			c0.8736572,0.8746939,1.7442017,1.7523184,2.6165161,2.6281729c0.0543823,0.0545654,0.0963745,0.1299438,0.211731,0.1500244
			c0-0.368042-0.0098267-0.7268066,0.0040894-1.0846558c0.007019-0.1801147-0.0561523-0.3029175-0.1801147-0.4265747
			c-0.9744263-0.9727774-1.9429321-1.9515371-2.9140625-2.9276114c-0.0609741-0.0613403-0.1140137-0.1351318-0.2325439-0.1882935
			c0,0.343811,0.0044556,0.6613159-0.0037231,0.9790649c0.1147461,0.1150513,0.2283936,0.2311401,0.3434448,0.3458862
			C40.2353592,15.0896406,40.2829056,15.2008467,40.278389,15.3581953z"/>
		<path fill="#515151" d="M39.9609451,15.1834517c0.105957,0.105835,0.2111816,0.2124634,0.3170166,0.3184204
			c0.0008545-0.0480347-0.0009766-0.0956421,0.0004272-0.1436768c0.0045166-0.1573486-0.0430298-0.2685547-0.1550903-0.3803101
			c-0.1150513-0.1147461-0.2286987-0.230835-0.3434448-0.3458862c-0.0010376,0.0406494,0.0011597,0.0846558-0.0004883,0.1252441
			C39.7721024,14.9380903,39.8375931,15.0602827,39.9609451,15.1834517z"/>
		<path fill="#515151" d="M39.9943924,68.6929092c-0.0546265-0.0551147-0.0979614-0.1283569-0.2108154-0.1564941
			c0,0.3389893,0.0029297,0.6669922-0.0027466,0.9949341c0.1196899,0.1201172,0.2386475,0.2409668,0.3585815,0.3609009
			c0.097229,0.097229,0.1420898,0.1933594,0.1387329,0.3323975c-0.0012207,0.0493164,0.0003052,0.1019897-0.0004272,0.1513672
			c0.8707275,0.8759766,1.7384644,1.7546997,2.607605,2.6321411c0.0561523,0.0567017,0.1026001,0.1263428,0.2208862,0.1743164
			c0-0.3963013-0.0059814-0.7670898,0.0029297-1.1375732c0.00354-0.1479492-0.0437622-0.2532349-0.147644-0.357605
			C41.9701004,70.6915054,40.9835892,69.690834,39.9943924,68.6929092z"/>
		<path fill="#515151" d="M40.1394119,69.8922501c-0.1199341-0.1199341-0.2388916-0.2407837-0.3585815-0.3609009
			c-0.0006714,0.0397339,0.0007324,0.0808105-0.0003052,0.1205444c-0.0040894,0.1574097,0.0461426,0.2694092,0.1571655,0.3808594
			c0.1136475,0.1140747,0.2265015,0.2290649,0.3400269,0.3432617c0.0007324-0.0493774-0.0007935-0.1020508,0.0004272-0.1513672
			C40.2815018,70.0856094,40.2366409,69.9894791,40.1394119,69.8922501z"/>
		<path fill="#515151" d="M15.4042435,57.5025444c-0.1251831-0.1265869-0.25177-0.251709-0.3777466-0.3775635
			c-0.0197754,0.010437-0.0394897,0.0209351-0.0592651,0.0313721c0,0.3700562,0.006958,0.7403564-0.0033569,1.1101074
			c-0.0042114,0.1500244,0.0479736,0.2531738,0.1508789,0.3562012c0.9341431,0.9345703,1.8638306,1.8735352,2.7963867,2.8096924
			c0.0400391,0.0401611,0.0686646,0.1130371,0.1610107,0.0828857c0-0.3503418-0.0095215-0.7032471,0.0039062-1.0552368
			c0.0071411-0.1879883-0.0562744-0.3182373-0.1881714-0.4498901C17.0554276,59.178875,16.2313309,58.3392143,15.4042435,57.5025444
			z"/>
		<path fill="#515151" d="M18.0687332,29.6497593c0.1127319,0.1131592,0.2247314,0.2270508,0.3376465,0.3400879
			c0.1102295,0.1103516,0.1646729,0.2197266,0.1600952,0.3783569c-0.0014038,0.0485229-0.0006714,0.0987549-0.0014648,0.1473999
			c0.8146362,0.815979,1.626709,1.6344624,2.4402466,2.451479c0.0413208,0.0414429,0.0709229,0.1074829,0.1702271,0.098938
			c0-0.3592529-0.0098877-0.7186279,0.0041504-1.0770283c0.007019-0.1801147-0.0568848-0.302124-0.1802979-0.4257812
			c-0.8567505-0.8583374-1.706604-1.7234497-2.5603027-2.5848389c-0.1011963-0.1021118-0.1914062-0.2171631-0.3684692-0.3294067
			C18.0705643,29.0073643,18.0741653,29.3302402,18.0687332,29.6497593z"/>
		<path fill="#515151" d="M18.4063797,29.9898472c-0.112915-0.1130371-0.2249146-0.2269287-0.3376465-0.3400879
			c-0.0007935,0.0487061-0.000061,0.0988159-0.0014648,0.1473999c-0.0045776,0.1589966,0.050293,0.2695312,0.1604004,0.3795776
			c0.1127319,0.1126709,0.2247314,0.2260742,0.3373413,0.3388672c0.0007935-0.048645,0.000061-0.098877,0.0014648-0.1473999
			C18.5710526,30.2095737,18.5166092,30.1001987,18.4063797,29.9898472z"/>
		<path fill="#515151" d="M17.8593216,6.4934487c0.0543213,0.0545654,0.0966797,0.1294556,0.2128296,0.1502686
			c0-0.3874512-0.0059204-0.7643433,0.0029907-1.1408691c0.0033569-0.140564-0.0478516-0.2365112-0.1436768-0.3324585
			c-0.9353027-0.9364014-1.8667603-1.8766477-2.8009033-2.8142087c-0.0402832-0.0404663-0.0692139-0.1126099-0.1633911-0.0846558
			c0,0.359314,0.0087891,0.7211914-0.0038452,1.0823364c-0.0059204,0.1702881,0.0532227,0.2860107,0.1709595,0.4033813
			C16.045723,4.6662393,16.9508743,5.5815225,17.8593216,6.4934487z"/>
		<path fill="#515151" d="M21.1792679,59.4302177c0.0065918-0.1787109-0.0527344-0.3035278-0.1777344-0.4281006
			c-0.9116211-0.9086914-1.8167114-1.8239746-2.7242432-2.7368164c-0.050415-0.0507202-0.1043701-0.0979004-0.2061768-0.1929932
			c0,0.3741455,0.0005493,0.7056274-0.0006104,1.0317993c0.1207275,0.1219482,0.2418823,0.2435913,0.3626099,0.3655396
			c0.0621948,0.0628662,0.1328125,0.1173706,0.1315918,0.2250366c-0.0009155,0.0830688-0.0006714,0.1688843-0.0010986,0.2525024
			c0.8173828,0.8228149,1.6345215,1.645752,2.4532471,2.467041c0.0384521,0.0385742,0.0667114,0.116272,0.1586304,0.0725708
			C21.1754837,60.1364555,21.1663284,59.7829399,21.1792679,59.4302177z"/>
		<path fill="#515151" d="M18.4331131,57.4696465c-0.1207275-0.1219482-0.2418823-0.2435913-0.3626099-0.3655396
			c-0.0003052,0.0819702-0.000061,0.1661377-0.0007324,0.2476196c-0.0008545,0.1050415,0.0647583,0.1638794,0.1283569,0.2279053
			c0.1217651,0.1225586,0.2437134,0.2449951,0.3654785,0.3675537c0.0004272-0.0836182,0.0001831-0.1694336,0.0010986-0.2525024
			C18.5659256,57.5870171,18.4953079,57.5325127,18.4331131,57.4696465z"/>
		<path fill="#515151" d="M18.0721512,34.0703545c0-0.3624268-0.0064697-0.7224121,0.0030518-1.0819702
			c0.0041504-0.1571655-0.0450439-0.2698364-0.1563721-0.3814697c-0.9155884-0.9183369-1.8251953-1.8426533-2.737915-2.7638569
			c-0.0549927-0.055542-0.0986938-0.1283569-0.2137451-0.1586304c0,0.3874512,0.005188,0.7636719-0.0026855,1.1396484
			c-0.0028687,0.1376953,0.038147,0.2372437,0.1359253,0.3353882c0.9278564,0.9317646,1.8508301,1.8683491,2.7768555,2.8020039
			C17.9241409,34.008709,17.9603958,34.0828056,18.0721512,34.0703545z"/>
		<path fill="#515151" d="M12.4206009,24.0580235c-0.0006714,0.0848389-0.0004883,0.1725464-0.0007935,0.2579956
			c0.7943726,0.7965698,1.5869141,1.5950928,2.3807983,2.3921509c0.0411377,0.0413818,0.0704346,0.1088257,0.1682739,0.0965576
			c0-0.350769-0.0095825-0.7022095,0.0039062-1.0527344c0.0072021-0.1869507-0.0494385-0.3203125-0.1824951-0.4530029
			c-0.7893677-0.7876587-1.5700073-1.5839844-2.3539429-2.3770752c-0.1505127-0.1522827-0.3026123-0.3029785-0.4539795-0.4543457
			c-0.0188599,0.0111694-0.0377197,0.0223999-0.0566406,0.0336304c0,0.3216553,0.0026245,0.6433105-0.0030518,0.9647217
			c0.1279907,0.1291504,0.2560425,0.2583008,0.3840942,0.3874512C12.3642654,23.911356,12.4213333,23.96348,12.4206009,24.0580235z"
			/>
		<path fill="#515151" d="M12.0759354,23.970499c0.1148682,0.1149292,0.229126,0.2304688,0.3438721,0.34552
			c0.0003052-0.0854492,0.0001221-0.1731567,0.0007935-0.2579956c0.0007324-0.0945435-0.0563354-0.1466675-0.1138306-0.2046509
			c-0.1280518-0.1291504-0.2561035-0.2583008-0.3840942-0.3874512c-0.0008545,0.0495605,0.0009766,0.0991821-0.0004883,0.1487427
			C11.9176712,23.7662754,11.9735184,23.868021,12.0759354,23.970499z"/>
		<path fill="#515151" d="M18.5670853,2.936137c-0.0015259,0.0430298,0.0004883,0.0861206-0.0004883,0.1291504
			c0.8116455,0.821228,1.623291,1.6423337,2.4361572,2.46228c0.0404663,0.0408325,0.072998,0.1099854,0.1727295,0.0760498
			c0-0.3556519-0.006897-0.7166748,0.0031738-1.0772095c0.0043945-0.1585083-0.0498657-0.2686768-0.1604614-0.3796387
			c-0.9091797-0.9119871-1.812439-1.8298337-2.7184448-2.7450559c-0.0610962-0.0617065-0.1143799-0.135498-0.2282715-0.1888428
			c0,0.343689-0.000061,0.6646729-0.0006714,0.9876709c0.1102295,0.1104126,0.2195435,0.2219238,0.3299561,0.3321533
			C18.5195999,2.6512859,18.5730667,2.7673137,18.5670853,2.936137z"/>
		<path fill="#515151" d="M18.189949,2.68455c0.1254883,0.1269531,0.2511597,0.2537842,0.3766479,0.3807373
			c0.0009766-0.0430298-0.0010376-0.0861206,0.0004883-0.1291504c0.0059814-0.1688232-0.0474854-0.2848511-0.1663208-0.4034424
			c-0.1104126-0.1102295-0.2197266-0.2217407-0.3299561-0.3321533c-0.0001831,0.0917358,0.0003052,0.1890259-0.0001831,0.2804565
			C18.070137,2.5755413,18.1332474,2.627177,18.189949,2.68455z"/>
		<path fill="#515151" d="M14.9713211,53.067791c0.0022583-0.1234741-0.0552368-0.2012939-0.1345825-0.2808838
			c-0.9343262-0.9362183-1.8671265-1.8740234-2.800354-2.8113403c-0.0363159,0.0060425-0.0726318,0.012085-0.1088867,0.0181274
			c0.0010376,0.3081665,0.0020752,0.6162109,0.0031128,0.9243774c0.1088867,0.1090698,0.2167969,0.2191772,0.3258667,0.3280029
			c0.1183472,0.118103,0.1732178,0.2333984,0.1670532,0.4026489c-0.0012207,0.0328979,0.0004883,0.0656738-0.0003662,0.0985718
			c0.8069458,0.8140259,1.6137695,1.6281128,2.4210815,2.4417114c0.0300293,0.0302734,0.0586548,0.0721436,0.1245117,0.039978
			C14.9687576,53.8454399,14.9643021,53.4565239,14.9713211,53.067791z"/>
		<path fill="#515151" d="M12.2564774,51.2460747c-0.1090698-0.1088257-0.21698-0.2189331-0.3258667-0.3280029
			c0.0003662,0.1049194,0.0007324,0.2098999,0.0010986,0.3148193c0.0139771,0.0203857,0.0280151,0.0407715,0.0419922,0.0610962
			c0.1497803,0.151123,0.2996826,0.3021851,0.4494629,0.4533081c0.0008545-0.0328979-0.0008545-0.0656738,0.0003662-0.0985718
			C12.4296951,51.4794731,12.3748245,51.3641777,12.2564774,51.2460747z"/>
		<path fill="#515151" d="M9.200325,51.2706718c-0.055603-0.0558472-0.098938-0.1292114-0.2200928-0.1636353
			c0,0.3401489,0.0007935,0.6611938-0.0021973,0.9833374c0.1206055,0.1217041,0.2414551,0.2432861,0.3620605,0.3649902
			c0.069519,0.0701294,0.1373291,0.1333008,0.1352539,0.2509766c-0.0013428,0.076355,0.0001221,0.1583252-0.0004883,0.2348633
			c0.767334,0.7709961,1.5338135,1.5428467,2.3012695,2.3137207c0.0394287,0.0396118,0.0706177,0.1039429,0.1669312,0.0869141
			c0-0.3594971-0.0083008-0.7114258,0.003479-1.0626831c0.0059204-0.1772461-0.0500488-0.3030396-0.1761475-0.4284668
			C10.9097366,52.9946098,10.0569534,52.1307182,9.200325,51.2706718z"/>
		<path fill="#515151" d="M9.3400955,52.4553642c-0.1206055-0.1217041-0.2414551-0.2432861-0.3620605-0.3649902
			c-0.0006104,0.0673218,0.0007935,0.1382446-0.0004272,0.2053833c-0.0022583,0.1235352,0.0553589,0.2012329,0.1345825,0.2808228
			c0.1209717,0.12146,0.2417603,0.243103,0.3626709,0.364624c0.0006104-0.0765381-0.0008545-0.1585083,0.0004883-0.2348633
			C9.4774246,52.588665,9.4096146,52.5254936,9.3400955,52.4553642z"/>
		<path fill="#515151" d="M11.9071732,0.5602214c0.0411377-0.0372314,0.0354004-0.0840454,0.0355225-0.128418
			c0.0001831-0.1439209,0.0014648-0.2879028,0.0009766-0.4318237h-0.6328735
			c0.1312256,0.131897,0.2625732,0.2636719,0.3939819,0.3954468C11.7658768,0.4567668,11.8115921,0.5419108,11.9071732,0.5602214z"
			/>
		<path fill="#515151" d="M6.5403519,54.0801201c-0.0006714,0.0131226,0.0004272,0.0272217-0.0001831,0.0403442
			c0.7739258,0.779541,1.5459595,1.5610352,2.3186035,2.3418579c0.0239868,0.024231,0.0535889,0.0429688,0.1229858,0.0977173
			c0-0.4396362-0.0029907-0.8290405,0.0019531-1.2183228c0.0013428-0.1089478-0.0367432-0.1865234-0.1119995-0.2623901
			c-0.8939819-0.9005737-1.7852173-1.803772-2.6782227-2.7053223c-0.0350952-0.0354004-0.0663452-0.0921631-0.1506348-0.0535889
			c0,0.3115845,0.001709,0.6293335-0.0026245,0.9466553c0.0961304,0.0968018,0.1920776,0.1938477,0.288208,0.2906494
			C6.4823074,53.7126274,6.5515213,53.8631401,6.5403519,54.0801201z"/>
		<path fill="#515151" d="M6.1804276,53.757122c0.1201782,0.1208496,0.2396851,0.2423706,0.3597412,0.3633423
			c0.0006104-0.0131226-0.0004883-0.0272217,0.0001831-0.0403442c0.0111694-0.21698-0.0580444-0.3674927-0.2119141-0.5223999
			c-0.0961304-0.0968018-0.1920776-0.1938477-0.288208-0.2906494c-0.0007324,0.0525513,0.0008545,0.104248-0.0004272,0.1568604
			C6.0364456,53.5635796,6.0841141,53.6603203,6.1804276,53.757122z"/>
		<path fill="#515151" d="M9.4758377,25.3624058c-0.0012207,0.0445557,0.0003662,0.0888672-0.0003662,0.1334229
			c0.4924316,0.4963379,0.9821167,0.9953613,1.4747925,1.4914551c0.3060913,0.3082275,0.6192017,0.6094971,0.9758301,0.9597168
			c0-0.4614258-0.0007935-0.8745117,0.0005493-1.2875977c0.0003052-0.0935059-0.0628052-0.145752-0.1196899-0.2033081
			c-0.8848877-0.8953857-1.7695923-1.7909546-2.6558838-2.6849365c-0.0403442-0.0407104-0.0726318-0.1102905-0.1708984-0.0761108
			c0,0.3112183,0.0024414,0.6268311-0.0026855,0.9420776c0.114563,0.1149292,0.2281494,0.2307739,0.3428955,0.34552
			C9.4316483,25.0939121,9.4801102,25.2056065,9.4758377,25.3624058z"/>
		<path fill="#515151" d="M9.1354446,25.1520176c0.1140137,0.1138916,0.2265015,0.2293701,0.3400269,0.343811
			c0.0007324-0.0445557-0.0008545-0.0888672,0.0003662-0.1334229c0.0042725-0.1567993-0.0441895-0.2684937-0.1554565-0.3797607
			c-0.1147461-0.1147461-0.2283325-0.2305908-0.3428955-0.34552c-0.0007324,0.045105,0.0008545,0.0896606-0.0003662,0.1347656
			C8.972847,24.9295444,9.0244217,25.0411777,9.1354446,25.1520176z"/>
		<path fill="#515151" d="M8.9818192,1.7374065c0-0.3685913-0.0092773-0.7271729,0.0039062-1.0849609
			C8.9923782,0.4734294,8.9321976,0.349467,8.8074417,0.2252605C8.7323074,0.1504924,8.6580276,0.0748698,8.5830154-0.0000203
			H7.5000076c-0.0993652,0-0.1959229,0.0109863-0.2943726,0.0148315c0.5211182,0.5236816,1.0425415,1.0471191,1.5639648,1.5705566
			C8.8241043,1.6400554,8.8664627,1.7147624,8.9818192,1.7374065z"/>
		<path fill="#515151" d="M6.5391922,26.6802769c0.7592163,0.7680054,1.5181885,1.5361328,2.2785645,2.3029175
			c0.0393066,0.0396118,0.0723877,0.1130371,0.1640625,0.0637207c0-0.3573608-0.0059204-0.7196655,0.0028687-1.081604
			c0.0036011-0.1477051-0.0429077-0.2533569-0.1469727-0.3578491c-0.8699341-0.8731689-1.734436-1.75177-2.6022339-2.6270752
			c-0.0481567-0.048584-0.0828857-0.1200562-0.1919556-0.1306152c0,0.3239746-0.000061,0.6442261-0.0006104,0.9648438
			c0.0553589,0.0556641,0.1104736,0.1115112,0.1658325,0.1671753C6.4202347,26.194315,6.5329666,26.4060459,6.5391922,26.6802769z"
			/>
		<path fill="#515151" d="M6.1596146,26.2966709c0.1264648,0.1279297,0.2531128,0.2556763,0.3795776,0.383606
			c-0.0062256-0.274231-0.1189575-0.4859619-0.3304443-0.6984863c-0.0553589-0.0556641-0.1104736-0.1115112-0.1658325-0.1671753
			c-0.0001831,0.0921021,0.0002441,0.1851807-0.0001831,0.2772217C6.042305,26.1853428,6.1025467,26.2388706,6.1596146,26.2966709z"
			/>
		<path fill="#515151" d="M37.2322464,70.0614395c-0.0220947-0.0045776-0.0442505-0.0090942-0.0663452-0.013855
			c-0.06073,0.3171997-0.0198975,0.6378174-0.0332031,0.9563599c0.1135254,0.1142578,0.2267456,0.2288208,0.340271,0.3430176
			c0.1182251,0.1189575,0.1748047,0.2363892,0.1676025,0.4050903c-0.0015869,0.0373535,0.0004883,0.0748291-0.0003662,0.1121826
			c0.6392822,0.6373291,1.2745361,1.2786865,1.9119873,1.9179077c0.060791,0.0609741,0.1085815,0.142334,0.2321777,0.1737061
			c0-0.4255371-0.0006714-0.8373413,0.0004883-1.2491455c0.0003052-0.0932617-0.0630493-0.1463623-0.119812-0.2033691
			C38.8544388,71.689064,38.0432816,70.8752823,37.2322464,70.0614395z"/>
		<path fill="#515151" d="M37.4729691,71.346962c-0.1135254-0.1141968-0.2267456-0.2287598-0.340271-0.3430176
			c-0.0009766,0.0237427,0.0015259,0.0475464-0.0001831,0.071228c-0.0142212,0.1978149,0.0570679,0.3387451,0.1967773,0.4771729
			c0.104248,0.1033325,0.2069702,0.208252,0.3109131,0.3118896c0.0008545-0.0373535-0.0012207-0.0748291,0.0003662-0.1121826
			C37.6477737,71.5833511,37.5911942,71.4659195,37.4729691,71.346962z"/>
		<path fill="#515151" d="M37.6400833,16.809c-0.0015259,0.0549316,0.0002441,0.1099854-0.0003662,0.164978
			c0.6551514,0.6635132,1.3099976,1.3272095,1.9667358,1.9890747c0.0458374,0.0462036,0.0769043,0.128479,0.178833,0.105957
			c0-0.3896484-0.0029907-0.7790527,0.0019531-1.168396c0.0013428-0.1090088-0.0367432-0.1869507-0.1120605-0.2625732
			c-0.8184814-0.8220215-1.6345825-1.6464834-2.451355-2.470336c-0.0179443-0.0037842-0.0359497-0.0076294-0.0539551-0.0115356
			c-0.053894,0.3175659-0.0406494,0.6367188-0.0331421,0.9558096c0.1203003,0.1212158,0.2404785,0.2425537,0.3607788,0.3637695
			C37.5933304,16.5723057,37.6438675,16.6689243,37.6400833,16.809z"/>
		<path fill="#515151" d="M37.2931595,16.6234531c0.1154785,0.1168823,0.2311401,0.2335815,0.3465576,0.3505249
			c0.0006104-0.0549927-0.0011597-0.1100464,0.0003662-0.164978c0.0037842-0.1400757-0.0467529-0.2366943-0.1425781-0.333252
			c-0.1203003-0.1212158-0.2404785-0.2425537-0.3607788-0.3637695c0.0020752,0.0880737,0.005127,0.1761475,0.0044556,0.2640991
			C37.1403275,16.4869175,37.2232132,16.5526524,37.2931595,16.6234531z"/>
		<path fill="#515151" d="M37.6422195,44.2706108c-0.0018311,0.052063,0.0001831,0.1043091-0.0007324,0.1564331
			c0.6691284,0.6705933,1.3366699,1.3429565,2.0053101,2.0140381c0.0334473,0.0336304,0.0610962,0.0975342,0.1385498,0.0523071
			c0-0.3572998-0.0064697-0.7191162,0.0030518-1.0805054c0.0041504-0.1565552-0.0419922-0.2700806-0.1542358-0.3817749
			c-0.7631836-0.7594604-1.5196533-1.5256958-2.279541-2.2885742c-0.0494385-0.0496216-0.0875854-0.1175537-0.1695557-0.1291504
			c-0.0669556,0.086853-0.0501709,0.1890869-0.0489502,0.2859497c0.0028076,0.2248535,0.010376,0.449646,0.0130005,0.6743164
			c0.112915,0.1137695,0.225708,0.2277832,0.3386841,0.3415527C37.5896072,44.0178032,37.6476517,44.1194878,37.6422195,44.2706108z
			"/>
		<path fill="#515151" d="M37.2910843,44.0751152c0.1171265,0.1170044,0.2334595,0.2347412,0.3504028,0.3519287
			c0.0009155-0.052124-0.0010986-0.1043701,0.0007324-0.1564331c0.0054321-0.151123-0.0526123-0.2528076-0.1544189-0.3554077
			c-0.1129761-0.1137695-0.225769-0.2277832-0.3386841-0.3415527c0.0006104,0.0553589,0.0037842,0.1107178,0.0032349,0.1660767
			C37.1509476,43.8773613,37.1939774,43.9780693,37.2910843,44.0751152z"/>
		<path fill="#515151" d="M11.9276199,77.4180069c-0.0004883,0.3144531-0.0004272,0.6288452-0.0028687,0.9431763
			c0.1047974,0.1048584,0.2084961,0.2108154,0.3135376,0.3154297c0.0980225,0.0977173,0.1477051,0.2028809,0.1660767,0.3233643
			h1.213501c-0.5286865-0.5306396-1.0575562-1.0612793-1.5864868-1.5917969
			C11.9967728,77.4114761,11.9621658,77.414772,11.9276199,77.4180069z"/>
		<path fill="#515151" d="M11.9247513,78.3611832c-0.0004272,0.055481,0.0001831,0.1109619-0.0004883,0.1664429
			c-0.0012817,0.1054688,0.0227661,0.1889038,0.1016846,0.2655029c0.0703735,0.0682983,0.1391602,0.1381226,0.2090454,0.2068481
			h0.1693726c-0.0183716-0.1204834-0.0680542-0.225647-0.1660767-0.3233643
			C12.1332474,78.5719986,12.0295486,78.4660416,11.9247513,78.3611832z"/>
		<path fill="#515151" d="M11.9459915,49.9094658c-0.0327759,0.0087891-0.0274658,0.052124-0.0184937,0.0842285
			c0.0362549-0.0060425,0.0725708-0.012085,0.1088867-0.0181274C12.0171585,49.9377251,11.9898758,49.8978081,11.9459915,49.9094658
			z"/>
		<path fill="#515151" d="M11.9385452,77.3469009c-0.0112915,0.0045166-0.0076904,0.0464478-0.0109253,0.071106
			c0.0345459-0.0032349,0.0691528-0.0065308,0.1037598-0.0098267C12.0124588,77.3686295,11.99189,77.3257217,11.9385452,77.3469009z
			"/>
		<path fill="#515151" d="M30.08564,46.1689873c-0.0310669,0.0025635-0.0621338,0.0050659-0.0932617,0.0076294
			C30.0277176,46.2254448,30.0623245,46.2662773,30.08564,46.1689873z"/>
		<path fill="#515151" d="M51.6003494,22.7625523c0.0289307-0.0023193,0.0361938-0.024292,0.0293579-0.0509033
			c-0.026062,0.0026855-0.0522461,0.0053101-0.0784302,0.0079346C51.5585403,22.7444248,51.573494,22.7646275,51.6003494,22.7625523
			z"/>
		<path fill="#515151" d="M30.0861282,73.5936661c-0.0332031,0.0049438-0.0665283,0.0098267-0.0998535,0.0147705
			C30.0286942,73.6649551,30.0664749,73.6905289,30.0861282,73.5936661z"/>
		<path fill="#515151" d="M51.6317215,77.5616837c-0.0310059,0.006958-0.0620728,0.0137939-0.0931396,0.0206909
			C51.582222,77.6320572,51.6211624,77.6604996,51.6317215,77.5616837z"/>
		<path fill="#515151" d="M37.127388,47.9900932c-0.0215454-0.0040283-0.0430908-0.0079346-0.0646362-0.0118408
			C37.0780106,48.0162163,37.0977249,48.0301323,37.127388,47.9900932z"/>
		<path fill="#515151" d="M51.6040726,50.1644096c-0.0199585-0.0046997-0.039917-0.0092773-0.0598145-0.013855
			C51.5565262,50.1879082,51.5742874,50.2021294,51.6040726,50.1644096z"/>
		<path fill="#515151" d="M37.123909,20.5577183c-0.0181274-0.0036011-0.0361938-0.0071411-0.0543213-0.0106812
			C37.0809402,20.585001,37.0973587,20.5969639,37.123909,20.5577183z"/>
		<path fill="#515151" d="M51.6456375,17.3287144c0.0200195,0.0040283,0.039978,0.0079956,0.0599976,0.0119019
			C51.6924515,17.3026524,51.674263,17.2893467,51.6456375,17.3287144z"/>
		<path fill="#515151" d="M37.1698685,15.1561689c0.0180054,0.0039062,0.0360107,0.0077515,0.0539551,0.0115356
			C37.2132034,15.1297407,37.1969681,15.1176558,37.1698685,15.1561689z"/>
		<path fill="#515151" d="M37.1659012,70.0475845c0.0220947,0.0047607,0.0442505,0.0092773,0.0663452,0.013855
			C37.2169876,70.0243301,37.1969681,70.0094986,37.1659012,70.0475845z"/>
		<path fill="#515151" d="M30.0930252,67.065834c0.0211182,0.0010986,0.0422363,0.0021973,0.0632935,0.0032349
			C30.1372757,67.029335,30.1166458,67.0179214,30.0930252,67.065834z"/>
	</g>
</g>
</svg>
