{
	"asset":{
		"generator":"Khronos glTF Blender I/O v5.0.21",
		"version":"2.0"
	},
	"scene":0,
	"scenes":[
		{
			"name":"Scene",
			"nodes":[
				0,
				1,
				2,
				3
			]
		}
	],
	"nodes":[
		{
			"mesh":0,
			"name":"model_inside"
		},
		{
			"mesh":1,
			"name":"womans_shorts_laces"
		},
		{
			"mesh":2,
			"name":"model_left"
		},
		{
			"mesh":3,
			"name":"model_right"
		}
	],
	"materials":[
		{
			"doubleSided":true,
			"name":"model_inside",
			"normalTexture":{
				"index":0
			},
			"occlusionTexture":{
				"index":1
			},
			"pbrMetallicRoughness":{
				"baseColorFactor":[
					0.800000011920929,
					0.800000011920929,
					0.800000011920929,
					1
				],
				"metallicFactor":0,
				"metallicRoughnessTexture":{
					"index":1
				}
			}
		},
		{
			"doubleSided":true,
			"name":"laces_fabric",
			"normalTexture":{
				"index":2
			},
			"pbrMetallicRoughness":{
				"baseColorFactor":[
					0.0007738015847280622,
					0.0007738015847280622,
					0.0007738015847280622,
					1
				],
				"metallicFactor":0,
				"metallicRoughnessTexture":{
					"index":3
				}
			}
		},
		{
			"doubleSided":true,
			"name":"laces_ends",
			"pbrMetallicRoughness":{
				"baseColorFactor":[
					0.0007738015847280622,
					0.0007738015847280622,
					0.0007738015847280622,
					1
				],
				"metallicFactor":0,
				"roughnessFactor":0.5
			}
		},
		{
			"doubleSided":true,
			"name":"womans_shorts",
			"normalTexture":{
				"index":4,
				"texCoord":1
			},
			"occlusionTexture":{
				"index":5,
				"texCoord":1
			},
			"pbrMetallicRoughness":{
				"baseColorFactor":[
					0.800000011920929,
					0.800000011920929,
					0.800000011920929,
					1
				],
				"metallicFactor":0,
				"metallicRoughnessTexture":{
					"index":5,
					"texCoord":1
				}
			}
		}
	],
	"meshes":[
		{
			"name":"Mesh.001",
			"primitives":[
				{
					"attributes":{
						"POSITION":0,
						"NORMAL":1,
						"TEXCOORD_0":2
					},
					"indices":3,
					"material":0
				}
			]
		},
		{
			"name":"B\u00e9zierCurve.001",
			"primitives":[
				{
					"attributes":{
						"POSITION":4,
						"NORMAL":5,
						"TEXCOORD_0":6
					},
					"indices":7,
					"material":1
				},
				{
					"attributes":{
						"POSITION":8,
						"NORMAL":9,
						"TEXCOORD_0":10
					},
					"indices":11,
					"material":2
				}
			]
		},
		{
			"name":"Mesh.002",
			"primitives":[
				{
					"attributes":{
						"POSITION":12,
						"NORMAL":13,
						"TEXCOORD_0":14,
						"TEXCOORD_1":15
					},
					"indices":16,
					"material":3
				}
			]
		},
		{
			"name":"Mesh.003",
			"primitives":[
				{
					"attributes":{
						"POSITION":17,
						"NORMAL":18,
						"TEXCOORD_0":19,
						"TEXCOORD_1":20
					},
					"indices":21,
					"material":3
				}
			]
		}
	],
	"textures":[
		{
			"sampler":0,
			"source":0
		},
		{
			"sampler":0,
			"source":1
		},
		{
			"sampler":0,
			"source":2
		},
		{
			"sampler":0,
			"source":3
		},
		{
			"sampler":0,
			"source":4
		},
		{
			"sampler":0,
			"source":5
		}
	],
	"images":[
		{
			"mimeType":"image/jpeg",
			"name":"inside_normal",
			"uri":"inside_normal.jpg"
		},
		{
			"mimeType":"image/jpeg",
			"name":"inside_ao-inside_roughness",
			"uri":"inside_ao-inside_roughness.jpg"
		},
		{
			"mimeType":"image/jpeg",
			"name":"NormalMap",
			"uri":"NormalMap.jpg"
		},
		{
			"mimeType":"image/jpeg",
			"name":"roughness",
			"uri":"roughness.jpg"
		},
		{
			"mimeType":"image/jpeg",
			"name":"outside_normal",
			"uri":"outside_normal.jpg"
		},
		{
			"mimeType":"image/jpeg",
			"name":"outside_ao-outside_roughness",
			"uri":"outside_ao-outside_roughness.jpg"
		}
	],
	"accessors":[
		{
			"bufferView":0,
			"componentType":5126,
			"count":3834,
			"max":[
				0.1933298408985138,
				1.1898362636566162,
				0.10358870774507523
			],
			"min":[
				-0.18903909623622894,
				0.9131826162338257,
				-0.1378801017999649
			],
			"type":"VEC3"
		},
		{
			"bufferView":1,
			"componentType":5126,
			"count":3834,
			"type":"VEC3"
		},
		{
			"bufferView":2,
			"componentType":5126,
			"count":3834,
			"type":"VEC2"
		},
		{
			"bufferView":3,
			"componentType":5123,
			"count":21783,
			"type":"SCALAR"
		},
		{
			"bufferView":4,
			"componentType":5126,
			"count":251,
			"max":[
				0.012684240937232971,
				1.1847964525222778,
				0.1152249127626419
			],
			"min":[
				-0.01583673804998398,
				1.0752581357955933,
				0.09855617582798004
			],
			"type":"VEC3"
		},
		{
			"bufferView":5,
			"componentType":5126,
			"count":251,
			"type":"VEC3"
		},
		{
			"bufferView":6,
			"componentType":5126,
			"count":251,
			"type":"VEC2"
		},
		{
			"bufferView":7,
			"componentType":5123,
			"count":1170,
			"type":"SCALAR"
		},
		{
			"bufferView":8,
			"componentType":5126,
			"count":52,
			"max":[
				0.004655627533793449,
				1.0799787044525146,
				0.11358977854251862
			],
			"min":[
				-0.007443586364388466,
				1.0672906637191772,
				0.11097094416618347
			],
			"type":"VEC3"
		},
		{
			"bufferView":9,
			"componentType":5126,
			"count":52,
			"type":"VEC3"
		},
		{
			"bufferView":10,
			"componentType":5126,
			"count":52,
			"type":"VEC2"
		},
		{
			"bufferView":11,
			"componentType":5123,
			"count":120,
			"type":"SCALAR"
		},
		{
			"bufferView":12,
			"componentType":5126,
			"count":2831,
			"max":[
				0.19602100551128387,
				1.2331897020339966,
				0.10458599776029587
			],
			"min":[
				-0.006185638718307018,
				0.8949151635169983,
				-0.1388784945011139
			],
			"type":"VEC3"
		},
		{
			"bufferView":13,
			"componentType":5126,
			"count":2831,
			"type":"VEC3"
		},
		{
			"bufferView":14,
			"componentType":5126,
			"count":2831,
			"type":"VEC2"
		},
		{
			"bufferView":15,
			"componentType":5126,
			"count":2831,
			"type":"VEC2"
		},
		{
			"bufferView":16,
			"componentType":5123,
			"count":16260,
			"type":"SCALAR"
		},
		{
			"bufferView":17,
			"componentType":5126,
			"count":2852,
			"max":[
				0.008863000199198723,
				1.2326942682266235,
				0.10331990569829941
			],
			"min":[
				-0.1912499964237213,
				0.8945151567459106,
				-0.1388784945011139
			],
			"type":"VEC3"
		},
		{
			"bufferView":18,
			"componentType":5126,
			"count":2852,
			"type":"VEC3"
		},
		{
			"bufferView":19,
			"componentType":5126,
			"count":2852,
			"type":"VEC2"
		},
		{
			"bufferView":20,
			"componentType":5126,
			"count":2852,
			"type":"VEC2"
		},
		{
			"bufferView":21,
			"componentType":5123,
			"count":16389,
			"type":"SCALAR"
		}
	],
	"bufferViews":[
		{
			"buffer":0,
			"byteLength":46008,
			"byteOffset":0,
			"target":34962
		},
		{
			"buffer":0,
			"byteLength":46008,
			"byteOffset":46008,
			"target":34962
		},
		{
			"buffer":0,
			"byteLength":30672,
			"byteOffset":92016,
			"target":34962
		},
		{
			"buffer":0,
			"byteLength":43566,
			"byteOffset":122688,
			"target":34963
		},
		{
			"buffer":0,
			"byteLength":3012,
			"byteOffset":166256,
			"target":34962
		},
		{
			"buffer":0,
			"byteLength":3012,
			"byteOffset":169268,
			"target":34962
		},
		{
			"buffer":0,
			"byteLength":2008,
			"byteOffset":172280,
			"target":34962
		},
		{
			"buffer":0,
			"byteLength":2340,
			"byteOffset":174288,
			"target":34963
		},
		{
			"buffer":0,
			"byteLength":624,
			"byteOffset":176628,
			"target":34962
		},
		{
			"buffer":0,
			"byteLength":624,
			"byteOffset":177252,
			"target":34962
		},
		{
			"buffer":0,
			"byteLength":416,
			"byteOffset":177876,
			"target":34962
		},
		{
			"buffer":0,
			"byteLength":240,
			"byteOffset":178292,
			"target":34963
		},
		{
			"buffer":0,
			"byteLength":33972,
			"byteOffset":178532,
			"target":34962
		},
		{
			"buffer":0,
			"byteLength":33972,
			"byteOffset":212504,
			"target":34962
		},
		{
			"buffer":0,
			"byteLength":22648,
			"byteOffset":246476,
			"target":34962
		},
		{
			"buffer":0,
			"byteLength":22648,
			"byteOffset":269124,
			"target":34962
		},
		{
			"buffer":0,
			"byteLength":32520,
			"byteOffset":291772,
			"target":34963
		},
		{
			"buffer":0,
			"byteLength":34224,
			"byteOffset":324292,
			"target":34962
		},
		{
			"buffer":0,
			"byteLength":34224,
			"byteOffset":358516,
			"target":34962
		},
		{
			"buffer":0,
			"byteLength":22816,
			"byteOffset":392740,
			"target":34962
		},
		{
			"buffer":0,
			"byteLength":22816,
			"byteOffset":415556,
			"target":34962
		},
		{
			"buffer":0,
			"byteLength":32778,
			"byteOffset":438372,
			"target":34963
		}
	],
	"samplers":[
		{
			"magFilter":9729,
			"minFilter":9987
		}
	],
	"buffers":[
		{
			"byteLength":471152,
			"uri":"model.bin"
		}
	]
}
