{
	"asset":{
		"generator":"Khronos glTF Blender I/O v5.0.21",
		"version":"2.0"
	},
	"scene":0,
	"scenes":[
		{
			"name":"Scene",
			"nodes":[
				0,
				1,
				2,
				3,
				4,
				5,
				6,
				7
			]
		}
	],
	"nodes":[
		{
			"mesh":0,
			"name":"model_collar"
		},
		{
			"mesh":1,
			"name":"model_back"
		},
		{
			"mesh":2,
			"name":"model_inside"
		},
		{
			"mesh":3,
			"name":"model_sweatband"
		},
		{
			"mesh":4,
			"name":"model_label"
		},
		{
			"mesh":5,
			"name":"model_front"
		},
		{
			"mesh":6,
			"name":"model_sleeve_left"
		},
		{
			"mesh":7,
			"name":"model_sleeve_right"
		}
	],
	"materials":[
		{
			"doubleSided":true,
			"name":"model",
			"normalTexture":{
				"index":0,
				"texCoord":1
			},
			"occlusionTexture":{
				"index":1,
				"texCoord":1
			},
			"pbrMetallicRoughness":{
				"baseColorFactor":[
					0.800000011920929,
					0.800000011920929,
					0.800000011920929,
					1
				],
				"metallicFactor":0,
				"metallicRoughnessTexture":{
					"index":1,
					"texCoord":1
				}
			}
		},
		{
			"doubleSided":true,
			"name":"vneck_inside",
			"normalTexture":{
				"index":2
			},
			"occlusionTexture":{
				"index":3
			},
			"pbrMetallicRoughness":{
				"baseColorFactor":[
					0.800000011920929,
					0.800000011920929,
					0.800000011920929,
					1
				],
				"metallicFactor":0,
				"metallicRoughnessTexture":{
					"index":3
				}
			}
		},
		{
			"doubleSided":true,
			"name":"sweatband",
			"normalTexture":{
				"index":4
			},
			"pbrMetallicRoughness":{
				"baseColorTexture":{
					"index":5
				},
				"metallicFactor":0,
				"metallicRoughnessTexture":{
					"index":6
				}
			}
		},
		{
			"alphaMode":"BLEND",
			"doubleSided":true,
			"name":"label",
			"pbrMetallicRoughness":{
				"baseColorFactor":[
					0,
					0,
					0,
					1
				],
				"baseColorTexture":{
					"index":7
				},
				"metallicFactor":0
			}
		}
	],
	"meshes":[
		{
			"name":"Mesh",
			"primitives":[
				{
					"attributes":{
						"POSITION":0,
						"NORMAL":1,
						"TEXCOORD_0":3,
						"TEXCOORD_1":2
					},
					"indices":4,
					"material":0
				}
			]
		},
		{
			"name":"Mesh.008",
			"primitives":[
				{
					"attributes":{
						"POSITION":5,
						"NORMAL":6,
						"TEXCOORD_0":8,
						"TEXCOORD_1":7
					},
					"indices":9,
					"material":0
				}
			]
		},
		{
			"name":"Mesh.014",
			"primitives":[
				{
					"attributes":{
						"POSITION":10,
						"NORMAL":11,
						"TEXCOORD_0":12,
						"TEXCOORD_1":13
					},
					"indices":14,
					"material":1
				}
			]
		},
		{
			"name":"Mesh.016",
			"primitives":[
				{
					"attributes":{
						"POSITION":15,
						"NORMAL":16,
						"TEXCOORD_0":17
					},
					"indices":18,
					"material":2
				}
			]
		},
		{
			"name":"Plane",
			"primitives":[
				{
					"attributes":{
						"POSITION":19,
						"NORMAL":20,
						"TEXCOORD_0":21
					},
					"indices":22,
					"material":3
				}
			]
		},
		{
			"name":"Mesh.017",
			"primitives":[
				{
					"attributes":{
						"POSITION":23,
						"NORMAL":24,
						"TEXCOORD_0":26,
						"TEXCOORD_1":25
					},
					"indices":27,
					"material":0
				}
			]
		},
		{
			"name":"Mesh.018",
			"primitives":[
				{
					"attributes":{
						"POSITION":28,
						"NORMAL":29,
						"TEXCOORD_0":31,
						"TEXCOORD_1":30
					},
					"indices":32,
					"material":0
				}
			]
		},
		{
			"name":"Mesh.019",
			"primitives":[
				{
					"attributes":{
						"POSITION":33,
						"NORMAL":34,
						"TEXCOORD_0":36,
						"TEXCOORD_1":35
					},
					"indices":37,
					"material":0
				}
			]
		}
	],
	"textures":[
		{
			"sampler":0,
			"source":0
		},
		{
			"sampler":0,
			"source":1
		},
		{
			"sampler":0,
			"source":2
		},
		{
			"sampler":0,
			"source":3
		},
		{
			"sampler":0,
			"source":4
		},
		{
			"sampler":0,
			"source":5
		},
		{
			"sampler":0,
			"source":6
		},
		{
			"sampler":0,
			"source":7
		}
	],
	"images":[
		{
			"mimeType":"image/jpeg",
			"name":"outside_normal",
			"uri":"bake_normal.jpg"
		},
		{
			"mimeType":"image/jpeg",
			"name":"outside_ao-outside_roughness",
			"uri":"bake_ao_roughness.jpg"
		},
		{
			"mimeType":"image/jpeg",
			"name":"inside_normal",
			"uri":"inside_normal.jpg"
		},
		{
			"mimeType":"image/jpeg",
			"name":"inside_ao-inside_roughness",
			"uri":"inside_ao_roughness.jpg"
		},
		{
			"mimeType":"image/jpeg",
			"name":"fabric_normal",
			"uri":"fabric_normal.jpg"
		},
		{
			"mimeType":"image/jpeg",
			"name":"sweatband",
			"uri":"sweatband.jpg"
		},
		{
			"mimeType":"image/jpeg",
			"name":"fabric_roughness",
			"uri":"fabric_roughness.jpg"
		},
		{
			"mimeType":"image/png",
			"name":"label",
			"uri":"label.png"
		}
	],
	"accessors":[
		{
			"bufferView":0,
			"componentType":5126,
			"count":346,
			"max":[
				0.10322734713554382,
				1.6564668416976929,
				0.07229946553707123
			],
			"min":[
				-0.10533633828163147,
				1.5511162281036377,
				-0.08800902962684631
			],
			"type":"VEC3"
		},
		{
			"bufferView":1,
			"componentType":5126,
			"count":346,
			"type":"VEC3"
		},
		{
			"bufferView":2,
			"componentType":5126,
			"count":346,
			"type":"VEC2"
		},
		{
			"bufferView":3,
			"componentType":5126,
			"count":346,
			"type":"VEC2"
		},
		{
			"bufferView":4,
			"componentType":5123,
			"count":1704,
			"type":"SCALAR"
		},
		{
			"bufferView":5,
			"componentType":5126,
			"count":17518,
			"max":[
				0.21310999989509583,
				1.6455457210540771,
				0.02324100024998188
			],
			"min":[
				-0.21530300378799438,
				0.9886289834976196,
				-0.14025600254535675
			],
			"type":"VEC3"
		},
		{
			"bufferView":6,
			"componentType":5126,
			"count":17518,
			"type":"VEC3"
		},
		{
			"bufferView":7,
			"componentType":5126,
			"count":17518,
			"type":"VEC2"
		},
		{
			"bufferView":8,
			"componentType":5126,
			"count":17518,
			"type":"VEC2"
		},
		{
			"bufferView":9,
			"componentType":5123,
			"count":28782,
			"type":"SCALAR"
		},
		{
			"bufferView":10,
			"componentType":5126,
			"count":13142,
			"max":[
				0.3532539904117584,
				1.6455457210540771,
				0.17733700573444366
			],
			"min":[
				-0.356546014547348,
				1.0070650577545166,
				-0.13925014436244965
			],
			"type":"VEC3"
		},
		{
			"bufferView":11,
			"componentType":5126,
			"count":13142,
			"type":"VEC3"
		},
		{
			"bufferView":12,
			"componentType":5126,
			"count":13142,
			"type":"VEC2"
		},
		{
			"bufferView":13,
			"componentType":5126,
			"count":13142,
			"type":"VEC2"
		},
		{
			"bufferView":14,
			"componentType":5123,
			"count":76143,
			"type":"SCALAR"
		},
		{
			"bufferView":15,
			"componentType":5126,
			"count":144,
			"max":[
				0.10967225581407547,
				1.6446325778961182,
				0.07393018901348114
			],
			"min":[
				-0.11260759830474854,
				1.539914608001709,
				-0.08990953862667084
			],
			"type":"VEC3"
		},
		{
			"bufferView":16,
			"componentType":5126,
			"count":144,
			"type":"VEC3"
		},
		{
			"bufferView":17,
			"componentType":5126,
			"count":144,
			"type":"VEC2"
		},
		{
			"bufferView":18,
			"componentType":5123,
			"count":426,
			"type":"SCALAR"
		},
		{
			"bufferView":19,
			"componentType":5126,
			"count":4,
			"max":[
				0.012437725439667702,
				1.620367169380188,
				-0.09084013849496841
			],
			"min":[
				-0.012331532314419746,
				1.6058478355407715,
				-0.10260307788848877
			],
			"type":"VEC3"
		},
		{
			"bufferView":20,
			"componentType":5126,
			"count":4,
			"type":"VEC3"
		},
		{
			"bufferView":21,
			"componentType":5126,
			"count":4,
			"type":"VEC2"
		},
		{
			"bufferView":22,
			"componentType":5123,
			"count":6,
			"type":"SCALAR"
		},
		{
			"bufferView":23,
			"componentType":5126,
			"count":19632,
			"max":[
				0.21331501007080078,
				1.6388200521469116,
				0.18143367767333984
			],
			"min":[
				-0.21637220680713654,
				1.000419020652771,
				-0.023760000243782997
			],
			"type":"VEC3"
		},
		{
			"bufferView":24,
			"componentType":5126,
			"count":19632,
			"type":"VEC3"
		},
		{
			"bufferView":25,
			"componentType":5126,
			"count":19632,
			"type":"VEC2"
		},
		{
			"bufferView":26,
			"componentType":5126,
			"count":19632,
			"type":"VEC2"
		},
		{
			"bufferView":27,
			"componentType":5123,
			"count":32148,
			"type":"SCALAR"
		},
		{
			"bufferView":28,
			"componentType":5126,
			"count":6604,
			"max":[
				0.36702001094818115,
				1.5962495803833008,
				0.05127200111746788
			],
			"min":[
				0.16590750217437744,
				1.3672770261764526,
				-0.1026415005326271
			],
			"type":"VEC3"
		},
		{
			"bufferView":29,
			"componentType":5126,
			"count":6604,
			"type":"VEC3"
		},
		{
			"bufferView":30,
			"componentType":5126,
			"count":6604,
			"type":"VEC2"
		},
		{
			"bufferView":31,
			"componentType":5126,
			"count":6604,
			"type":"VEC2"
		},
		{
			"bufferView":32,
			"componentType":5123,
			"count":10638,
			"type":"SCALAR"
		},
		{
			"bufferView":33,
			"componentType":5126,
			"count":7174,
			"max":[
				-0.16806599497795105,
				1.5948009490966797,
				0.04615199938416481
			],
			"min":[
				-0.37039101123809814,
				1.3661789894104004,
				-0.1011282280087471
			],
			"type":"VEC3"
		},
		{
			"bufferView":34,
			"componentType":5126,
			"count":7174,
			"type":"VEC3"
		},
		{
			"bufferView":35,
			"componentType":5126,
			"count":7174,
			"type":"VEC2"
		},
		{
			"bufferView":36,
			"componentType":5126,
			"count":7174,
			"type":"VEC2"
		},
		{
			"bufferView":37,
			"componentType":5123,
			"count":12093,
			"type":"SCALAR"
		}
	],
	"bufferViews":[
		{
			"buffer":0,
			"byteLength":4152,
			"byteOffset":0,
			"target":34962
		},
		{
			"buffer":0,
			"byteLength":4152,
			"byteOffset":4152,
			"target":34962
		},
		{
			"buffer":0,
			"byteLength":2768,
			"byteOffset":8304,
			"target":34962
		},
		{
			"buffer":0,
			"byteLength":2768,
			"byteOffset":11072,
			"target":34962
		},
		{
			"buffer":0,
			"byteLength":3408,
			"byteOffset":13840,
			"target":34963
		},
		{
			"buffer":0,
			"byteLength":210216,
			"byteOffset":17248,
			"target":34962
		},
		{
			"buffer":0,
			"byteLength":210216,
			"byteOffset":227464,
			"target":34962
		},
		{
			"buffer":0,
			"byteLength":140144,
			"byteOffset":437680,
			"target":34962
		},
		{
			"buffer":0,
			"byteLength":140144,
			"byteOffset":577824,
			"target":34962
		},
		{
			"buffer":0,
			"byteLength":57564,
			"byteOffset":717968,
			"target":34963
		},
		{
			"buffer":0,
			"byteLength":157704,
			"byteOffset":775532,
			"target":34962
		},
		{
			"buffer":0,
			"byteLength":157704,
			"byteOffset":933236,
			"target":34962
		},
		{
			"buffer":0,
			"byteLength":105136,
			"byteOffset":1090940,
			"target":34962
		},
		{
			"buffer":0,
			"byteLength":105136,
			"byteOffset":1196076,
			"target":34962
		},
		{
			"buffer":0,
			"byteLength":152286,
			"byteOffset":1301212,
			"target":34963
		},
		{
			"buffer":0,
			"byteLength":1728,
			"byteOffset":1453500,
			"target":34962
		},
		{
			"buffer":0,
			"byteLength":1728,
			"byteOffset":1455228,
			"target":34962
		},
		{
			"buffer":0,
			"byteLength":1152,
			"byteOffset":1456956,
			"target":34962
		},
		{
			"buffer":0,
			"byteLength":852,
			"byteOffset":1458108,
			"target":34963
		},
		{
			"buffer":0,
			"byteLength":48,
			"byteOffset":1458960,
			"target":34962
		},
		{
			"buffer":0,
			"byteLength":48,
			"byteOffset":1459008,
			"target":34962
		},
		{
			"buffer":0,
			"byteLength":32,
			"byteOffset":1459056,
			"target":34962
		},
		{
			"buffer":0,
			"byteLength":12,
			"byteOffset":1459088,
			"target":34963
		},
		{
			"buffer":0,
			"byteLength":235584,
			"byteOffset":1459100,
			"target":34962
		},
		{
			"buffer":0,
			"byteLength":235584,
			"byteOffset":1694684,
			"target":34962
		},
		{
			"buffer":0,
			"byteLength":157056,
			"byteOffset":1930268,
			"target":34962
		},
		{
			"buffer":0,
			"byteLength":157056,
			"byteOffset":2087324,
			"target":34962
		},
		{
			"buffer":0,
			"byteLength":64296,
			"byteOffset":2244380,
			"target":34963
		},
		{
			"buffer":0,
			"byteLength":79248,
			"byteOffset":2308676,
			"target":34962
		},
		{
			"buffer":0,
			"byteLength":79248,
			"byteOffset":2387924,
			"target":34962
		},
		{
			"buffer":0,
			"byteLength":52832,
			"byteOffset":2467172,
			"target":34962
		},
		{
			"buffer":0,
			"byteLength":52832,
			"byteOffset":2520004,
			"target":34962
		},
		{
			"buffer":0,
			"byteLength":21276,
			"byteOffset":2572836,
			"target":34963
		},
		{
			"buffer":0,
			"byteLength":86088,
			"byteOffset":2594112,
			"target":34962
		},
		{
			"buffer":0,
			"byteLength":86088,
			"byteOffset":2680200,
			"target":34962
		},
		{
			"buffer":0,
			"byteLength":57392,
			"byteOffset":2766288,
			"target":34962
		},
		{
			"buffer":0,
			"byteLength":57392,
			"byteOffset":2823680,
			"target":34962
		},
		{
			"buffer":0,
			"byteLength":24186,
			"byteOffset":2881072,
			"target":34963
		}
	],
	"samplers":[
		{
			"magFilter":9729,
			"minFilter":9987
		}
	],
	"buffers":[
		{
			"byteLength":2905260,
			"uri":"model.bin"
		}
	]
}
