{
	"asset":{
		"generator":"Khronos glTF Blender I/O v5.0.21",
		"version":"2.0"
	},
	"scene":0,
	"scenes":[
		{
			"name":"Scene",
			"nodes":[
				0,
				1,
				2,
				3
			]
		}
	],
	"nodes":[
		{
			"mesh":0,
			"name":"model_laces"
		},
		{
			"mesh":1,
			"name":"model_right"
		},
		{
			"mesh":2,
			"name":"model_inside"
		},
		{
			"mesh":3,
			"name":"model_left"
		}
	],
	"materials":[
		{
			"doubleSided":true,
			"name":"laces_fabric",
			"normalTexture":{
				"index":0
			},
			"pbrMetallicRoughness":{
				"baseColorFactor":[
					0.0007738015847280622,
					0.0007738015847280622,
					0.0007738015847280622,
					1
				],
				"metallicFactor":0,
				"metallicRoughnessTexture":{
					"index":1
				}
			}
		},
		{
			"doubleSided":true,
			"name":"laces_ends",
			"pbrMetallicRoughness":{
				"baseColorFactor":[
					0.0007738015847280622,
					0.0007738015847280622,
					0.0007738015847280622,
					1
				],
				"metallicFactor":0,
				"roughnessFactor":0.5
			}
		},
		{
			"doubleSided":true,
			"name":"model",
			"normalTexture":{
				"index":2,
				"texCoord":1
			},
			"occlusionTexture":{
				"index":3,
				"texCoord":1
			},
			"pbrMetallicRoughness":{
				"baseColorFactor":[
					0.800000011920929,
					0.800000011920929,
					0.800000011920929,
					1
				],
				"metallicFactor":0,
				"metallicRoughnessTexture":{
					"index":3,
					"texCoord":1
				}
			}
		},
		{
			"doubleSided":true,
			"name":"model_inside",
			"normalTexture":{
				"index":4
			},
			"occlusionTexture":{
				"index":5
			},
			"pbrMetallicRoughness":{
				"baseColorFactor":[
					0.800000011920929,
					0.800000011920929,
					0.800000011920929,
					1
				],
				"metallicFactor":0,
				"metallicRoughnessTexture":{
					"index":5
				}
			}
		}
	],
	"meshes":[
		{
			"name":"B\u00e9zierCurve.001",
			"primitives":[
				{
					"attributes":{
						"POSITION":0,
						"NORMAL":1,
						"TEXCOORD_0":2
					},
					"indices":3,
					"material":0
				},
				{
					"attributes":{
						"POSITION":4,
						"NORMAL":5,
						"TEXCOORD_0":6
					},
					"indices":7,
					"material":1
				}
			]
		},
		{
			"name":"Mesh",
			"primitives":[
				{
					"attributes":{
						"POSITION":8,
						"NORMAL":9,
						"TEXCOORD_0":10,
						"TEXCOORD_1":11
					},
					"indices":12,
					"material":2
				}
			]
		},
		{
			"name":"Mesh.001",
			"primitives":[
				{
					"attributes":{
						"POSITION":13,
						"NORMAL":14,
						"TEXCOORD_0":15
					},
					"indices":16,
					"material":3
				}
			]
		},
		{
			"name":"Mesh.003",
			"primitives":[
				{
					"attributes":{
						"POSITION":17,
						"NORMAL":18,
						"TEXCOORD_0":19,
						"TEXCOORD_1":20
					},
					"indices":21,
					"material":2
				}
			]
		}
	],
	"textures":[
		{
			"sampler":0,
			"source":0
		},
		{
			"sampler":0,
			"source":1
		},
		{
			"sampler":0,
			"source":2
		},
		{
			"sampler":0,
			"source":3
		},
		{
			"sampler":0,
			"source":4
		},
		{
			"sampler":0,
			"source":5
		}
	],
	"images":[
		{
			"mimeType":"image/jpeg",
			"name":"NormalMap",
			"uri":"fabric_normal.jpg"
		},
		{
			"mimeType":"image/jpeg",
			"name":"roughness",
			"uri":"fabric_roughness.jpg"
		},
		{
			"mimeType":"image/jpeg",
			"name":"outside_normal",
			"uri":"bake_normal.jpg"
		},
		{
			"mimeType":"image/jpeg",
			"name":"outside_ao-outside_roughness",
			"uri":"bake_ao_roughness.jpg"
		},
		{
			"mimeType":"image/jpeg",
			"name":"inside_normal",
			"uri":"inside_normal.jpg"
		},
		{
			"mimeType":"image/jpeg",
			"name":"inside_ao-inside_roughness",
			"uri":"inside_ao_roughness.jpg"
		}
	],
	"accessors":[
		{
			"bufferView":0,
			"componentType":5126,
			"count":251,
			"max":[
				0.017048032954335213,
				1.17243492603302,
				0.14277322590351105
			],
			"min":[
				-0.01731256954371929,
				1.0628066062927246,
				0.1242993175983429
			],
			"type":"VEC3"
		},
		{
			"bufferView":1,
			"componentType":5126,
			"count":251,
			"type":"VEC3"
		},
		{
			"bufferView":2,
			"componentType":5126,
			"count":251,
			"type":"VEC2"
		},
		{
			"bufferView":3,
			"componentType":5123,
			"count":1170,
			"type":"SCALAR"
		},
		{
			"bufferView":4,
			"componentType":5126,
			"count":52,
			"max":[
				0.0056573739275336266,
				1.067261815071106,
				0.14113809168338776
			],
			"min":[
				-0.011516102589666843,
				1.0548410415649414,
				0.13730952143669128
			],
			"type":"VEC3"
		},
		{
			"bufferView":5,
			"componentType":5126,
			"count":52,
			"type":"VEC3"
		},
		{
			"bufferView":6,
			"componentType":5126,
			"count":52,
			"type":"VEC2"
		},
		{
			"bufferView":7,
			"componentType":5123,
			"count":120,
			"type":"SCALAR"
		},
		{
			"bufferView":8,
			"componentType":5126,
			"count":3235,
			"max":[
				0.0008234999841079116,
				1.2250220775604248,
				0.13111349940299988
			],
			"min":[
				-0.19835899770259857,
				0.7190240025520325,
				-0.12871800363063812
			],
			"type":"VEC3"
		},
		{
			"bufferView":9,
			"componentType":5126,
			"count":3235,
			"type":"VEC3"
		},
		{
			"bufferView":10,
			"componentType":5126,
			"count":3235,
			"type":"VEC2"
		},
		{
			"bufferView":11,
			"componentType":5126,
			"count":3235,
			"type":"VEC2"
		},
		{
			"bufferView":12,
			"componentType":5123,
			"count":18675,
			"type":"SCALAR"
		},
		{
			"bufferView":13,
			"componentType":5126,
			"count":4739,
			"max":[
				0.19444435834884644,
				1.1868085861206055,
				0.13010868430137634
			],
			"min":[
				-0.19572030007839203,
				0.7378602623939514,
				-0.1277167797088623
			],
			"type":"VEC3"
		},
		{
			"bufferView":14,
			"componentType":5126,
			"count":4739,
			"type":"VEC3"
		},
		{
			"bufferView":15,
			"componentType":5126,
			"count":4739,
			"type":"VEC2"
		},
		{
			"bufferView":16,
			"componentType":5123,
			"count":27147,
			"type":"SCALAR"
		},
		{
			"bufferView":17,
			"componentType":5126,
			"count":3104,
			"max":[
				0.1966399997472763,
				1.2241297960281372,
				0.13111349940299988
			],
			"min":[
				-0.007100500166416168,
				0.7184119820594788,
				-0.12864099442958832
			],
			"type":"VEC3"
		},
		{
			"bufferView":18,
			"componentType":5126,
			"count":3104,
			"type":"VEC3"
		},
		{
			"bufferView":19,
			"componentType":5126,
			"count":3104,
			"type":"VEC2"
		},
		{
			"bufferView":20,
			"componentType":5126,
			"count":3104,
			"type":"VEC2"
		},
		{
			"bufferView":21,
			"componentType":5123,
			"count":17892,
			"type":"SCALAR"
		}
	],
	"bufferViews":[
		{
			"buffer":0,
			"byteLength":3012,
			"byteOffset":0,
			"target":34962
		},
		{
			"buffer":0,
			"byteLength":3012,
			"byteOffset":3012,
			"target":34962
		},
		{
			"buffer":0,
			"byteLength":2008,
			"byteOffset":6024,
			"target":34962
		},
		{
			"buffer":0,
			"byteLength":2340,
			"byteOffset":8032,
			"target":34963
		},
		{
			"buffer":0,
			"byteLength":624,
			"byteOffset":10372,
			"target":34962
		},
		{
			"buffer":0,
			"byteLength":624,
			"byteOffset":10996,
			"target":34962
		},
		{
			"buffer":0,
			"byteLength":416,
			"byteOffset":11620,
			"target":34962
		},
		{
			"buffer":0,
			"byteLength":240,
			"byteOffset":12036,
			"target":34963
		},
		{
			"buffer":0,
			"byteLength":38820,
			"byteOffset":12276,
			"target":34962
		},
		{
			"buffer":0,
			"byteLength":38820,
			"byteOffset":51096,
			"target":34962
		},
		{
			"buffer":0,
			"byteLength":25880,
			"byteOffset":89916,
			"target":34962
		},
		{
			"buffer":0,
			"byteLength":25880,
			"byteOffset":115796,
			"target":34962
		},
		{
			"buffer":0,
			"byteLength":37350,
			"byteOffset":141676,
			"target":34963
		},
		{
			"buffer":0,
			"byteLength":56868,
			"byteOffset":179028,
			"target":34962
		},
		{
			"buffer":0,
			"byteLength":56868,
			"byteOffset":235896,
			"target":34962
		},
		{
			"buffer":0,
			"byteLength":37912,
			"byteOffset":292764,
			"target":34962
		},
		{
			"buffer":0,
			"byteLength":54294,
			"byteOffset":330676,
			"target":34963
		},
		{
			"buffer":0,
			"byteLength":37248,
			"byteOffset":384972,
			"target":34962
		},
		{
			"buffer":0,
			"byteLength":37248,
			"byteOffset":422220,
			"target":34962
		},
		{
			"buffer":0,
			"byteLength":24832,
			"byteOffset":459468,
			"target":34962
		},
		{
			"buffer":0,
			"byteLength":24832,
			"byteOffset":484300,
			"target":34962
		},
		{
			"buffer":0,
			"byteLength":35784,
			"byteOffset":509132,
			"target":34963
		}
	],
	"samplers":[
		{
			"magFilter":9729,
			"minFilter":9987
		}
	],
	"buffers":[
		{
			"byteLength":544916,
			"uri":"model.bin"
		}
	]
}
